<svg width="404" height="402" viewBox="0 0 404 402" fill="none" xmlns="http://www.w3.org/2000/svg">
<g filter="url(#filter0_f_130_1554)">
<circle cx="244" cy="105" r="61" fill="#FFC701" fill-opacity="0.5"/>
</g>
<circle cx="244" cy="107" r="57.5" fill="url(#paint0_linear_130_1554)" stroke="url(#paint1_linear_130_1554)" stroke-width="3"/>
<mask id="mask0_130_1554" style="mask-type:alpha" maskUnits="userSpaceOnUse" x="185" y="81" width="118" height="85">
<path d="M303 107C303 139.585 276.585 166 244 166C211.415 166 185 139.585 185 107C185 74.4152 206.915 82 239.5 82C272.085 82 303 74.4152 303 107Z" fill="url(#paint2_linear_130_1554)"/>
</mask>
<g mask="url(#mask0_130_1554)">
<g filter="url(#filter1_f_130_1554)">
<path fill-rule="evenodd" clip-rule="evenodd" d="M290.5 257.997C290.666 257.999 290.833 258 291 258C314.748 258 334 238.748 334 215C334 191.252 314.748 172 291 172C290.833 172 290.666 172.001 290.5 172.003V172H263.087C263.688 168.423 264 164.748 264 161C264 124.549 234.451 95 198 95C161.549 95 132 124.549 132 161C132 164.894 132.337 168.709 132.984 172.418C112.084 175.343 96 193.293 96 215C96 238.748 115.252 258 139 258C139.168 258 139.335 257.999 139.502 257.997L139.5 258H290.5V257.997Z" fill="#E18700"/>
</g>
</g>
<g filter="url(#filter2_bd_130_1554)">
<mask id="path-5-inside-1_130_1554" fill="white">
<path fill-rule="evenodd" clip-rule="evenodd" d="M265.5 262.997C265.666 262.999 265.833 263 266 263C289.748 263 309 243.748 309 220C309 196.252 289.748 177 266 177C265.833 177 265.666 177.001 265.5 177.003V177H254.391C254.793 174.057 255 171.053 255 168C255 131.549 225.451 102 189 102C152.549 102 123 131.549 123 168C123 171.439 123.263 174.817 123.77 178.115C120.631 177.386 117.361 177 114 177C90.2518 177 71 196.252 71 220C71 243.748 90.2518 263 114 263C114.168 263 114.335 262.999 114.502 262.997L114.5 263H265.5V262.997Z"/>
</mask>
<path fill-rule="evenodd" clip-rule="evenodd" d="M265.5 262.997C265.666 262.999 265.833 263 266 263C289.748 263 309 243.748 309 220C309 196.252 289.748 177 266 177C265.833 177 265.666 177.001 265.5 177.003V177H254.391C254.793 174.057 255 171.053 255 168C255 131.549 225.451 102 189 102C152.549 102 123 131.549 123 168C123 171.439 123.263 174.817 123.77 178.115C120.631 177.386 117.361 177 114 177C90.2518 177 71 196.252 71 220C71 243.748 90.2518 263 114 263C114.168 263 114.335 262.999 114.502 262.997L114.5 263H265.5V262.997Z" fill="url(#paint3_linear_130_1554)" shape-rendering="crispEdges"/>
<path d="M265.5 262.997L265.534 259.997C264.733 259.988 263.961 260.3 263.391 260.864C262.821 261.427 262.5 262.196 262.5 262.997H265.5ZM265.5 177.003H262.5C262.5 177.804 262.821 178.573 263.391 179.136C263.961 179.7 264.733 180.012 265.534 180.003L265.5 177.003ZM265.5 177H268.5C268.5 175.343 267.157 174 265.5 174V177ZM254.391 177L251.419 176.595C251.302 177.453 251.562 178.32 252.131 178.973C252.701 179.625 253.525 180 254.391 180V177ZM123.77 178.115L123.091 181.037C124.061 181.262 125.08 180.992 125.81 180.315C126.54 179.638 126.887 178.643 126.735 177.659L123.77 178.115ZM114.502 262.997L116.856 264.857C117.573 263.95 117.705 262.711 117.195 261.674C116.685 260.636 115.624 259.984 114.468 259.997L114.502 262.997ZM114.5 263L112.146 261.14C111.433 262.043 111.299 263.273 111.8 264.308C112.301 265.343 113.35 266 114.5 266V263ZM265.5 263V266C267.157 266 268.5 264.657 268.5 263H265.5ZM265.466 265.997C265.644 265.999 265.822 266 266 266V260C265.845 260 265.689 259.999 265.534 259.997L265.466 265.997ZM266 266C291.405 266 312 245.405 312 220H306C306 242.091 288.091 260 266 260V266ZM312 220C312 194.595 291.405 174 266 174V180C288.091 180 306 197.909 306 220H312ZM266 174C265.822 174 265.644 174.001 265.466 174.003L265.534 180.003C265.689 180.001 265.844 180 266 180V174ZM262.5 177V177.003H268.5V177H262.5ZM254.391 180H265.5V174H254.391V180ZM257.364 177.405C257.783 174.329 258 171.189 258 168H252C252 170.917 251.802 173.786 251.419 176.595L257.364 177.405ZM258 168C258 129.892 227.108 99 189 99V105C223.794 105 252 133.206 252 168H258ZM189 99C150.892 99 120 129.892 120 168H126C126 133.206 154.206 105 189 105V99ZM120 168C120 171.593 120.275 175.123 120.805 178.571L126.735 177.659C126.251 174.512 126 171.286 126 168H120ZM124.449 175.193C121.089 174.412 117.591 174 114 174V180C117.131 180 120.174 180.359 123.091 181.037L124.449 175.193ZM114 174C88.5949 174 68 194.595 68 220H74C74 197.909 91.9086 180 114 180V174ZM68 220C68 245.405 88.5949 266 114 266V260C91.9086 260 74 242.091 74 220H68ZM114 266C114.179 266 114.358 265.999 114.536 265.997L114.468 259.997C114.312 259.999 114.156 260 114 260V266ZM116.854 264.86L116.856 264.857L112.148 261.138L112.146 261.14L116.854 264.86ZM265.5 260H114.5V266H265.5V260ZM262.5 262.997V263H268.5V262.997H262.5Z" fill="url(#paint4_linear_130_1554)" mask="url(#path-5-inside-1_130_1554)"/>
</g>
<g filter="url(#filter3_bd_130_1554)">
<mask id="path-7-inside-2_130_1554" fill="white">
<path fill-rule="evenodd" clip-rule="evenodd" d="M343.563 218.351C343.683 218.352 343.804 218.353 343.924 218.353C361.087 218.353 375 204.44 375 187.277C375 170.115 361.087 156.202 343.924 156.202C343.804 156.202 343.683 156.202 343.563 156.204V156.202H335.535C335.825 154.075 335.975 151.904 335.975 149.697C335.975 123.355 314.62 102 288.277 102C261.935 102 240.58 123.355 240.58 149.697C240.58 152.183 240.77 154.624 241.136 157.007C238.868 156.48 236.504 156.202 234.076 156.202C216.913 156.202 203 170.115 203 187.277C203 204.44 216.913 218.353 234.076 218.353C234.197 218.353 234.318 218.352 234.439 218.351L234.437 218.353H343.563V218.351Z"/>
</mask>
<path fill-rule="evenodd" clip-rule="evenodd" d="M343.563 218.351C343.683 218.352 343.804 218.353 343.924 218.353C361.087 218.353 375 204.44 375 187.277C375 170.115 361.087 156.202 343.924 156.202C343.804 156.202 343.683 156.202 343.563 156.204V156.202H335.535C335.825 154.075 335.975 151.904 335.975 149.697C335.975 123.355 314.62 102 288.277 102C261.935 102 240.58 123.355 240.58 149.697C240.58 152.183 240.77 154.624 241.136 157.007C238.868 156.48 236.504 156.202 234.076 156.202C216.913 156.202 203 170.115 203 187.277C203 204.44 216.913 218.353 234.076 218.353C234.197 218.353 234.318 218.352 234.439 218.351L234.437 218.353H343.563V218.351Z" fill="url(#paint5_linear_130_1554)" shape-rendering="crispEdges"/>
<path d="M343.563 218.351L343.597 215.351C342.796 215.342 342.024 215.654 341.454 216.217C340.884 216.781 340.563 217.549 340.563 218.351H343.563ZM343.563 156.204H340.563C340.563 157.005 340.884 157.774 341.454 158.337C342.024 158.901 342.796 159.213 343.597 159.204L343.563 156.204ZM343.563 156.202H346.563C346.563 154.545 345.22 153.202 343.563 153.202V156.202ZM335.535 156.202L332.563 155.796C332.445 156.655 332.705 157.522 333.275 158.175C333.845 158.827 334.669 159.202 335.535 159.202V156.202ZM241.136 157.007L240.458 159.93C241.427 160.155 242.446 159.884 243.176 159.207C243.906 158.531 244.253 157.535 244.102 156.551L241.136 157.007ZM234.439 218.351L236.793 220.21C237.509 219.303 237.641 218.065 237.131 217.027C236.621 215.99 235.56 215.338 234.404 215.351L234.439 218.351ZM234.437 218.353L232.082 216.494C231.37 217.396 231.236 218.627 231.737 219.661C232.239 220.696 233.287 221.353 234.437 221.353V218.353ZM343.563 218.353V221.353C345.22 221.353 346.563 220.01 346.563 218.353H343.563ZM343.529 221.351C343.661 221.352 343.792 221.353 343.924 221.353V215.353C343.815 215.353 343.706 215.352 343.597 215.351L343.529 221.351ZM343.924 221.353C362.744 221.353 378 206.097 378 187.277H372C372 202.783 359.43 215.353 343.924 215.353V221.353ZM378 187.277C378 168.458 362.744 153.202 343.924 153.202V159.202C359.43 159.202 372 171.772 372 187.277H378ZM343.924 153.202C343.792 153.202 343.661 153.202 343.529 153.204L343.597 159.204C343.706 159.202 343.815 159.202 343.924 159.202V153.202ZM340.563 156.202V156.204H346.563V156.202H340.563ZM335.535 159.202H343.563V153.202H335.535V159.202ZM338.508 156.607C338.816 154.346 338.975 152.04 338.975 149.697H332.975C332.975 151.768 332.834 153.804 332.563 155.796L338.508 156.607ZM338.975 149.697C338.975 121.698 316.277 99 288.277 99V105C312.963 105 332.975 125.012 332.975 149.697H338.975ZM288.277 99C260.278 99 237.58 121.698 237.58 149.697H243.58C243.58 125.012 263.592 105 288.277 105V99ZM237.58 149.697C237.58 152.336 237.782 154.93 238.171 157.463L244.102 156.551C243.758 154.319 243.58 152.03 243.58 149.697H237.58ZM241.815 154.085C239.326 153.507 236.735 153.202 234.076 153.202V159.202C236.274 159.202 238.41 159.454 240.458 159.93L241.815 154.085ZM234.076 153.202C215.256 153.202 200 168.458 200 187.277H206C206 171.772 218.57 159.202 234.076 159.202V153.202ZM200 187.277C200 206.097 215.256 221.353 234.076 221.353V215.353C218.57 215.353 206 202.783 206 187.277H200ZM234.076 221.353C234.208 221.353 234.341 221.352 234.473 221.351L234.404 215.351C234.295 215.352 234.185 215.353 234.076 215.353V221.353ZM236.792 220.212L236.793 220.21L232.084 216.492L232.082 216.494L236.792 220.212ZM343.563 215.353H234.437V221.353H343.563V215.353ZM340.563 218.351V218.353H346.563V218.351H340.563Z" fill="url(#paint6_linear_130_1554)" mask="url(#path-7-inside-2_130_1554)"/>
</g>
<g filter="url(#filter4_bdd_130_1554)">
<path d="M150.333 277.874L146.738 275.833L149.563 275.067C150.333 274.812 150.846 274.047 150.59 273.281C150.333 272.516 149.563 272.006 149.049 272.261L145.968 273.026C144.427 273.537 142.886 273.281 141.603 272.516C140.319 271.75 139.548 270.475 139.548 268.944V268.433C139.548 266.902 140.319 265.627 141.603 264.861C142.886 264.096 144.427 263.84 145.968 264.351C149.563 265.371 149.306 265.371 149.563 265.371C150.076 265.371 150.59 264.861 150.846 264.351C151.103 263.585 150.59 262.82 149.819 262.565L146.995 261.799L150.333 259.758C151.103 259.503 151.103 258.482 150.846 257.972C150.59 257.206 149.563 257.206 149.049 257.462L145.454 259.503L146.225 256.696C146.481 255.931 145.968 255.165 145.197 254.91C144.427 254.655 143.657 255.165 143.657 255.931L142.886 259.248C142.63 260.779 141.603 261.799 140.319 262.565C139.035 263.33 137.494 263.33 136.21 262.565L135.954 262.31C134.67 261.544 133.899 260.268 133.899 258.737C133.899 257.206 134.413 255.675 135.697 254.655L138.008 252.358C138.521 251.848 138.521 251.083 138.008 250.317C137.494 249.807 136.724 249.807 136.21 250.317L134.156 252.358V248.276C134.156 247.51 133.643 247 132.872 247C132.102 247 131.588 247.51 131.588 248.276V252.613L129.534 250.572C129.021 250.062 128.25 250.062 127.737 250.572C127.223 251.083 127.223 251.848 127.737 252.613L129.021 254.655C130.048 255.675 130.818 257.206 130.818 258.737C130.818 260.268 130.048 261.544 128.764 262.31L128.507 262.565C127.223 263.33 125.683 263.33 124.399 262.565C123.115 261.799 122.088 260.523 121.831 259.248L120.547 255.931C120.29 255.165 119.52 254.655 118.75 254.91C118.236 255.165 117.723 255.931 117.979 256.696L118.75 259.503L115.155 257.462C114.385 256.951 113.614 257.206 113.101 257.972C112.844 258.482 113.101 259.503 113.614 259.758L117.209 261.799L114.385 262.565C113.614 262.82 113.101 263.585 113.358 264.351C113.614 264.861 114.128 265.371 114.641 265.371C114.898 265.371 114.641 265.371 118.236 264.351C119.777 263.84 121.317 264.096 122.601 264.861C123.885 265.627 124.656 266.902 124.656 268.433V268.944C124.656 270.475 123.885 271.75 122.601 272.516C121.317 273.281 119.777 273.537 118.236 273.026L115.155 272.516C114.385 272.261 113.614 272.771 113.614 273.537C113.358 274.302 113.871 275.067 114.641 275.323L117.466 276.088L113.871 278.129C112.587 278.895 113.101 280.681 114.641 280.681C115.155 280.681 114.898 280.681 119.007 278.385L118.236 281.191C117.979 281.957 118.493 282.722 119.263 282.977C120.034 283.233 120.804 282.722 120.804 281.957L121.574 278.64C121.831 277.109 122.858 276.088 124.142 275.323C125.426 274.557 126.967 274.557 128.25 275.323L128.507 275.578C129.791 276.343 130.561 277.619 130.561 279.15C130.561 280.681 130.048 282.212 128.764 283.233L126.71 285.274C126.196 285.784 126.196 286.55 126.71 287.315C127.223 287.825 127.994 287.825 128.507 287.315L130.561 285.274V289.612C130.561 290.377 131.075 290.887 131.845 290.887C132.616 290.887 133.129 290.377 133.129 289.612V285.274L135.183 287.315C135.44 287.57 135.697 287.825 136.21 287.825C137.494 287.825 138.008 286.294 137.237 285.529L134.926 283.233C133.899 282.212 133.129 280.681 133.129 279.15C133.129 277.619 133.899 276.343 135.183 275.578L135.44 275.323C136.724 274.557 138.265 274.557 139.548 275.323C140.832 276.088 141.859 277.364 142.116 278.64L142.886 281.957C143.143 282.467 143.657 282.977 144.17 282.977C144.941 282.977 145.711 282.212 145.454 281.191L144.684 278.385L148.279 280.426C149.049 280.681 149.819 280.681 150.076 279.915C151.103 279.15 151.103 278.385 150.333 277.874ZM136.467 268.944C136.467 270.475 135.697 272.006 134.156 272.771C132.616 273.537 131.075 273.537 129.534 272.771C128.25 272.006 127.223 270.475 127.223 268.944C127.223 267.413 127.994 265.882 129.534 265.116C131.075 264.351 132.616 264.351 134.156 265.116C135.697 265.627 136.467 267.158 136.467 268.944Z" fill="white"/>
<path d="M208.333 277.874L204.738 275.833L207.563 275.067C208.333 274.812 208.846 274.047 208.59 273.281C208.333 272.516 207.563 272.006 207.049 272.261L203.968 273.026C202.427 273.537 200.886 273.281 199.603 272.516C198.319 271.75 197.548 270.475 197.548 268.944V268.433C197.548 266.902 198.319 265.627 199.603 264.861C200.886 264.096 202.427 263.84 203.968 264.351C207.563 265.371 207.306 265.371 207.563 265.371C208.076 265.371 208.59 264.861 208.846 264.351C209.103 263.585 208.59 262.82 207.819 262.565L204.995 261.799L208.333 259.758C209.103 259.503 209.103 258.482 208.846 257.972C208.59 257.206 207.563 257.206 207.049 257.462L203.454 259.503L204.225 256.696C204.481 255.931 203.968 255.165 203.197 254.91C202.427 254.655 201.657 255.165 201.657 255.931L200.886 259.248C200.63 260.779 199.603 261.799 198.319 262.565C197.035 263.33 195.494 263.33 194.21 262.565L193.954 262.31C192.67 261.544 191.899 260.268 191.899 258.737C191.899 257.206 192.413 255.675 193.697 254.655L196.008 252.358C196.521 251.848 196.521 251.083 196.008 250.317C195.494 249.807 194.724 249.807 194.21 250.317L192.156 252.358V248.276C192.156 247.51 191.643 247 190.872 247C190.102 247 189.588 247.51 189.588 248.276V252.613L187.534 250.572C187.021 250.062 186.25 250.062 185.737 250.572C185.223 251.083 185.223 251.848 185.737 252.613L187.021 254.655C188.048 255.675 188.818 257.206 188.818 258.737C188.818 260.268 188.048 261.544 186.764 262.31L186.507 262.565C185.223 263.33 183.683 263.33 182.399 262.565C181.115 261.799 180.088 260.523 179.831 259.248L178.547 255.931C178.29 255.165 177.52 254.655 176.75 254.91C176.236 255.165 175.723 255.931 175.979 256.696L176.75 259.503L173.155 257.462C172.385 256.951 171.614 257.206 171.101 257.972C170.844 258.482 171.101 259.503 171.614 259.758L175.209 261.799L172.385 262.565C171.614 262.82 171.101 263.585 171.358 264.351C171.614 264.861 172.128 265.371 172.641 265.371C172.898 265.371 172.641 265.371 176.236 264.351C177.777 263.84 179.317 264.096 180.601 264.861C181.885 265.627 182.656 266.902 182.656 268.433V268.944C182.656 270.475 181.885 271.75 180.601 272.516C179.317 273.281 177.777 273.537 176.236 273.026L173.155 272.516C172.385 272.261 171.614 272.771 171.614 273.537C171.358 274.302 171.871 275.067 172.641 275.323L175.466 276.088L171.871 278.129C170.587 278.895 171.101 280.681 172.641 280.681C173.155 280.681 172.898 280.681 177.007 278.385L176.236 281.191C175.979 281.957 176.493 282.722 177.263 282.977C178.034 283.233 178.804 282.722 178.804 281.957L179.574 278.64C179.831 277.109 180.858 276.088 182.142 275.323C183.426 274.557 184.967 274.557 186.25 275.323L186.507 275.578C187.791 276.343 188.561 277.619 188.561 279.15C188.561 280.681 188.048 282.212 186.764 283.233L184.71 285.274C184.196 285.784 184.196 286.55 184.71 287.315C185.223 287.825 185.994 287.825 186.507 287.315L188.561 285.274V289.612C188.561 290.377 189.075 290.887 189.845 290.887C190.616 290.887 191.129 290.377 191.129 289.612V285.274L193.183 287.315C193.44 287.57 193.697 287.825 194.21 287.825C195.494 287.825 196.008 286.294 195.237 285.529L192.926 283.233C191.899 282.212 191.129 280.681 191.129 279.15C191.129 277.619 191.899 276.343 193.183 275.578L193.44 275.323C194.724 274.557 196.265 274.557 197.548 275.323C198.832 276.088 199.859 277.364 200.116 278.64L200.886 281.957C201.143 282.467 201.657 282.977 202.17 282.977C202.941 282.977 203.711 282.212 203.454 281.191L202.684 278.385L206.279 280.426C207.049 280.681 207.819 280.681 208.076 279.915C209.103 279.15 209.103 278.385 208.333 277.874ZM194.467 268.944C194.467 270.475 193.697 272.006 192.156 272.771C190.616 273.537 189.075 273.537 187.534 272.771C186.25 272.006 185.223 270.475 185.223 268.944C185.223 267.413 185.994 265.882 187.534 265.116C189.075 264.351 190.616 264.351 192.156 265.116C193.697 265.627 194.467 267.158 194.467 268.944Z" fill="white"/>
<path d="M266.333 277.874L262.738 275.833L265.563 275.067C266.333 274.812 266.846 274.047 266.59 273.281C266.333 272.516 265.563 272.006 265.049 272.261L261.968 273.026C260.427 273.537 258.886 273.281 257.603 272.516C256.319 271.75 255.548 270.475 255.548 268.944V268.433C255.548 266.902 256.319 265.627 257.603 264.861C258.886 264.096 260.427 263.84 261.968 264.351C265.563 265.371 265.306 265.371 265.563 265.371C266.076 265.371 266.59 264.861 266.846 264.351C267.103 263.585 266.59 262.82 265.819 262.565L262.995 261.799L266.333 259.758C267.103 259.503 267.103 258.482 266.846 257.972C266.59 257.206 265.563 257.206 265.049 257.462L261.454 259.503L262.225 256.696C262.481 255.931 261.968 255.165 261.197 254.91C260.427 254.655 259.657 255.165 259.657 255.931L258.886 259.248C258.63 260.779 257.603 261.799 256.319 262.565C255.035 263.33 253.494 263.33 252.21 262.565L251.954 262.31C250.67 261.544 249.899 260.268 249.899 258.737C249.899 257.206 250.413 255.675 251.697 254.655L254.008 252.358C254.521 251.848 254.521 251.083 254.008 250.317C253.494 249.807 252.724 249.807 252.21 250.317L250.156 252.358V248.276C250.156 247.51 249.643 247 248.872 247C248.102 247 247.588 247.51 247.588 248.276V252.613L245.534 250.572C245.021 250.062 244.25 250.062 243.737 250.572C243.223 251.083 243.223 251.848 243.737 252.613L245.021 254.655C246.048 255.675 246.818 257.206 246.818 258.737C246.818 260.268 246.048 261.544 244.764 262.31L244.507 262.565C243.223 263.33 241.683 263.33 240.399 262.565C239.115 261.799 238.088 260.523 237.831 259.248L236.547 255.931C236.29 255.165 235.52 254.655 234.75 254.91C234.236 255.165 233.723 255.931 233.979 256.696L234.75 259.503L231.155 257.462C230.385 256.951 229.614 257.206 229.101 257.972C228.844 258.482 229.101 259.503 229.614 259.758L233.209 261.799L230.385 262.565C229.614 262.82 229.101 263.585 229.358 264.351C229.614 264.861 230.128 265.371 230.641 265.371C230.898 265.371 230.641 265.371 234.236 264.351C235.777 263.84 237.317 264.096 238.601 264.861C239.885 265.627 240.656 266.902 240.656 268.433V268.944C240.656 270.475 239.885 271.75 238.601 272.516C237.317 273.281 235.777 273.537 234.236 273.026L231.155 272.516C230.385 272.261 229.614 272.771 229.614 273.537C229.358 274.302 229.871 275.067 230.641 275.323L233.466 276.088L229.871 278.129C228.587 278.895 229.101 280.681 230.641 280.681C231.155 280.681 230.898 280.681 235.007 278.385L234.236 281.191C233.979 281.957 234.493 282.722 235.263 282.977C236.034 283.233 236.804 282.722 236.804 281.957L237.574 278.64C237.831 277.109 238.858 276.088 240.142 275.323C241.426 274.557 242.967 274.557 244.25 275.323L244.507 275.578C245.791 276.343 246.561 277.619 246.561 279.15C246.561 280.681 246.048 282.212 244.764 283.233L242.71 285.274C242.196 285.784 242.196 286.55 242.71 287.315C243.223 287.825 243.994 287.825 244.507 287.315L246.561 285.274V289.612C246.561 290.377 247.075 290.887 247.845 290.887C248.616 290.887 249.129 290.377 249.129 289.612V285.274L251.183 287.315C251.44 287.57 251.697 287.825 252.21 287.825C253.494 287.825 254.008 286.294 253.237 285.529L250.926 283.233C249.899 282.212 249.129 280.681 249.129 279.15C249.129 277.619 249.899 276.343 251.183 275.578L251.44 275.323C252.724 274.557 254.265 274.557 255.548 275.323C256.832 276.088 257.859 277.364 258.116 278.64L258.886 281.957C259.143 282.467 259.657 282.977 260.17 282.977C260.941 282.977 261.711 282.212 261.454 281.191L260.684 278.385L264.279 280.426C265.049 280.681 265.819 280.681 266.076 279.915C267.103 279.15 267.103 278.385 266.333 277.874ZM252.467 268.944C252.467 270.475 251.697 272.006 250.156 272.771C248.616 273.537 247.075 273.537 245.534 272.771C244.25 272.006 243.223 270.475 243.223 268.944C243.223 267.413 243.994 265.882 245.534 265.116C247.075 264.351 248.616 264.351 250.156 265.116C251.697 265.627 252.467 267.158 252.467 268.944Z" fill="white"/>
</g>
<g filter="url(#filter5_bdd_130_1554)">
<path d="M177.333 323.874L173.738 321.833L176.563 321.067C177.333 320.812 177.846 320.047 177.59 319.281C177.333 318.516 176.563 318.006 176.049 318.261L172.968 319.026C171.427 319.537 169.886 319.281 168.603 318.516C167.319 317.75 166.548 316.475 166.548 314.944V314.433C166.548 312.902 167.319 311.627 168.603 310.861C169.886 310.096 171.427 309.84 172.968 310.351C176.563 311.371 176.306 311.371 176.563 311.371C177.076 311.371 177.59 310.861 177.846 310.351C178.103 309.585 177.59 308.82 176.819 308.565L173.995 307.799L177.333 305.758C178.103 305.503 178.103 304.482 177.846 303.972C177.59 303.206 176.563 303.206 176.049 303.462L172.454 305.503L173.225 302.696C173.481 301.931 172.968 301.165 172.197 300.91C171.427 300.655 170.657 301.165 170.657 301.931L169.886 305.248C169.63 306.779 168.603 307.799 167.319 308.565C166.035 309.33 164.494 309.33 163.21 308.565L162.954 308.31C161.67 307.544 160.899 306.268 160.899 304.737C160.899 303.206 161.413 301.675 162.697 300.655L165.008 298.358C165.521 297.848 165.521 297.083 165.008 296.317C164.494 295.807 163.724 295.807 163.21 296.317L161.156 298.358V294.276C161.156 293.51 160.643 293 159.872 293C159.102 293 158.588 293.51 158.588 294.276V298.613L156.534 296.572C156.021 296.062 155.25 296.062 154.737 296.572C154.223 297.083 154.223 297.848 154.737 298.613L156.021 300.655C157.048 301.675 157.818 303.206 157.818 304.737C157.818 306.268 157.048 307.544 155.764 308.31L155.507 308.565C154.223 309.33 152.683 309.33 151.399 308.565C150.115 307.799 149.088 306.523 148.831 305.248L147.547 301.931C147.29 301.165 146.52 300.655 145.75 300.91C145.236 301.165 144.723 301.931 144.979 302.696L145.75 305.503L142.155 303.462C141.385 302.951 140.614 303.206 140.101 303.972C139.844 304.482 140.101 305.503 140.614 305.758L144.209 307.799L141.385 308.565C140.614 308.82 140.101 309.585 140.358 310.351C140.614 310.861 141.128 311.371 141.641 311.371C141.898 311.371 141.641 311.371 145.236 310.351C146.777 309.84 148.317 310.096 149.601 310.861C150.885 311.627 151.656 312.902 151.656 314.433V314.944C151.656 316.475 150.885 317.75 149.601 318.516C148.317 319.281 146.777 319.537 145.236 319.026L142.155 318.516C141.385 318.261 140.614 318.771 140.614 319.537C140.358 320.302 140.871 321.067 141.641 321.323L144.466 322.088L140.871 324.129C139.587 324.895 140.101 326.681 141.641 326.681C142.155 326.681 141.898 326.681 146.007 324.385L145.236 327.191C144.979 327.957 145.493 328.722 146.263 328.977C147.034 329.233 147.804 328.722 147.804 327.957L148.574 324.64C148.831 323.109 149.858 322.088 151.142 321.323C152.426 320.557 153.967 320.557 155.25 321.323L155.507 321.578C156.791 322.343 157.561 323.619 157.561 325.15C157.561 326.681 157.048 328.212 155.764 329.233L153.71 331.274C153.196 331.784 153.196 332.55 153.71 333.315C154.223 333.825 154.994 333.825 155.507 333.315L157.561 331.274V335.612C157.561 336.377 158.075 336.887 158.845 336.887C159.616 336.887 160.129 336.377 160.129 335.612V331.274L162.183 333.315C162.44 333.57 162.697 333.825 163.21 333.825C164.494 333.825 165.008 332.294 164.237 331.529L161.926 329.233C160.899 328.212 160.129 326.681 160.129 325.15C160.129 323.619 160.899 322.343 162.183 321.578L162.44 321.323C163.724 320.557 165.265 320.557 166.548 321.323C167.832 322.088 168.859 323.364 169.116 324.64L169.886 327.957C170.143 328.467 170.657 328.977 171.17 328.977C171.941 328.977 172.711 328.212 172.454 327.191L171.684 324.385L175.279 326.426C176.049 326.681 176.819 326.681 177.076 325.915C178.103 325.15 178.103 324.385 177.333 323.874ZM163.467 314.944C163.467 316.475 162.697 318.006 161.156 318.771C159.616 319.537 158.075 319.537 156.534 318.771C155.25 318.006 154.223 316.475 154.223 314.944C154.223 313.413 154.994 311.882 156.534 311.116C158.075 310.351 159.616 310.351 161.156 311.116C162.697 311.627 163.467 313.158 163.467 314.944Z" fill="white"/>
<path d="M227.333 323.874L223.738 321.833L226.563 321.067C227.333 320.812 227.846 320.047 227.59 319.281C227.333 318.516 226.563 318.006 226.049 318.261L222.968 319.026C221.427 319.537 219.886 319.281 218.603 318.516C217.319 317.75 216.548 316.475 216.548 314.944V314.433C216.548 312.902 217.319 311.627 218.603 310.861C219.886 310.096 221.427 309.84 222.968 310.351C226.563 311.371 226.306 311.371 226.563 311.371C227.076 311.371 227.59 310.861 227.846 310.351C228.103 309.585 227.59 308.82 226.819 308.565L223.995 307.799L227.333 305.758C228.103 305.503 228.103 304.482 227.846 303.972C227.59 303.206 226.563 303.206 226.049 303.462L222.454 305.503L223.225 302.696C223.481 301.931 222.968 301.165 222.197 300.91C221.427 300.655 220.657 301.165 220.657 301.931L219.886 305.248C219.63 306.779 218.603 307.799 217.319 308.565C216.035 309.33 214.494 309.33 213.21 308.565L212.954 308.31C211.67 307.544 210.899 306.268 210.899 304.737C210.899 303.206 211.413 301.675 212.697 300.655L215.008 298.358C215.521 297.848 215.521 297.083 215.008 296.317C214.494 295.807 213.724 295.807 213.21 296.317L211.156 298.358V294.276C211.156 293.51 210.643 293 209.872 293C209.102 293 208.588 293.51 208.588 294.276V298.613L206.534 296.572C206.021 296.062 205.25 296.062 204.737 296.572C204.223 297.083 204.223 297.848 204.737 298.613L206.021 300.655C207.048 301.675 207.818 303.206 207.818 304.737C207.818 306.268 207.048 307.544 205.764 308.31L205.507 308.565C204.223 309.33 202.683 309.33 201.399 308.565C200.115 307.799 199.088 306.523 198.831 305.248L197.547 301.931C197.29 301.165 196.52 300.655 195.75 300.91C195.236 301.165 194.723 301.931 194.979 302.696L195.75 305.503L192.155 303.462C191.385 302.951 190.614 303.206 190.101 303.972C189.844 304.482 190.101 305.503 190.614 305.758L194.209 307.799L191.385 308.565C190.614 308.82 190.101 309.585 190.358 310.351C190.614 310.861 191.128 311.371 191.641 311.371C191.898 311.371 191.641 311.371 195.236 310.351C196.777 309.84 198.317 310.096 199.601 310.861C200.885 311.627 201.656 312.902 201.656 314.433V314.944C201.656 316.475 200.885 317.75 199.601 318.516C198.317 319.281 196.777 319.537 195.236 319.026L192.155 318.516C191.385 318.261 190.614 318.771 190.614 319.537C190.358 320.302 190.871 321.067 191.641 321.323L194.466 322.088L190.871 324.129C189.587 324.895 190.101 326.681 191.641 326.681C192.155 326.681 191.898 326.681 196.007 324.385L195.236 327.191C194.979 327.957 195.493 328.722 196.263 328.977C197.034 329.233 197.804 328.722 197.804 327.957L198.574 324.64C198.831 323.109 199.858 322.088 201.142 321.323C202.426 320.557 203.967 320.557 205.25 321.323L205.507 321.578C206.791 322.343 207.561 323.619 207.561 325.15C207.561 326.681 207.048 328.212 205.764 329.233L203.71 331.274C203.196 331.784 203.196 332.55 203.71 333.315C204.223 333.825 204.994 333.825 205.507 333.315L207.561 331.274V335.612C207.561 336.377 208.075 336.887 208.845 336.887C209.616 336.887 210.129 336.377 210.129 335.612V331.274L212.183 333.315C212.44 333.57 212.697 333.825 213.21 333.825C214.494 333.825 215.008 332.294 214.237 331.529L211.926 329.233C210.899 328.212 210.129 326.681 210.129 325.15C210.129 323.619 210.899 322.343 212.183 321.578L212.44 321.323C213.724 320.557 215.265 320.557 216.548 321.323C217.832 322.088 218.859 323.364 219.116 324.64L219.886 327.957C220.143 328.467 220.657 328.977 221.17 328.977C221.941 328.977 222.711 328.212 222.454 327.191L221.684 324.385L225.279 326.426C226.049 326.681 226.819 326.681 227.076 325.915C228.103 325.15 228.103 324.385 227.333 323.874ZM213.467 314.944C213.467 316.475 212.697 318.006 211.156 318.771C209.616 319.537 208.075 319.537 206.534 318.771C205.25 318.006 204.223 316.475 204.223 314.944C204.223 313.413 204.994 311.882 206.534 311.116C208.075 310.351 209.616 310.351 211.156 311.116C212.697 311.627 213.467 313.158 213.467 314.944Z" fill="white"/>
</g>
<defs>
<filter id="filter0_f_130_1554" x="139" y="0" width="210" height="210" filterUnits="userSpaceOnUse" color-interpolation-filters="sRGB">
<feFlood flood-opacity="0" result="BackgroundImageFix"/>
<feBlend mode="normal" in="SourceGraphic" in2="BackgroundImageFix" result="shape"/>
<feGaussianBlur stdDeviation="22" result="effect1_foregroundBlur_130_1554"/>
</filter>
<filter id="filter1_f_130_1554" x="82" y="81" width="266" height="191" filterUnits="userSpaceOnUse" color-interpolation-filters="sRGB">
<feFlood flood-opacity="0" result="BackgroundImageFix"/>
<feBlend mode="normal" in="SourceGraphic" in2="BackgroundImageFix" result="shape"/>
<feGaussianBlur stdDeviation="7" result="effect1_foregroundBlur_130_1554"/>
</filter>
<filter id="filter2_bd_130_1554" x="0" y="67" width="338" height="261" filterUnits="userSpaceOnUse" color-interpolation-filters="sRGB">
<feFlood flood-opacity="0" result="BackgroundImageFix"/>
<feGaussianBlur in="BackgroundImageFix" stdDeviation="7"/>
<feComposite in2="SourceAlpha" operator="in" result="effect1_backgroundBlur_130_1554"/>
<feColorMatrix in="SourceAlpha" type="matrix" values="0 0 0 0 0 0 0 0 0 0 0 0 0 0 0 0 0 0 127 0" result="hardAlpha"/>
<feOffset dx="-21" dy="15"/>
<feGaussianBlur stdDeviation="25"/>
<feComposite in2="hardAlpha" operator="out"/>
<feColorMatrix type="matrix" values="0 0 0 0 0.113725 0 0 0 0 0.14902 0 0 0 0 0.27451 0 0 0 0.25 0"/>
<feBlend mode="normal" in2="effect1_backgroundBlur_130_1554" result="effect2_dropShadow_130_1554"/>
<feBlend mode="normal" in="SourceGraphic" in2="effect2_dropShadow_130_1554" result="shape"/>
</filter>
<filter id="filter3_bd_130_1554" x="132" y="67" width="272" height="216.353" filterUnits="userSpaceOnUse" color-interpolation-filters="sRGB">
<feFlood flood-opacity="0" result="BackgroundImageFix"/>
<feGaussianBlur in="BackgroundImageFix" stdDeviation="7"/>
<feComposite in2="SourceAlpha" operator="in" result="effect1_backgroundBlur_130_1554"/>
<feColorMatrix in="SourceAlpha" type="matrix" values="0 0 0 0 0 0 0 0 0 0 0 0 0 0 0 0 0 0 127 0" result="hardAlpha"/>
<feOffset dx="-21" dy="15"/>
<feGaussianBlur stdDeviation="25"/>
<feComposite in2="hardAlpha" operator="out"/>
<feColorMatrix type="matrix" values="0 0 0 0 0.113438 0 0 0 0 0.148981 0 0 0 0 0.275 0 0 0 0.25 0"/>
<feBlend mode="normal" in2="effect1_backgroundBlur_130_1554" result="effect2_dropShadow_130_1554"/>
<feBlend mode="normal" in="SourceGraphic" in2="effect2_dropShadow_130_1554" result="shape"/>
</filter>
<filter id="filter4_bdd_130_1554" x="42" y="199" width="266" height="156.887" filterUnits="userSpaceOnUse" color-interpolation-filters="sRGB">
<feFlood flood-opacity="0" result="BackgroundImageFix"/>
<feGaussianBlur in="BackgroundImageFix" stdDeviation="7"/>
<feComposite in2="SourceAlpha" operator="in" result="effect1_backgroundBlur_130_1554"/>
<feColorMatrix in="SourceAlpha" type="matrix" values="0 0 0 0 0 0 0 0 0 0 0 0 0 0 0 0 0 0 127 0" result="hardAlpha"/>
<feOffset dx="-21" dy="15"/>
<feGaussianBlur stdDeviation="25"/>
<feComposite in2="hardAlpha" operator="out"/>
<feColorMatrix type="matrix" values="0 0 0 0 0.113438 0 0 0 0 0.148981 0 0 0 0 0.275 0 0 0 0.25 0"/>
<feBlend mode="normal" in2="effect1_backgroundBlur_130_1554" result="effect2_dropShadow_130_1554"/>
<feColorMatrix in="SourceAlpha" type="matrix" values="0 0 0 0 0 0 0 0 0 0 0 0 0 0 0 0 0 0 127 0" result="hardAlpha"/>
<feOffset dy="-7"/>
<feGaussianBlur stdDeviation="20.5"/>
<feComposite in2="hardAlpha" operator="out"/>
<feColorMatrix type="matrix" values="0 0 0 0 0.1375 0 0 0 0 0.74125 0 0 0 0 1 0 0 0 0.3 0"/>
<feBlend mode="normal" in2="effect2_dropShadow_130_1554" result="effect3_dropShadow_130_1554"/>
<feBlend mode="normal" in="SourceGraphic" in2="effect3_dropShadow_130_1554" result="shape"/>
</filter>
<filter id="filter5_bdd_130_1554" x="69" y="245" width="200" height="156.887" filterUnits="userSpaceOnUse" color-interpolation-filters="sRGB">
<feFlood flood-opacity="0" result="BackgroundImageFix"/>
<feGaussianBlur in="BackgroundImageFix" stdDeviation="7"/>
<feComposite in2="SourceAlpha" operator="in" result="effect1_backgroundBlur_130_1554"/>
<feColorMatrix in="SourceAlpha" type="matrix" values="0 0 0 0 0 0 0 0 0 0 0 0 0 0 0 0 0 0 127 0" result="hardAlpha"/>
<feOffset dx="-21" dy="15"/>
<feGaussianBlur stdDeviation="25"/>
<feComposite in2="hardAlpha" operator="out"/>
<feColorMatrix type="matrix" values="0 0 0 0 0.113438 0 0 0 0 0.148981 0 0 0 0 0.275 0 0 0 0.25 0"/>
<feBlend mode="normal" in2="effect1_backgroundBlur_130_1554" result="effect2_dropShadow_130_1554"/>
<feColorMatrix in="SourceAlpha" type="matrix" values="0 0 0 0 0 0 0 0 0 0 0 0 0 0 0 0 0 0 127 0" result="hardAlpha"/>
<feOffset dy="-7"/>
<feGaussianBlur stdDeviation="20.5"/>
<feComposite in2="hardAlpha" operator="out"/>
<feColorMatrix type="matrix" values="0 0 0 0 0.1375 0 0 0 0 0.74125 0 0 0 0 1 0 0 0 0.3 0"/>
<feBlend mode="normal" in2="effect2_dropShadow_130_1554" result="effect3_dropShadow_130_1554"/>
<feBlend mode="normal" in="SourceGraphic" in2="effect3_dropShadow_130_1554" result="shape"/>
</filter>
<linearGradient id="paint0_linear_130_1554" x1="244" y1="48" x2="244" y2="166" gradientUnits="userSpaceOnUse">
<stop stop-color="#FFE600"/>
<stop offset="1" stop-color="#FF7A00"/>
</linearGradient>
<linearGradient id="paint1_linear_130_1554" x1="244" y1="48" x2="244" y2="166" gradientUnits="userSpaceOnUse">
<stop stop-color="white"/>
<stop offset="1" stop-color="white" stop-opacity="0"/>
</linearGradient>
<linearGradient id="paint2_linear_130_1554" x1="244" y1="48" x2="244" y2="166" gradientUnits="userSpaceOnUse">
<stop stop-color="#FFD600"/>
<stop offset="1" stop-color="#FF7A00"/>
</linearGradient>
<linearGradient id="paint3_linear_130_1554" x1="190" y1="50.5" x2="190" y2="285.5" gradientUnits="userSpaceOnUse">
<stop stop-color="white"/>
<stop offset="1" stop-color="white" stop-opacity="0"/>
</linearGradient>
<linearGradient id="paint4_linear_130_1554" x1="190" y1="102" x2="190" y2="263" gradientUnits="userSpaceOnUse">
<stop stop-color="white"/>
<stop offset="1" stop-color="white" stop-opacity="0"/>
</linearGradient>
<linearGradient id="paint5_linear_130_1554" x1="297" y1="105.5" x2="297" y2="231.5" gradientUnits="userSpaceOnUse">
<stop stop-color="white"/>
<stop offset="1" stop-color="white" stop-opacity="0"/>
</linearGradient>
<linearGradient id="paint6_linear_130_1554" x1="289" y1="102" x2="289" y2="218.353" gradientUnits="userSpaceOnUse">
<stop stop-color="white"/>
<stop offset="1" stop-color="white" stop-opacity="0"/>
</linearGradient>
</defs>
</svg>
