<svg width="444" height="403" viewBox="0 0 444 403" fill="none" xmlns="http://www.w3.org/2000/svg">
<g filter="url(#filter0_bd_130_1586)">
<mask id="path-1-inside-1_130_1586" fill="white">
<path fill-rule="evenodd" clip-rule="evenodd" d="M211.563 151.351C211.683 151.352 211.804 151.353 211.924 151.353C229.087 151.353 243 137.44 243 120.277C243 103.115 229.087 89.2017 211.924 89.2017C211.804 89.2017 211.683 89.2024 211.563 89.2037V89.2017H203.535C203.825 87.075 203.975 84.9037 203.975 82.6975C203.975 56.3549 182.62 35 156.277 35C129.935 35 108.58 56.3549 108.58 82.6975C108.58 85.1831 108.77 87.6243 109.136 90.0074C106.868 89.4803 104.504 89.2017 102.076 89.2017C84.913 89.2017 71 103.115 71 120.277C71 137.44 84.913 151.353 102.076 151.353C102.197 151.353 102.318 151.352 102.439 151.351L102.437 151.353H211.563V151.351Z"/>
</mask>
<path fill-rule="evenodd" clip-rule="evenodd" d="M211.563 151.351C211.683 151.352 211.804 151.353 211.924 151.353C229.087 151.353 243 137.44 243 120.277C243 103.115 229.087 89.2017 211.924 89.2017C211.804 89.2017 211.683 89.2024 211.563 89.2037V89.2017H203.535C203.825 87.075 203.975 84.9037 203.975 82.6975C203.975 56.3549 182.62 35 156.277 35C129.935 35 108.58 56.3549 108.58 82.6975C108.58 85.1831 108.77 87.6243 109.136 90.0074C106.868 89.4803 104.504 89.2017 102.076 89.2017C84.913 89.2017 71 103.115 71 120.277C71 137.44 84.913 151.353 102.076 151.353C102.197 151.353 102.318 151.352 102.439 151.351L102.437 151.353H211.563V151.351Z" fill="url(#paint0_linear_130_1586)" shape-rendering="crispEdges"/>
<path d="M211.563 151.351L211.586 149.351C211.052 149.345 210.537 149.553 210.157 149.929C209.777 150.304 209.563 150.816 209.563 151.351H211.563ZM211.563 89.2037H209.563C209.563 89.7381 209.777 90.2503 210.157 90.626C210.537 91.0017 211.051 91.2097 211.586 91.2036L211.563 89.2037ZM211.563 89.2017H213.563C213.563 88.0971 212.668 87.2017 211.563 87.2017V89.2017ZM203.535 89.2017L201.553 88.9315C201.475 89.5037 201.649 90.0818 202.028 90.5169C202.408 90.952 202.957 91.2017 203.535 91.2017V89.2017ZM109.136 90.0074L108.684 91.9555C109.33 92.1057 110.009 91.9253 110.496 91.4741C110.983 91.0228 111.214 90.3594 111.113 89.7033L109.136 90.0074ZM102.439 151.351L104.008 152.59C104.486 151.985 104.573 151.16 104.233 150.468C103.893 149.777 103.186 149.342 102.416 149.351L102.439 151.351ZM102.437 151.353L100.867 150.114C100.392 150.715 100.303 151.535 100.637 152.225C100.971 152.915 101.67 153.353 102.437 153.353V151.353ZM211.563 151.353V153.353C212.668 153.353 213.563 152.458 213.563 151.353H211.563ZM211.54 153.351C211.668 153.352 211.796 153.353 211.924 153.353V149.353C211.811 149.353 211.699 149.352 211.586 149.351L211.54 153.351ZM211.924 153.353C230.192 153.353 245 138.544 245 120.277H241C241 136.335 227.982 149.353 211.924 149.353V153.353ZM245 120.277C245 102.01 230.192 87.2017 211.924 87.2017V91.2017C227.982 91.2017 241 104.219 241 120.277H245ZM211.924 87.2017C211.796 87.2017 211.668 87.2024 211.54 87.2039L211.586 91.2036C211.699 91.2023 211.811 91.2017 211.924 91.2017V87.2017ZM209.563 89.2017V89.2037H213.563V89.2017H209.563ZM203.535 91.2017H211.563V87.2017H203.535V91.2017ZM205.517 89.4719C205.819 87.2559 205.975 84.9944 205.975 82.6975H201.975C201.975 84.8131 201.831 86.8941 201.553 88.9315L205.517 89.4719ZM205.975 82.6975C205.975 55.2503 183.724 33 156.277 33V37C181.515 37 201.975 57.4595 201.975 82.6975H205.975ZM156.277 33C128.83 33 106.58 55.2503 106.58 82.6975H110.58C110.58 57.4595 131.039 37 156.277 37V33ZM106.58 82.6975C106.58 85.2852 106.778 87.8281 107.16 90.3114L111.113 89.7033C110.762 87.4205 110.58 85.081 110.58 82.6975H106.58ZM109.589 88.0592C107.173 87.498 104.658 87.2017 102.076 87.2017V91.2017C104.351 91.2017 106.563 91.4627 108.684 91.9555L109.589 88.0592ZM102.076 87.2017C83.8085 87.2017 69 102.01 69 120.277H73C73 104.219 86.0176 91.2017 102.076 91.2017V87.2017ZM69 120.277C69 138.544 83.8085 153.353 102.076 153.353V149.353C86.0176 149.353 73 136.335 73 120.277H69ZM102.076 153.353C102.204 153.353 102.333 153.352 102.461 153.351L102.416 149.351C102.303 149.352 102.189 149.353 102.076 149.353V153.353ZM104.007 152.592L104.008 152.59L100.869 150.112L100.867 150.114L104.007 152.592ZM211.563 149.353H102.437V153.353H211.563V149.353ZM209.563 151.351V151.353H213.563V151.351H209.563Z" fill="url(#paint1_linear_130_1586)" mask="url(#path-1-inside-1_130_1586)"/>
</g>
<g filter="url(#filter1_bd_130_1586)">
<mask id="path-3-inside-2_130_1586" fill="white">
<path fill-rule="evenodd" clip-rule="evenodd" d="M305.5 230.997C305.666 230.999 305.833 231 306 231C329.748 231 349 211.748 349 188C349 164.252 329.748 145 306 145C305.833 145 305.666 145.001 305.5 145.003V145H294.391C294.793 142.057 295 139.053 295 136C295 99.5492 265.451 70 229 70C192.549 70 163 99.5492 163 136C163 139.439 163.263 142.817 163.77 146.115C160.631 145.386 157.361 145 154 145C130.252 145 111 164.252 111 188C111 211.748 130.252 231 154 231C154.168 231 154.335 230.999 154.502 230.997L154.5 231H305.5V230.997Z"/>
</mask>
<path fill-rule="evenodd" clip-rule="evenodd" d="M305.5 230.997C305.666 230.999 305.833 231 306 231C329.748 231 349 211.748 349 188C349 164.252 329.748 145 306 145C305.833 145 305.666 145.001 305.5 145.003V145H294.391C294.793 142.057 295 139.053 295 136C295 99.5492 265.451 70 229 70C192.549 70 163 99.5492 163 136C163 139.439 163.263 142.817 163.77 146.115C160.631 145.386 157.361 145 154 145C130.252 145 111 164.252 111 188C111 211.748 130.252 231 154 231C154.168 231 154.335 230.999 154.502 230.997L154.5 231H305.5V230.997Z" fill="url(#paint2_linear_130_1586)" shape-rendering="crispEdges"/>
<path d="M305.5 230.997L305.523 228.997C304.988 228.991 304.474 229.199 304.094 229.575C303.714 229.951 303.5 230.463 303.5 230.997H305.5ZM305.5 145.003H303.5C303.5 145.537 303.714 146.049 304.094 146.425C304.474 146.801 304.988 147.009 305.523 147.003L305.5 145.003ZM305.5 145H307.5C307.5 143.895 306.605 143 305.5 143V145ZM294.391 145L292.41 144.73C292.332 145.302 292.505 145.88 292.885 146.315C293.265 146.75 293.814 147 294.391 147V145ZM163.77 146.115L163.318 148.063C163.964 148.213 164.643 148.033 165.13 147.582C165.617 147.13 165.848 146.467 165.747 145.811L163.77 146.115ZM154.502 230.997L156.072 232.237C156.549 231.632 156.637 230.807 156.297 230.115C155.957 229.423 155.25 228.988 154.479 228.997L154.502 230.997ZM154.5 231L152.931 229.76C152.455 230.362 152.366 231.182 152.7 231.872C153.034 232.562 153.733 233 154.5 233V231ZM305.5 231V233C306.605 233 307.5 232.105 307.5 231H305.5ZM305.477 232.997C305.651 232.999 305.825 233 306 233V229C305.841 229 305.682 228.999 305.523 228.997L305.477 232.997ZM306 233C330.853 233 351 212.853 351 188H347C347 210.644 328.644 229 306 229V233ZM351 188C351 163.147 330.853 143 306 143V147C328.644 147 347 165.356 347 188H351ZM306 143C305.826 143 305.651 143.001 305.477 143.003L305.523 147.003C305.682 147.001 305.841 147 306 147V143ZM303.5 145V145.003H307.5V145H303.5ZM294.391 147H305.5V143H294.391V147ZM296.373 145.27C296.787 142.238 297 139.143 297 136H293C293 138.962 292.799 141.876 292.41 144.73L296.373 145.27ZM297 136C297 98.4446 266.555 68 229 68V72C264.346 72 293 100.654 293 136H297ZM229 68C191.445 68 161 98.4446 161 136H165C165 100.654 193.654 72 229 72V68ZM161 136C161 139.542 161.271 143.021 161.793 146.419L165.747 145.811C165.255 142.614 165 139.337 165 136H161ZM164.223 144.167C160.937 143.403 157.514 143 154 143V147C157.207 147 160.326 147.368 163.318 148.063L164.223 144.167ZM154 143C129.147 143 109 163.147 109 188H113C113 165.356 131.356 147 154 147V143ZM109 188C109 212.853 129.147 233 154 233V229C131.356 229 113 210.644 113 188H109ZM154 233C154.175 233 154.35 232.999 154.525 232.997L154.479 228.997C154.32 228.999 154.16 229 154 229V233ZM156.069 232.24L156.072 232.237L152.933 229.757L152.931 229.76L156.069 232.24ZM305.5 229H154.5V233H305.5V229ZM303.5 230.997V231H307.5V230.997H303.5Z" fill="url(#paint3_linear_130_1586)" mask="url(#path-3-inside-2_130_1586)"/>
</g>
<g filter="url(#filter2_bdd_130_1586)">
<path d="M273.617 246.541L321.431 159.041C321.782 158.399 322.455 158 323.186 158H370.195C371.698 158 372.664 159.596 371.966 160.928L342.034 218.072C341.336 219.404 342.302 221 343.805 221H380.527C382.256 221 383.17 223.045 382.017 224.334L281.581 336.585C280.107 338.233 277.443 336.623 278.217 334.552L308.991 252.2C309.479 250.893 308.513 249.5 307.118 249.5H275.372C273.853 249.5 272.889 247.874 273.617 246.541Z" fill="url(#paint4_linear_130_1586)"/>
<path d="M274.494 247.02L322.309 159.52C322.484 159.2 322.821 159 323.186 159H370.195C370.946 159 371.429 159.798 371.08 160.464L341.148 217.608C340.102 219.605 341.55 222 343.805 222H380.527C381.391 222 381.848 223.023 381.272 223.667L280.836 335.919C280.099 336.743 278.767 335.938 279.154 334.902L309.928 252.55C310.66 250.589 309.211 248.5 307.118 248.5H275.372C274.613 248.5 274.13 247.687 274.494 247.02Z" stroke="url(#paint5_linear_130_1586)" stroke-width="2"/>
</g>
<g filter="url(#filter3_bd_130_1586)">
<mask id="path-7-inside-3_130_1586" fill="white">
<path fill-rule="evenodd" clip-rule="evenodd" d="M383.563 186.351C383.683 186.352 383.804 186.353 383.924 186.353C401.087 186.353 415 172.44 415 155.277C415 138.115 401.087 124.202 383.924 124.202C383.804 124.202 383.683 124.202 383.563 124.204V124.202H375.535C375.825 122.075 375.975 119.904 375.975 117.697C375.975 91.3549 354.62 70 328.277 70C301.935 70 280.58 91.3549 280.58 117.697C280.58 120.183 280.77 122.624 281.136 125.007C278.868 124.48 276.504 124.202 274.076 124.202C256.913 124.202 243 138.115 243 155.277C243 172.44 256.913 186.353 274.076 186.353C274.197 186.353 274.318 186.352 274.439 186.351L274.437 186.353H383.563V186.351Z"/>
</mask>
<path fill-rule="evenodd" clip-rule="evenodd" d="M383.563 186.351C383.683 186.352 383.804 186.353 383.924 186.353C401.087 186.353 415 172.44 415 155.277C415 138.115 401.087 124.202 383.924 124.202C383.804 124.202 383.683 124.202 383.563 124.204V124.202H375.535C375.825 122.075 375.975 119.904 375.975 117.697C375.975 91.3549 354.62 70 328.277 70C301.935 70 280.58 91.3549 280.58 117.697C280.58 120.183 280.77 122.624 281.136 125.007C278.868 124.48 276.504 124.202 274.076 124.202C256.913 124.202 243 138.115 243 155.277C243 172.44 256.913 186.353 274.076 186.353C274.197 186.353 274.318 186.352 274.439 186.351L274.437 186.353H383.563V186.351Z" fill="url(#paint6_linear_130_1586)" shape-rendering="crispEdges"/>
<path d="M383.563 186.351L383.586 184.351C383.052 184.345 382.537 184.553 382.157 184.929C381.777 185.304 381.563 185.816 381.563 186.351H383.563ZM383.563 124.204H381.563C381.563 124.738 381.777 125.25 382.157 125.626C382.537 126.002 383.051 126.21 383.586 126.204L383.563 124.204ZM383.563 124.202H385.563C385.563 123.097 384.668 122.202 383.563 122.202V124.202ZM375.535 124.202L373.553 123.931C373.475 124.504 373.649 125.082 374.028 125.517C374.408 125.952 374.957 126.202 375.535 126.202V124.202ZM281.136 125.007L280.684 126.955C281.33 127.106 282.009 126.925 282.496 126.474C282.983 126.023 283.214 125.359 283.113 124.703L281.136 125.007ZM274.439 186.351L276.008 187.59C276.486 186.985 276.573 186.16 276.233 185.468C275.893 184.777 275.186 184.342 274.416 184.351L274.439 186.351ZM274.437 186.353L272.867 185.114C272.392 185.715 272.303 186.535 272.637 187.225C272.971 187.915 273.67 188.353 274.437 188.353V186.353ZM383.563 186.353V188.353C384.668 188.353 385.563 187.458 385.563 186.353H383.563ZM383.54 188.351C383.668 188.352 383.796 188.353 383.924 188.353V184.353C383.811 184.353 383.699 184.352 383.586 184.351L383.54 188.351ZM383.924 188.353C402.192 188.353 417 173.544 417 155.277H413C413 171.335 399.982 184.353 383.924 184.353V188.353ZM417 155.277C417 137.01 402.192 122.202 383.924 122.202V126.202C399.982 126.202 413 139.219 413 155.277H417ZM383.924 122.202C383.796 122.202 383.668 122.202 383.54 122.204L383.586 126.204C383.699 126.202 383.811 126.202 383.924 126.202V122.202ZM381.563 124.202V124.204H385.563V124.202H381.563ZM375.535 126.202H383.563V122.202H375.535V126.202ZM377.517 124.472C377.819 122.256 377.975 119.994 377.975 117.697H373.975C373.975 119.813 373.831 121.894 373.553 123.931L377.517 124.472ZM377.975 117.697C377.975 90.2503 355.724 68 328.277 68V72C353.515 72 373.975 92.4595 373.975 117.697H377.975ZM328.277 68C300.83 68 278.58 90.2503 278.58 117.697H282.58C282.58 92.4595 303.039 72 328.277 72V68ZM278.58 117.697C278.58 120.285 278.778 122.828 279.16 125.311L283.113 124.703C282.762 122.421 282.58 120.081 282.58 117.697H278.58ZM281.589 123.059C279.173 122.498 276.658 122.202 274.076 122.202V126.202C276.351 126.202 278.563 126.463 280.684 126.955L281.589 123.059ZM274.076 122.202C255.808 122.202 241 137.01 241 155.277H245C245 139.219 258.018 126.202 274.076 126.202V122.202ZM241 155.277C241 173.544 255.808 188.353 274.076 188.353V184.353C258.018 184.353 245 171.335 245 155.277H241ZM274.076 188.353C274.204 188.353 274.333 188.352 274.461 188.351L274.416 184.351C274.303 184.352 274.189 184.353 274.076 184.353V188.353ZM276.007 187.592L276.008 187.59L272.869 185.112L272.867 185.114L276.007 187.592ZM383.563 184.353H274.437V188.353H383.563V184.353ZM381.563 186.351V186.353H385.563V186.351H381.563Z" fill="url(#paint7_linear_130_1586)" mask="url(#path-7-inside-3_130_1586)"/>
</g>
<g filter="url(#filter4_bdd_130_1586)">
<path d="M134.333 269.874L130.738 267.833L133.563 267.067C134.333 266.812 134.846 266.047 134.59 265.281C134.333 264.516 133.563 264.006 133.049 264.261L129.968 265.026C128.427 265.537 126.886 265.281 125.603 264.516C124.319 263.75 123.548 262.475 123.548 260.944V260.433C123.548 258.902 124.319 257.627 125.603 256.861C126.886 256.096 128.427 255.84 129.968 256.351C133.563 257.371 133.306 257.371 133.563 257.371C134.076 257.371 134.59 256.861 134.846 256.351C135.103 255.585 134.59 254.82 133.819 254.565L130.995 253.799L134.333 251.758C135.103 251.503 135.103 250.482 134.846 249.972C134.59 249.206 133.563 249.206 133.049 249.462L129.454 251.503L130.225 248.696C130.481 247.931 129.968 247.165 129.197 246.91C128.427 246.655 127.657 247.165 127.657 247.931L126.886 251.248C126.63 252.779 125.603 253.799 124.319 254.565C123.035 255.33 121.494 255.33 120.21 254.565L119.954 254.31C118.67 253.544 117.899 252.268 117.899 250.737C117.899 249.206 118.413 247.675 119.697 246.655L122.008 244.358C122.521 243.848 122.521 243.083 122.008 242.317C121.494 241.807 120.724 241.807 120.21 242.317L118.156 244.358V240.276C118.156 239.51 117.643 239 116.872 239C116.102 239 115.588 239.51 115.588 240.276V244.613L113.534 242.572C113.021 242.062 112.25 242.062 111.737 242.572C111.223 243.083 111.223 243.848 111.737 244.613L113.021 246.655C114.048 247.675 114.818 249.206 114.818 250.737C114.818 252.268 114.048 253.544 112.764 254.31L112.507 254.565C111.223 255.33 109.683 255.33 108.399 254.565C107.115 253.799 106.088 252.523 105.831 251.248L104.547 247.931C104.29 247.165 103.52 246.655 102.75 246.91C102.236 247.165 101.723 247.931 101.979 248.696L102.75 251.503L99.1549 249.462C98.3846 248.951 97.6143 249.206 97.1007 249.972C96.844 250.482 97.1007 251.503 97.6143 251.758L101.209 253.799L98.3846 254.565C97.6143 254.82 97.1007 255.585 97.3575 256.351C97.6143 256.861 98.1278 257.371 98.6414 257.371C98.8981 257.371 98.6414 257.371 102.236 256.351C103.777 255.84 105.317 256.096 106.601 256.861C107.885 257.627 108.656 258.902 108.656 260.433V260.944C108.656 262.475 107.885 263.75 106.601 264.516C105.317 265.281 103.777 265.537 102.236 265.026L99.1549 264.516C98.3846 264.261 97.6143 264.771 97.6143 265.537C97.3575 266.302 97.8711 267.067 98.6414 267.323L101.466 268.088L97.8711 270.129C96.5872 270.895 97.1007 272.681 98.6414 272.681C99.1549 272.681 98.8981 272.681 103.007 270.385L102.236 273.191C101.979 273.957 102.493 274.722 103.263 274.977C104.034 275.233 104.804 274.722 104.804 273.957L105.574 270.64C105.831 269.109 106.858 268.088 108.142 267.323C109.426 266.557 110.967 266.557 112.25 267.323L112.507 267.578C113.791 268.343 114.561 269.619 114.561 271.15C114.561 272.681 114.048 274.212 112.764 275.233L110.71 277.274C110.196 277.784 110.196 278.55 110.71 279.315C111.223 279.825 111.994 279.825 112.507 279.315L114.561 277.274V281.612C114.561 282.377 115.075 282.887 115.845 282.887C116.616 282.887 117.129 282.377 117.129 281.612V277.274L119.183 279.315C119.44 279.57 119.697 279.825 120.21 279.825C121.494 279.825 122.008 278.294 121.237 277.529L118.926 275.233C117.899 274.212 117.129 272.681 117.129 271.15C117.129 269.619 117.899 268.343 119.183 267.578L119.44 267.323C120.724 266.557 122.265 266.557 123.548 267.323C124.832 268.088 125.859 269.364 126.116 270.64L126.886 273.957C127.143 274.467 127.657 274.977 128.17 274.977C128.941 274.977 129.711 274.212 129.454 273.191L128.684 270.385L132.279 272.426C133.049 272.681 133.819 272.681 134.076 271.915C135.103 271.15 135.103 270.385 134.333 269.874ZM120.467 260.944C120.467 262.475 119.697 264.006 118.156 264.771C116.616 265.537 115.075 265.537 113.534 264.771C112.25 264.006 111.223 262.475 111.223 260.944C111.223 259.413 111.994 257.882 113.534 257.116C115.075 256.351 116.616 256.351 118.156 257.116C119.697 257.627 120.467 259.158 120.467 260.944Z" fill="white"/>
<path d="M192.333 269.874L188.738 267.833L191.563 267.067C192.333 266.812 192.846 266.047 192.59 265.281C192.333 264.516 191.563 264.006 191.049 264.261L187.968 265.026C186.427 265.537 184.886 265.281 183.603 264.516C182.319 263.75 181.548 262.475 181.548 260.944V260.433C181.548 258.902 182.319 257.627 183.603 256.861C184.886 256.096 186.427 255.84 187.968 256.351C191.563 257.371 191.306 257.371 191.563 257.371C192.076 257.371 192.59 256.861 192.846 256.351C193.103 255.585 192.59 254.82 191.819 254.565L188.995 253.799L192.333 251.758C193.103 251.503 193.103 250.482 192.846 249.972C192.59 249.206 191.563 249.206 191.049 249.462L187.454 251.503L188.225 248.696C188.481 247.931 187.968 247.165 187.197 246.91C186.427 246.655 185.657 247.165 185.657 247.931L184.886 251.248C184.63 252.779 183.603 253.799 182.319 254.565C181.035 255.33 179.494 255.33 178.21 254.565L177.954 254.31C176.67 253.544 175.899 252.268 175.899 250.737C175.899 249.206 176.413 247.675 177.697 246.655L180.008 244.358C180.521 243.848 180.521 243.083 180.008 242.317C179.494 241.807 178.724 241.807 178.21 242.317L176.156 244.358V240.276C176.156 239.51 175.643 239 174.872 239C174.102 239 173.588 239.51 173.588 240.276V244.613L171.534 242.572C171.021 242.062 170.25 242.062 169.737 242.572C169.223 243.083 169.223 243.848 169.737 244.613L171.021 246.655C172.048 247.675 172.818 249.206 172.818 250.737C172.818 252.268 172.048 253.544 170.764 254.31L170.507 254.565C169.223 255.33 167.683 255.33 166.399 254.565C165.115 253.799 164.088 252.523 163.831 251.248L162.547 247.931C162.29 247.165 161.52 246.655 160.75 246.91C160.236 247.165 159.723 247.931 159.979 248.696L160.75 251.503L157.155 249.462C156.385 248.951 155.614 249.206 155.101 249.972C154.844 250.482 155.101 251.503 155.614 251.758L159.209 253.799L156.385 254.565C155.614 254.82 155.101 255.585 155.358 256.351C155.614 256.861 156.128 257.371 156.641 257.371C156.898 257.371 156.641 257.371 160.236 256.351C161.777 255.84 163.317 256.096 164.601 256.861C165.885 257.627 166.656 258.902 166.656 260.433V260.944C166.656 262.475 165.885 263.75 164.601 264.516C163.317 265.281 161.777 265.537 160.236 265.026L157.155 264.516C156.385 264.261 155.614 264.771 155.614 265.537C155.358 266.302 155.871 267.067 156.641 267.323L159.466 268.088L155.871 270.129C154.587 270.895 155.101 272.681 156.641 272.681C157.155 272.681 156.898 272.681 161.007 270.385L160.236 273.191C159.979 273.957 160.493 274.722 161.263 274.977C162.034 275.233 162.804 274.722 162.804 273.957L163.574 270.64C163.831 269.109 164.858 268.088 166.142 267.323C167.426 266.557 168.967 266.557 170.25 267.323L170.507 267.578C171.791 268.343 172.561 269.619 172.561 271.15C172.561 272.681 172.048 274.212 170.764 275.233L168.71 277.274C168.196 277.784 168.196 278.55 168.71 279.315C169.223 279.825 169.994 279.825 170.507 279.315L172.561 277.274V281.612C172.561 282.377 173.075 282.887 173.845 282.887C174.616 282.887 175.129 282.377 175.129 281.612V277.274L177.183 279.315C177.44 279.57 177.697 279.825 178.21 279.825C179.494 279.825 180.008 278.294 179.237 277.529L176.926 275.233C175.899 274.212 175.129 272.681 175.129 271.15C175.129 269.619 175.899 268.343 177.183 267.578L177.44 267.323C178.724 266.557 180.265 266.557 181.548 267.323C182.832 268.088 183.859 269.364 184.116 270.64L184.886 273.957C185.143 274.467 185.657 274.977 186.17 274.977C186.941 274.977 187.711 274.212 187.454 273.191L186.684 270.385L190.279 272.426C191.049 272.681 191.819 272.681 192.076 271.915C193.103 271.15 193.103 270.385 192.333 269.874ZM178.467 260.944C178.467 262.475 177.697 264.006 176.156 264.771C174.616 265.537 173.075 265.537 171.534 264.771C170.25 264.006 169.223 262.475 169.223 260.944C169.223 259.413 169.994 257.882 171.534 257.116C173.075 256.351 174.616 256.351 176.156 257.116C177.697 257.627 178.467 259.158 178.467 260.944Z" fill="white"/>
<path d="M253.333 269.874L249.738 267.833L252.563 267.067C253.333 266.812 253.846 266.047 253.59 265.281C253.333 264.516 252.563 264.006 252.049 264.261L248.968 265.026C247.427 265.537 245.886 265.281 244.603 264.516C243.319 263.75 242.548 262.475 242.548 260.944V260.433C242.548 258.902 243.319 257.627 244.603 256.861C245.886 256.096 247.427 255.84 248.968 256.351C252.563 257.371 252.306 257.371 252.563 257.371C253.076 257.371 253.59 256.861 253.846 256.351C254.103 255.585 253.59 254.82 252.819 254.565L249.995 253.799L253.333 251.758C254.103 251.503 254.103 250.482 253.846 249.972C253.59 249.206 252.563 249.206 252.049 249.462L248.454 251.503L249.225 248.696C249.481 247.931 248.968 247.165 248.197 246.91C247.427 246.655 246.657 247.165 246.657 247.931L245.886 251.248C245.63 252.779 244.603 253.799 243.319 254.565C242.035 255.33 240.494 255.33 239.21 254.565L238.954 254.31C237.67 253.544 236.899 252.268 236.899 250.737C236.899 249.206 237.413 247.675 238.697 246.655L241.008 244.358C241.521 243.848 241.521 243.083 241.008 242.317C240.494 241.807 239.724 241.807 239.21 242.317L237.156 244.358V240.276C237.156 239.51 236.643 239 235.872 239C235.102 239 234.588 239.51 234.588 240.276V244.613L232.534 242.572C232.021 242.062 231.25 242.062 230.737 242.572C230.223 243.083 230.223 243.848 230.737 244.613L232.021 246.655C233.048 247.675 233.818 249.206 233.818 250.737C233.818 252.268 233.048 253.544 231.764 254.31L231.507 254.565C230.223 255.33 228.683 255.33 227.399 254.565C226.115 253.799 225.088 252.523 224.831 251.248L223.547 247.931C223.29 247.165 222.52 246.655 221.75 246.91C221.236 247.165 220.723 247.931 220.979 248.696L221.75 251.503L218.155 249.462C217.385 248.951 216.614 249.206 216.101 249.972C215.844 250.482 216.101 251.503 216.614 251.758L220.209 253.799L217.385 254.565C216.614 254.82 216.101 255.585 216.358 256.351C216.614 256.861 217.128 257.371 217.641 257.371C217.898 257.371 217.641 257.371 221.236 256.351C222.777 255.84 224.317 256.096 225.601 256.861C226.885 257.627 227.656 258.902 227.656 260.433V260.944C227.656 262.475 226.885 263.75 225.601 264.516C224.317 265.281 222.777 265.537 221.236 265.026L218.155 264.516C217.385 264.261 216.614 264.771 216.614 265.537C216.358 266.302 216.871 267.067 217.641 267.323L220.466 268.088L216.871 270.129C215.587 270.895 216.101 272.681 217.641 272.681C218.155 272.681 217.898 272.681 222.007 270.385L221.236 273.191C220.979 273.957 221.493 274.722 222.263 274.977C223.034 275.233 223.804 274.722 223.804 273.957L224.574 270.64C224.831 269.109 225.858 268.088 227.142 267.323C228.426 266.557 229.967 266.557 231.25 267.323L231.507 267.578C232.791 268.343 233.561 269.619 233.561 271.15C233.561 272.681 233.048 274.212 231.764 275.233L229.71 277.274C229.196 277.784 229.196 278.55 229.71 279.315C230.223 279.825 230.994 279.825 231.507 279.315L233.561 277.274V281.612C233.561 282.377 234.075 282.887 234.845 282.887C235.616 282.887 236.129 282.377 236.129 281.612V277.274L238.183 279.315C238.44 279.57 238.697 279.825 239.21 279.825C240.494 279.825 241.008 278.294 240.237 277.529L237.926 275.233C236.899 274.212 236.129 272.681 236.129 271.15C236.129 269.619 236.899 268.343 238.183 267.578L238.44 267.323C239.724 266.557 241.265 266.557 242.548 267.323C243.832 268.088 244.859 269.364 245.116 270.64L245.886 273.957C246.143 274.467 246.657 274.977 247.17 274.977C247.941 274.977 248.711 274.212 248.454 273.191L247.684 270.385L251.279 272.426C252.049 272.681 252.819 272.681 253.076 271.915C254.103 271.15 254.103 270.385 253.333 269.874ZM239.467 260.944C239.467 262.475 238.697 264.006 237.156 264.771C235.616 265.537 234.075 265.537 232.534 264.771C231.25 264.006 230.223 262.475 230.223 260.944C230.223 259.413 230.994 257.882 232.534 257.116C234.075 256.351 235.616 256.351 237.156 257.116C238.697 257.627 239.467 259.158 239.467 260.944Z" fill="white"/>
</g>
<g filter="url(#filter5_bdd_130_1586)">
<path d="M218.333 315.874L214.738 313.833L217.563 313.067C218.333 312.812 218.846 312.047 218.59 311.281C218.333 310.516 217.563 310.006 217.049 310.261L213.968 311.026C212.427 311.537 210.886 311.281 209.603 310.516C208.319 309.75 207.548 308.475 207.548 306.944V306.433C207.548 304.902 208.319 303.627 209.603 302.861C210.886 302.096 212.427 301.84 213.968 302.351C217.563 303.371 217.306 303.371 217.563 303.371C218.076 303.371 218.59 302.861 218.846 302.351C219.103 301.585 218.59 300.82 217.819 300.565L214.995 299.799L218.333 297.758C219.103 297.503 219.103 296.482 218.846 295.972C218.59 295.206 217.563 295.206 217.049 295.462L213.454 297.503L214.225 294.696C214.481 293.931 213.968 293.165 213.197 292.91C212.427 292.655 211.657 293.165 211.657 293.931L210.886 297.248C210.63 298.779 209.603 299.799 208.319 300.565C207.035 301.33 205.494 301.33 204.21 300.565L203.954 300.31C202.67 299.544 201.899 298.268 201.899 296.737C201.899 295.206 202.413 293.675 203.697 292.655L206.008 290.358C206.521 289.848 206.521 289.083 206.008 288.317C205.494 287.807 204.724 287.807 204.21 288.317L202.156 290.358V286.276C202.156 285.51 201.643 285 200.872 285C200.102 285 199.588 285.51 199.588 286.276V290.613L197.534 288.572C197.021 288.062 196.25 288.062 195.737 288.572C195.223 289.083 195.223 289.848 195.737 290.613L197.021 292.655C198.048 293.675 198.818 295.206 198.818 296.737C198.818 298.268 198.048 299.544 196.764 300.31L196.507 300.565C195.223 301.33 193.683 301.33 192.399 300.565C191.115 299.799 190.088 298.523 189.831 297.248L188.547 293.931C188.29 293.165 187.52 292.655 186.75 292.91C186.236 293.165 185.723 293.931 185.979 294.696L186.75 297.503L183.155 295.462C182.385 294.951 181.614 295.206 181.101 295.972C180.844 296.482 181.101 297.503 181.614 297.758L185.209 299.799L182.385 300.565C181.614 300.82 181.101 301.585 181.358 302.351C181.614 302.861 182.128 303.371 182.641 303.371C182.898 303.371 182.641 303.371 186.236 302.351C187.777 301.84 189.317 302.096 190.601 302.861C191.885 303.627 192.656 304.902 192.656 306.433V306.944C192.656 308.475 191.885 309.75 190.601 310.516C189.317 311.281 187.777 311.537 186.236 311.026L183.155 310.516C182.385 310.261 181.614 310.771 181.614 311.537C181.358 312.302 181.871 313.067 182.641 313.323L185.466 314.088L181.871 316.129C180.587 316.895 181.101 318.681 182.641 318.681C183.155 318.681 182.898 318.681 187.007 316.385L186.236 319.191C185.979 319.957 186.493 320.722 187.263 320.977C188.034 321.233 188.804 320.722 188.804 319.957L189.574 316.64C189.831 315.109 190.858 314.088 192.142 313.323C193.426 312.557 194.967 312.557 196.25 313.323L196.507 313.578C197.791 314.343 198.561 315.619 198.561 317.15C198.561 318.681 198.048 320.212 196.764 321.233L194.71 323.274C194.196 323.784 194.196 324.55 194.71 325.315C195.223 325.825 195.994 325.825 196.507 325.315L198.561 323.274V327.612C198.561 328.377 199.075 328.887 199.845 328.887C200.616 328.887 201.129 328.377 201.129 327.612V323.274L203.183 325.315C203.44 325.57 203.697 325.825 204.21 325.825C205.494 325.825 206.008 324.294 205.237 323.529L202.926 321.233C201.899 320.212 201.129 318.681 201.129 317.15C201.129 315.619 201.899 314.343 203.183 313.578L203.44 313.323C204.724 312.557 206.265 312.557 207.548 313.323C208.832 314.088 209.859 315.364 210.116 316.64L210.886 319.957C211.143 320.467 211.657 320.977 212.17 320.977C212.941 320.977 213.711 320.212 213.454 319.191L212.684 316.385L216.279 318.426C217.049 318.681 217.819 318.681 218.076 317.915C219.103 317.15 219.103 316.385 218.333 315.874ZM204.467 306.944C204.467 308.475 203.697 310.006 202.156 310.771C200.616 311.537 199.075 311.537 197.534 310.771C196.25 310.006 195.223 308.475 195.223 306.944C195.223 305.413 195.994 303.882 197.534 303.116C199.075 302.351 200.616 302.351 202.156 303.116C203.697 303.627 204.467 305.158 204.467 306.944Z" fill="white"/>
<path d="M157.333 313.874L153.738 311.833L156.563 311.067C157.333 310.812 157.846 310.047 157.59 309.281C157.333 308.516 156.563 308.006 156.049 308.261L152.968 309.026C151.427 309.537 149.886 309.281 148.603 308.516C147.319 307.75 146.548 306.475 146.548 304.944V304.433C146.548 302.902 147.319 301.627 148.603 300.861C149.886 300.096 151.427 299.84 152.968 300.351C156.563 301.371 156.306 301.371 156.563 301.371C157.076 301.371 157.59 300.861 157.846 300.351C158.103 299.585 157.59 298.82 156.819 298.565L153.995 297.799L157.333 295.758C158.103 295.503 158.103 294.482 157.846 293.972C157.59 293.206 156.563 293.206 156.049 293.462L152.454 295.503L153.225 292.696C153.481 291.931 152.968 291.165 152.197 290.91C151.427 290.655 150.657 291.165 150.657 291.931L149.886 295.248C149.63 296.779 148.603 297.799 147.319 298.565C146.035 299.33 144.494 299.33 143.21 298.565L142.954 298.31C141.67 297.544 140.899 296.268 140.899 294.737C140.899 293.206 141.413 291.675 142.697 290.655L145.008 288.358C145.521 287.848 145.521 287.083 145.008 286.317C144.494 285.807 143.724 285.807 143.21 286.317L141.156 288.358V284.276C141.156 283.51 140.643 283 139.872 283C139.102 283 138.588 283.51 138.588 284.276V288.613L136.534 286.572C136.021 286.062 135.25 286.062 134.737 286.572C134.223 287.083 134.223 287.848 134.737 288.613L136.021 290.655C137.048 291.675 137.818 293.206 137.818 294.737C137.818 296.268 137.048 297.544 135.764 298.31L135.507 298.565C134.223 299.33 132.683 299.33 131.399 298.565C130.115 297.799 129.088 296.523 128.831 295.248L127.547 291.931C127.29 291.165 126.52 290.655 125.75 290.91C125.236 291.165 124.723 291.931 124.979 292.696L125.75 295.503L122.155 293.462C121.385 292.951 120.614 293.206 120.101 293.972C119.844 294.482 120.101 295.503 120.614 295.758L124.209 297.799L121.385 298.565C120.614 298.82 120.101 299.585 120.358 300.351C120.614 300.861 121.128 301.371 121.641 301.371C121.898 301.371 121.641 301.371 125.236 300.351C126.777 299.84 128.317 300.096 129.601 300.861C130.885 301.627 131.656 302.902 131.656 304.433V304.944C131.656 306.475 130.885 307.75 129.601 308.516C128.317 309.281 126.777 309.537 125.236 309.026L122.155 308.516C121.385 308.261 120.614 308.771 120.614 309.537C120.358 310.302 120.871 311.067 121.641 311.323L124.466 312.088L120.871 314.129C119.587 314.895 120.101 316.681 121.641 316.681C122.155 316.681 121.898 316.681 126.007 314.385L125.236 317.191C124.979 317.957 125.493 318.722 126.263 318.977C127.034 319.233 127.804 318.722 127.804 317.957L128.574 314.64C128.831 313.109 129.858 312.088 131.142 311.323C132.426 310.557 133.967 310.557 135.25 311.323L135.507 311.578C136.791 312.343 137.561 313.619 137.561 315.15C137.561 316.681 137.048 318.212 135.764 319.233L133.71 321.274C133.196 321.784 133.196 322.55 133.71 323.315C134.223 323.825 134.994 323.825 135.507 323.315L137.561 321.274V325.612C137.561 326.377 138.075 326.887 138.845 326.887C139.616 326.887 140.129 326.377 140.129 325.612V321.274L142.183 323.315C142.44 323.57 142.697 323.825 143.21 323.825C144.494 323.825 145.008 322.294 144.237 321.529L141.926 319.233C140.899 318.212 140.129 316.681 140.129 315.15C140.129 313.619 140.899 312.343 142.183 311.578L142.44 311.323C143.724 310.557 145.265 310.557 146.548 311.323C147.832 312.088 148.859 313.364 149.116 314.64L149.886 317.957C150.143 318.467 150.657 318.977 151.17 318.977C151.941 318.977 152.711 318.212 152.454 317.191L151.684 314.385L155.279 316.426C156.049 316.681 156.819 316.681 157.076 315.915C158.103 315.15 158.103 314.385 157.333 313.874ZM143.467 304.944C143.467 306.475 142.697 308.006 141.156 308.771C139.616 309.537 138.075 309.537 136.534 308.771C135.25 308.006 134.223 306.475 134.223 304.944C134.223 303.413 134.994 301.882 136.534 301.116C138.075 300.351 139.616 300.351 141.156 301.116C142.697 301.627 143.467 303.158 143.467 304.944Z" fill="white"/>
</g>
<defs>
<filter id="filter0_bd_130_1586" x="0" y="0" width="272" height="216.353" filterUnits="userSpaceOnUse" color-interpolation-filters="sRGB">
<feFlood flood-opacity="0" result="BackgroundImageFix"/>
<feGaussianBlur in="BackgroundImageFix" stdDeviation="7"/>
<feComposite in2="SourceAlpha" operator="in" result="effect1_backgroundBlur_130_1586"/>
<feColorMatrix in="SourceAlpha" type="matrix" values="0 0 0 0 0 0 0 0 0 0 0 0 0 0 0 0 0 0 127 0" result="hardAlpha"/>
<feOffset dx="-21" dy="15"/>
<feGaussianBlur stdDeviation="25"/>
<feComposite in2="hardAlpha" operator="out"/>
<feColorMatrix type="matrix" values="0 0 0 0 0.113438 0 0 0 0 0.148981 0 0 0 0 0.275 0 0 0 0.25 0"/>
<feBlend mode="normal" in2="effect1_backgroundBlur_130_1586" result="effect2_dropShadow_130_1586"/>
<feBlend mode="normal" in="SourceGraphic" in2="effect2_dropShadow_130_1586" result="shape"/>
</filter>
<filter id="filter1_bd_130_1586" x="40" y="35" width="338" height="261" filterUnits="userSpaceOnUse" color-interpolation-filters="sRGB">
<feFlood flood-opacity="0" result="BackgroundImageFix"/>
<feGaussianBlur in="BackgroundImageFix" stdDeviation="7"/>
<feComposite in2="SourceAlpha" operator="in" result="effect1_backgroundBlur_130_1586"/>
<feColorMatrix in="SourceAlpha" type="matrix" values="0 0 0 0 0 0 0 0 0 0 0 0 0 0 0 0 0 0 127 0" result="hardAlpha"/>
<feOffset dx="-21" dy="15"/>
<feGaussianBlur stdDeviation="25"/>
<feComposite in2="hardAlpha" operator="out"/>
<feColorMatrix type="matrix" values="0 0 0 0 0.113725 0 0 0 0 0.14902 0 0 0 0 0.27451 0 0 0 0.25 0"/>
<feBlend mode="normal" in2="effect1_backgroundBlur_130_1586" result="effect2_dropShadow_130_1586"/>
<feBlend mode="normal" in="SourceGraphic" in2="effect2_dropShadow_130_1586" result="shape"/>
</filter>
<filter id="filter2_bdd_130_1586" x="202.369" y="97" width="241.162" height="305.265" filterUnits="userSpaceOnUse" color-interpolation-filters="sRGB">
<feFlood flood-opacity="0" result="BackgroundImageFix"/>
<feGaussianBlur in="BackgroundImageFix" stdDeviation="7"/>
<feComposite in2="SourceAlpha" operator="in" result="effect1_backgroundBlur_130_1586"/>
<feColorMatrix in="SourceAlpha" type="matrix" values="0 0 0 0 0 0 0 0 0 0 0 0 0 0 0 0 0 0 127 0" result="hardAlpha"/>
<feOffset dx="-21" dy="15"/>
<feGaussianBlur stdDeviation="25"/>
<feComposite in2="hardAlpha" operator="out"/>
<feColorMatrix type="matrix" values="0 0 0 0 0.113438 0 0 0 0 0.148981 0 0 0 0 0.275 0 0 0 0.25 0"/>
<feBlend mode="normal" in2="effect1_backgroundBlur_130_1586" result="effect2_dropShadow_130_1586"/>
<feColorMatrix in="SourceAlpha" type="matrix" values="0 0 0 0 0 0 0 0 0 0 0 0 0 0 0 0 0 0 127 0" result="hardAlpha"/>
<feOffset/>
<feGaussianBlur stdDeviation="30.5"/>
<feComposite in2="hardAlpha" operator="out"/>
<feColorMatrix type="matrix" values="0 0 0 0 1 0 0 0 0 0.721569 0 0 0 0 0.00392157 0 0 0 0.49 0"/>
<feBlend mode="normal" in2="effect2_dropShadow_130_1586" result="effect3_dropShadow_130_1586"/>
<feBlend mode="normal" in="SourceGraphic" in2="effect3_dropShadow_130_1586" result="shape"/>
</filter>
<filter id="filter3_bd_130_1586" x="172" y="35" width="272" height="216.353" filterUnits="userSpaceOnUse" color-interpolation-filters="sRGB">
<feFlood flood-opacity="0" result="BackgroundImageFix"/>
<feGaussianBlur in="BackgroundImageFix" stdDeviation="7"/>
<feComposite in2="SourceAlpha" operator="in" result="effect1_backgroundBlur_130_1586"/>
<feColorMatrix in="SourceAlpha" type="matrix" values="0 0 0 0 0 0 0 0 0 0 0 0 0 0 0 0 0 0 127 0" result="hardAlpha"/>
<feOffset dx="-21" dy="15"/>
<feGaussianBlur stdDeviation="25"/>
<feComposite in2="hardAlpha" operator="out"/>
<feColorMatrix type="matrix" values="0 0 0 0 0.113438 0 0 0 0 0.148981 0 0 0 0 0.275 0 0 0 0.25 0"/>
<feBlend mode="normal" in2="effect1_backgroundBlur_130_1586" result="effect2_dropShadow_130_1586"/>
<feBlend mode="normal" in="SourceGraphic" in2="effect2_dropShadow_130_1586" result="shape"/>
</filter>
<filter id="filter4_bdd_130_1586" x="26" y="191" width="269" height="156.887" filterUnits="userSpaceOnUse" color-interpolation-filters="sRGB">
<feFlood flood-opacity="0" result="BackgroundImageFix"/>
<feGaussianBlur in="BackgroundImageFix" stdDeviation="7"/>
<feComposite in2="SourceAlpha" operator="in" result="effect1_backgroundBlur_130_1586"/>
<feColorMatrix in="SourceAlpha" type="matrix" values="0 0 0 0 0 0 0 0 0 0 0 0 0 0 0 0 0 0 127 0" result="hardAlpha"/>
<feOffset dx="-21" dy="15"/>
<feGaussianBlur stdDeviation="25"/>
<feComposite in2="hardAlpha" operator="out"/>
<feColorMatrix type="matrix" values="0 0 0 0 0.113438 0 0 0 0 0.148981 0 0 0 0 0.275 0 0 0 0.25 0"/>
<feBlend mode="normal" in2="effect1_backgroundBlur_130_1586" result="effect2_dropShadow_130_1586"/>
<feColorMatrix in="SourceAlpha" type="matrix" values="0 0 0 0 0 0 0 0 0 0 0 0 0 0 0 0 0 0 127 0" result="hardAlpha"/>
<feOffset dy="-7"/>
<feGaussianBlur stdDeviation="20.5"/>
<feComposite in2="hardAlpha" operator="out"/>
<feColorMatrix type="matrix" values="0 0 0 0 0.1375 0 0 0 0 0.74125 0 0 0 0 1 0 0 0 0.3 0"/>
<feBlend mode="normal" in2="effect2_dropShadow_130_1586" result="effect3_dropShadow_130_1586"/>
<feBlend mode="normal" in="SourceGraphic" in2="effect3_dropShadow_130_1586" result="shape"/>
</filter>
<filter id="filter5_bdd_130_1586" x="49" y="235" width="211" height="158.887" filterUnits="userSpaceOnUse" color-interpolation-filters="sRGB">
<feFlood flood-opacity="0" result="BackgroundImageFix"/>
<feGaussianBlur in="BackgroundImageFix" stdDeviation="7"/>
<feComposite in2="SourceAlpha" operator="in" result="effect1_backgroundBlur_130_1586"/>
<feColorMatrix in="SourceAlpha" type="matrix" values="0 0 0 0 0 0 0 0 0 0 0 0 0 0 0 0 0 0 127 0" result="hardAlpha"/>
<feOffset dx="-21" dy="15"/>
<feGaussianBlur stdDeviation="25"/>
<feComposite in2="hardAlpha" operator="out"/>
<feColorMatrix type="matrix" values="0 0 0 0 0.113438 0 0 0 0 0.148981 0 0 0 0 0.275 0 0 0 0.25 0"/>
<feBlend mode="normal" in2="effect1_backgroundBlur_130_1586" result="effect2_dropShadow_130_1586"/>
<feColorMatrix in="SourceAlpha" type="matrix" values="0 0 0 0 0 0 0 0 0 0 0 0 0 0 0 0 0 0 127 0" result="hardAlpha"/>
<feOffset dy="-7"/>
<feGaussianBlur stdDeviation="20.5"/>
<feComposite in2="hardAlpha" operator="out"/>
<feColorMatrix type="matrix" values="0 0 0 0 0.1375 0 0 0 0 0.74125 0 0 0 0 1 0 0 0 0.3 0"/>
<feBlend mode="normal" in2="effect2_dropShadow_130_1586" result="effect3_dropShadow_130_1586"/>
<feBlend mode="normal" in="SourceGraphic" in2="effect3_dropShadow_130_1586" result="shape"/>
</filter>
<linearGradient id="paint0_linear_130_1586" x1="165" y1="38.5" x2="165" y2="164.5" gradientUnits="userSpaceOnUse">
<stop stop-color="white"/>
<stop offset="1" stop-color="white" stop-opacity="0"/>
</linearGradient>
<linearGradient id="paint1_linear_130_1586" x1="157" y1="35" x2="157" y2="151.353" gradientUnits="userSpaceOnUse">
<stop stop-color="white"/>
<stop offset="1" stop-color="white" stop-opacity="0"/>
</linearGradient>
<linearGradient id="paint2_linear_130_1586" x1="230" y1="18.5" x2="230" y2="253.5" gradientUnits="userSpaceOnUse">
<stop stop-color="white"/>
<stop offset="1" stop-color="white" stop-opacity="0"/>
</linearGradient>
<linearGradient id="paint3_linear_130_1586" x1="230" y1="70" x2="230" y2="231" gradientUnits="userSpaceOnUse">
<stop stop-color="white"/>
<stop offset="1" stop-color="white" stop-opacity="0"/>
</linearGradient>
<linearGradient id="paint4_linear_130_1586" x1="339.5" y1="169" x2="314.5" y2="277.5" gradientUnits="userSpaceOnUse">
<stop stop-color="#FF4D00"/>
<stop offset="1" stop-color="#FFB800"/>
</linearGradient>
<linearGradient id="paint5_linear_130_1586" x1="306" y1="276" x2="351.5" y2="178.5" gradientUnits="userSpaceOnUse">
<stop stop-color="white"/>
<stop offset="1" stop-color="white" stop-opacity="0"/>
</linearGradient>
<linearGradient id="paint6_linear_130_1586" x1="337" y1="73.5" x2="337" y2="199.5" gradientUnits="userSpaceOnUse">
<stop stop-color="white"/>
<stop offset="1" stop-color="white" stop-opacity="0"/>
</linearGradient>
<linearGradient id="paint7_linear_130_1586" x1="329" y1="70" x2="329" y2="186.353" gradientUnits="userSpaceOnUse">
<stop stop-color="white"/>
<stop offset="1" stop-color="white" stop-opacity="0"/>
</linearGradient>
</defs>
</svg>
