<svg width="50" height="62" viewBox="0 0 33 62" fill="none" xmlns="http://www.w3.org/2000/svg">
    <path
        d="M 0.6 49.2 C 0.6 47.2 1.3 45.3 2.5 43.5 C 3.7 41.7 5.4 40.2 7.7 39.1 V 15.1 C 7.7 13.2 8.5 11.6 10.2 10.2 C 12 8.9 14.1 8.2 16.6 8.2 C 19.2 8.2 21.3 8.9 23 10.2 C 24.7 11.6 25.6 13.2 25.6 15.1 V 39 C 27.9 40.2 29.5 41.7 30.8 43.5 C 32 45.2 32.6 47.2 32.6 49.2 C 32.6 51.4 31.9 53.5 30.5 55.4 C 29 57.3 27.1 58.8 24.6 59.9 C 22.2 60.9 19.5 61.5 16.6 61.5 C 13.7 61.5 11 60.9 8.6 59.9 C 6.2 58.8 4.2 57.3 2.8 55.4 C 1.3 53.5 0.6 51.5 0.6 49.2 Z M 6.2 49.2 C 6.2 51.5 7.2 53.4 9.2 55 C 11.3 56.6 13.8 57.4 16.6 57.4 C 19.6 57.4 22.1 56.6 24.2 55 C 26.3 53.4 27.3 51.5 27.3 49.3 C 27.3 47.8 26.8 46.4 25.8 45.1 C 24.8 43.8 23.5 42.8 21.7 42.1 L 20.8 41.8 C 20.5 41.7 20.3 41.5 20.3 41.1 V 15.1 C 20.3 14.4 20 13.7 19.3 13.2 C 18.6 12.7 17.7 12.4 16.6 12.4 C 15.6 12.4 14.7 12.7 14 13.2 C 13.3 13.7 12.9 14.3 12.9 15.1 V 41 C 12.9 41.4 12.8 41.6 12.5 41.7 L 11.6 42.1 C 9.9 42.8 8.6 43.8 7.6 45 C 6.6 46.3 6.2 47.7 6.2 49.2 Z M 8.6 49.2 C 8.6 51 9.4 52.4 10.9 53.6 C 12.4 54.8 14.3 55.4 16.4 55.4 C 18.6 55.4 20.4 54.8 22 53.6 C 23.6 52.4 24.4 51 24.4 49.3 C 24.4 47.7 23.7 46.4 22.4 45.2 C 21 44.1 19.4 43.4 17.4 43.2 V 25.4 C 17.4 25.3 17.3 25.1 17.1 25 C 16.9 24.8 16.7 24.7 16.4 24.7 C 16.1 24.7 15.9 24.8 15.8 24.9 C 15.6 25.1 15.5 25.2 15.5 25.4 V 43.1 C 13.6 43.4 12 44 10.6 45.2 C 9.3 46.4 8.6 47.7 8.6 49.2 Z"
        fill="white" />
</svg>