<svg width="50" height="54" viewBox="0 0 49 54" fill="none" xmlns="http://www.w3.org/2000/svg">
    <path
        d="M 0.5 32.9 C 0.5 30.4 1.2 27.6 2.6 24.4 C 4 21.2 5.8 18.1 8 15.1 C 12.5 9.3 16.4 5 19.7 2 L 21.9 0 C 22.6 0.7 23.4 1.4 24.3 2 C 25.5 3.2 27.3 5.1 29.8 7.9 C 32.2 10.6 34.3 13.1 36 15.3 C 38.1 18.1 39.9 21.2 41.3 24.4 C 42.7 27.6 43.4 30.5 43.4 32.9 C 43.4 35.7 42.9 38.4 41.7 40.9 C 40.6 43.5 39.1 45.7 37.2 47.6 C 35.3 49.4 33 50.9 30.3 52 C 27.7 53.1 24.9 53.6 21.9 53.6 C 19 53.6 16.3 53.1 13.6 52 C 11 51 8.7 49.5 6.8 47.7 C 4.9 45.9 3.4 43.7 2.2 41.1 C 1.1 38.6 0.5 35.8 0.5 32.9 Z M 7.1 24.7 C 7.1 27 7.6 28.9 8.6 30.3 C 9.6 31.6 11.1 32.3 13.2 32.3 C 15.3 32.3 16.8 31.6 17.8 30.3 C 18.8 28.9 19.4 27 19.4 24.7 C 19.4 22.3 18.8 20.5 17.8 19.1 C 16.8 17.7 15.3 17 13.2 17 C 11.1 17 9.6 17.7 8.6 19.1 C 7.6 20.5 7.1 22.3 7.1 24.7 Z M 11.6 24.7 C 11.6 24.3 11.6 23.9 11.6 23.7 C 11.6 23.5 11.6 23.2 11.7 22.8 C 11.7 22.4 11.7 22.1 11.8 21.9 C 11.9 21.7 12 21.4 12.1 21.2 C 12.2 21 12.3 20.8 12.5 20.7 C 12.7 20.6 12.9 20.5 13.2 20.5 C 13.6 20.5 13.9 20.6 14.1 20.9 C 14.4 21.1 14.5 21.5 14.6 21.9 C 14.7 22.4 14.8 22.8 14.8 23.2 C 14.8 23.6 14.8 24 14.8 24.6 C 14.8 25.3 14.8 25.8 14.8 26.1 C 14.8 26.4 14.7 26.9 14.6 27.4 C 14.5 27.8 14.4 28.2 14.1 28.4 C 13.9 28.7 13.6 28.8 13.2 28.8 C 12.9 28.8 12.7 28.7 12.5 28.6 C 12.3 28.5 12.2 28.3 12.1 28.1 C 12 27.9 11.9 27.6 11.8 27.4 C 11.8 27.2 11.7 26.9 11.7 26.5 C 11.6 26.1 11.6 25.8 11.6 25.6 C 11.6 25.4 11.6 25.1 11.6 24.7 Z M 13.3 46.4 H 17.1 L 31.6 16.3 H 27.7 L 13.3 46.4 Z M 25.8 38 C 25.8 40.4 26.3 42.2 27.4 43.6 C 28.4 45 29.9 45.7 32 45.7 C 34.1 45.7 35.6 45 36.6 43.6 C 37.6 42.3 38.1 40.4 38.2 38 C 38.1 35.7 37.6 33.8 36.6 32.4 C 35.6 31.1 34.1 30.4 32 30.4 C 29.9 30.4 28.4 31.1 27.4 32.4 C 26.3 33.8 25.8 35.7 25.8 38 Z M 30.3 38 C 30.3 37.4 30.3 36.9 30.3 36.6 C 30.4 36.2 30.4 35.8 30.5 35.3 C 30.6 34.8 30.8 34.5 31 34.2 C 31.2 34 31.6 33.9 32 33.9 C 32.2 33.9 32.4 34 32.7 34.1 C 32.9 34.2 33 34.3 33.1 34.6 C 33.2 34.9 33.3 35.1 33.4 35.3 C 33.5 35.5 33.5 35.8 33.5 36.2 L 33.6 37.1 V 38 V 39 L 33.5 39.9 L 33.4 40.8 L 33.1 41.5 L 32.7 42 L 32 42.2 C 31.6 42.2 31.2 42.1 31 41.8 C 30.8 41.6 30.6 41.2 30.5 40.8 C 30.4 40.3 30.4 39.8 30.3 39.5 C 30.3 39.2 30.3 38.7 30.3 38 Z"
        fill="white" />
</svg>