<svg width="404" height="412" viewBox="0 0 404 412" fill="none" xmlns="http://www.w3.org/2000/svg">
<g filter="url(#filter0_bdd_130_1527)">
<mask id="path-1-inside-1_130_1527" fill="white">
<path fill-rule="evenodd" clip-rule="evenodd" d="M239.019 38.1376C242.456 37.5279 244.545 41.5965 242.735 44.5817C233.264 60.2019 231.89 80.2295 240.858 97.6646C252.797 120.875 279.132 131.847 303.348 125.286C306.721 124.373 310.054 127.51 308.513 130.646C302.585 142.715 292.865 153.051 279.989 159.675C248.141 176.056 209.043 163.518 192.662 131.67C176.28 99.8223 188.818 60.7245 220.666 44.3428C226.597 41.2922 232.779 39.2445 239.019 38.1376Z"/>
</mask>
<path fill-rule="evenodd" clip-rule="evenodd" d="M239.019 38.1376C242.456 37.5279 244.545 41.5965 242.735 44.5817C233.264 60.2019 231.89 80.2295 240.858 97.6646C252.797 120.875 279.132 131.847 303.348 125.286C306.721 124.373 310.054 127.51 308.513 130.646C302.585 142.715 292.865 153.051 279.989 159.675C248.141 176.056 209.043 163.518 192.662 131.67C176.28 99.8223 188.818 60.7245 220.666 44.3428C226.597 41.2922 232.779 39.2445 239.019 38.1376Z" fill="url(#paint0_linear_130_1527)"/>
<path d="M308.513 130.646L306.718 129.764L308.513 130.646ZM242.735 44.5817L244.445 45.6186L242.735 44.5817ZM239.019 38.1376L239.368 40.1069L239.019 38.1376ZM242.637 96.7498C234 79.9584 235.32 60.6692 244.445 45.6186L241.025 43.5448C231.208 59.7346 229.781 80.5007 239.08 98.5794L242.637 96.7498ZM302.825 123.356C279.5 129.675 254.135 119.104 242.637 96.7498L239.08 98.5794C251.459 122.646 278.763 134.019 303.871 127.217L302.825 123.356ZM306.718 129.764C300.973 141.461 291.555 151.476 279.074 157.896L280.904 161.453C294.175 154.627 304.197 143.969 310.308 131.528L306.718 129.764ZM279.074 157.896C248.208 173.772 210.316 161.621 194.44 130.755L190.883 132.585C207.77 165.415 248.074 178.34 280.904 161.453L279.074 157.896ZM194.44 130.755C178.564 99.8897 190.715 61.9977 221.581 46.1214L219.751 42.5643C186.921 59.4512 173.996 99.7548 190.883 132.585L194.44 130.755ZM221.581 46.1214C227.332 43.1633 233.323 41.1792 239.368 40.1069L238.669 36.1684C232.235 37.3098 225.862 39.4212 219.751 42.5643L221.581 46.1214ZM303.871 127.217C304.825 126.958 305.773 127.275 306.359 127.862C306.908 128.411 307.057 129.075 306.718 129.764L310.308 131.528C311.51 129.081 310.762 126.608 309.187 125.033C307.649 123.495 305.244 122.701 302.825 123.356L303.871 127.217ZM244.445 45.6186C245.743 43.4773 245.646 40.9478 244.595 39.0448C243.519 37.0961 241.352 35.6924 238.669 36.1684L239.368 40.1069C240.123 39.973 240.719 40.2988 241.094 40.9783C241.494 41.7034 241.536 42.7009 241.025 43.5448L244.445 45.6186Z" fill="url(#paint1_linear_130_1527)" mask="url(#path-1-inside-1_130_1527)"/>
</g>
<g filter="url(#filter1_bd_130_1527)">
<mask id="path-3-inside-2_130_1527" fill="white">
<path fill-rule="evenodd" clip-rule="evenodd" d="M265.5 272.997C265.666 272.999 265.833 273 266 273C289.748 273 309 253.748 309 230C309 206.252 289.748 187 266 187C265.833 187 265.666 187.001 265.5 187.003V187H254.391C254.793 184.057 255 181.053 255 178C255 141.549 225.451 112 189 112C152.549 112 123 141.549 123 178C123 181.439 123.263 184.817 123.77 188.115C120.631 187.385 117.361 187 114 187C90.2518 187 71 206.252 71 230C71 253.748 90.2518 273 114 273C114.168 273 114.335 272.999 114.502 272.997L114.5 273H265.5V272.997Z"/>
</mask>
<path fill-rule="evenodd" clip-rule="evenodd" d="M265.5 272.997C265.666 272.999 265.833 273 266 273C289.748 273 309 253.748 309 230C309 206.252 289.748 187 266 187C265.833 187 265.666 187.001 265.5 187.003V187H254.391C254.793 184.057 255 181.053 255 178C255 141.549 225.451 112 189 112C152.549 112 123 141.549 123 178C123 181.439 123.263 184.817 123.77 188.115C120.631 187.385 117.361 187 114 187C90.2518 187 71 206.252 71 230C71 253.748 90.2518 273 114 273C114.168 273 114.335 272.999 114.502 272.997L114.5 273H265.5V272.997Z" fill="url(#paint2_linear_130_1527)" shape-rendering="crispEdges"/>
<path d="M265.5 272.997L265.534 269.997C264.733 269.988 263.961 270.3 263.391 270.864C262.821 271.427 262.5 272.195 262.5 272.997H265.5ZM265.5 187.003H262.5C262.5 187.804 262.821 188.573 263.391 189.136C263.961 189.7 264.733 190.012 265.534 190.003L265.5 187.003ZM265.5 187H268.5C268.5 185.343 267.157 184 265.5 184V187ZM254.391 187L251.419 186.595C251.302 187.453 251.562 188.32 252.131 188.973C252.701 189.625 253.525 190 254.391 190V187ZM123.77 188.115L123.091 191.037C124.061 191.262 125.08 190.992 125.81 190.315C126.54 189.638 126.887 188.643 126.735 187.659L123.77 188.115ZM114.502 272.997L116.856 274.857C117.573 273.949 117.705 272.711 117.195 271.674C116.685 270.636 115.624 269.984 114.468 269.997L114.502 272.997ZM114.5 273L112.146 271.14C111.433 272.043 111.299 273.273 111.8 274.308C112.301 275.343 113.35 276 114.5 276V273ZM265.5 273V276C267.157 276 268.5 274.657 268.5 273H265.5ZM265.466 275.997C265.644 275.999 265.822 276 266 276V270C265.845 270 265.689 269.999 265.534 269.997L265.466 275.997ZM266 276C291.405 276 312 255.405 312 230H306C306 252.091 288.091 270 266 270V276ZM312 230C312 204.595 291.405 184 266 184V190C288.091 190 306 207.908 306 230H312ZM266 184C265.822 184 265.644 184.001 265.466 184.003L265.534 190.003C265.689 190.001 265.844 190 266 190V184ZM262.5 187V187.003H268.5V187H262.5ZM254.391 190H265.5V184H254.391V190ZM257.364 187.405C257.783 184.329 258 181.189 258 178H252C252 180.917 251.802 183.786 251.419 186.595L257.364 187.405ZM258 178C258 139.892 227.108 109 189 109V115C223.794 115 252 143.206 252 178H258ZM189 109C150.892 109 120 139.892 120 178H126C126 143.206 154.206 115 189 115V109ZM120 178C120 181.592 120.275 185.123 120.805 188.571L126.735 187.659C126.251 184.512 126 181.286 126 178H120ZM124.449 185.193C121.089 184.412 117.591 184 114 184V190C117.131 190 120.174 190.359 123.091 191.037L124.449 185.193ZM114 184C88.5949 184 68 204.595 68 230H74C74 207.908 91.9086 190 114 190V184ZM68 230C68 255.405 88.5949 276 114 276V270C91.9086 270 74 252.091 74 230H68ZM114 276C114.179 276 114.358 275.999 114.536 275.997L114.468 269.997C114.312 269.999 114.156 270 114 270V276ZM116.854 274.859L116.856 274.857L112.148 271.137L112.146 271.14L116.854 274.859ZM265.5 270H114.5V276H265.5V270ZM262.5 272.997V273H268.5V272.997H262.5Z" fill="url(#paint3_linear_130_1527)" mask="url(#path-3-inside-2_130_1527)"/>
</g>
<g filter="url(#filter2_bd_130_1527)">
<mask id="path-5-inside-3_130_1527" fill="white">
<path fill-rule="evenodd" clip-rule="evenodd" d="M343.563 228.351C343.683 228.352 343.804 228.353 343.924 228.353C361.087 228.353 375 214.44 375 197.277C375 180.115 361.087 166.202 343.924 166.202C343.804 166.202 343.683 166.202 343.563 166.204V166.202H335.535C335.825 164.075 335.975 161.904 335.975 159.697C335.975 133.355 314.62 112 288.277 112C261.935 112 240.58 133.355 240.58 159.697C240.58 162.183 240.77 164.624 241.136 167.007C238.868 166.48 236.504 166.202 234.076 166.202C216.913 166.202 203 180.115 203 197.277C203 214.44 216.913 228.353 234.076 228.353C234.197 228.353 234.318 228.352 234.439 228.351L234.437 228.353H343.563V228.351Z"/>
</mask>
<path fill-rule="evenodd" clip-rule="evenodd" d="M343.563 228.351C343.683 228.352 343.804 228.353 343.924 228.353C361.087 228.353 375 214.44 375 197.277C375 180.115 361.087 166.202 343.924 166.202C343.804 166.202 343.683 166.202 343.563 166.204V166.202H335.535C335.825 164.075 335.975 161.904 335.975 159.697C335.975 133.355 314.62 112 288.277 112C261.935 112 240.58 133.355 240.58 159.697C240.58 162.183 240.77 164.624 241.136 167.007C238.868 166.48 236.504 166.202 234.076 166.202C216.913 166.202 203 180.115 203 197.277C203 214.44 216.913 228.353 234.076 228.353C234.197 228.353 234.318 228.352 234.439 228.351L234.437 228.353H343.563V228.351Z" fill="url(#paint4_linear_130_1527)" shape-rendering="crispEdges"/>
<path d="M343.563 228.351L343.597 225.351C342.796 225.342 342.024 225.654 341.454 226.217C340.884 226.781 340.563 227.549 340.563 228.351H343.563ZM343.563 166.204H340.563C340.563 167.005 340.884 167.773 341.454 168.337C342.024 168.901 342.796 169.213 343.597 169.203L343.563 166.204ZM343.563 166.202H346.563C346.563 164.545 345.22 163.202 343.563 163.202V166.202ZM335.535 166.202L332.563 165.796C332.445 166.655 332.705 167.522 333.275 168.174C333.845 168.827 334.669 169.202 335.535 169.202V166.202ZM241.136 167.007L240.458 169.929C241.427 170.155 242.446 169.884 243.176 169.207C243.906 168.53 244.253 167.535 244.102 166.551L241.136 167.007ZM234.439 228.351L236.793 230.21C237.509 229.303 237.641 228.064 237.131 227.027C236.621 225.99 235.56 225.338 234.404 225.351L234.439 228.351ZM234.437 228.353L232.082 226.494C231.37 227.396 231.236 228.626 231.737 229.661C232.239 230.696 233.287 231.353 234.437 231.353V228.353ZM343.563 228.353V231.353C345.22 231.353 346.563 230.01 346.563 228.353H343.563ZM343.529 231.351C343.661 231.352 343.792 231.353 343.924 231.353V225.353C343.815 225.353 343.706 225.352 343.597 225.351L343.529 231.351ZM343.924 231.353C362.744 231.353 378 216.097 378 197.277H372C372 212.783 359.43 225.353 343.924 225.353V231.353ZM378 197.277C378 178.458 362.744 163.202 343.924 163.202V169.202C359.43 169.202 372 181.771 372 197.277H378ZM343.924 163.202C343.792 163.202 343.661 163.202 343.529 163.204L343.597 169.203C343.706 169.202 343.815 169.202 343.924 169.202V163.202ZM340.563 166.202V166.204H346.563V166.202H340.563ZM335.535 169.202H343.563V163.202H335.535V169.202ZM338.508 166.607C338.816 164.346 338.975 162.04 338.975 159.697H332.975C332.975 161.768 332.834 163.804 332.563 165.796L338.508 166.607ZM338.975 159.697C338.975 131.698 316.277 109 288.277 109V115C312.963 115 332.975 135.012 332.975 159.697H338.975ZM288.277 109C260.278 109 237.58 131.698 237.58 159.697H243.58C243.58 135.012 263.592 115 288.277 115V109ZM237.58 159.697C237.58 162.336 237.782 164.93 238.171 167.463L244.102 166.551C243.758 164.319 243.58 162.03 243.58 159.697H237.58ZM241.815 164.085C239.326 163.507 236.735 163.202 234.076 163.202V169.202C236.274 169.202 238.41 169.454 240.458 169.929L241.815 164.085ZM234.076 163.202C215.256 163.202 200 178.458 200 197.277H206C206 181.771 218.57 169.202 234.076 169.202V163.202ZM200 197.277C200 216.097 215.256 231.353 234.076 231.353V225.353C218.57 225.353 206 212.783 206 197.277H200ZM234.076 231.353C234.208 231.353 234.341 231.352 234.473 231.351L234.404 225.351C234.295 225.352 234.185 225.353 234.076 225.353V231.353ZM236.792 230.212L236.793 230.21L232.084 226.492L232.082 226.494L236.792 230.212ZM343.563 225.353H234.437V231.353H343.563V225.353ZM340.563 228.351V228.353H346.563V228.351H340.563Z" fill="url(#paint5_linear_130_1527)" mask="url(#path-5-inside-3_130_1527)"/>
</g>
<g filter="url(#filter3_bdd_130_1527)">
<path d="M147.333 287.874L143.738 285.833L146.563 285.067C147.333 284.812 147.846 284.047 147.59 283.281C147.333 282.516 146.563 282.006 146.049 282.261L142.968 283.026C141.427 283.537 139.886 283.281 138.603 282.516C137.319 281.75 136.548 280.475 136.548 278.944V278.433C136.548 276.902 137.319 275.627 138.603 274.861C139.886 274.096 141.427 273.84 142.968 274.351C146.563 275.371 146.306 275.371 146.563 275.371C147.076 275.371 147.59 274.861 147.846 274.351C148.103 273.585 147.59 272.82 146.819 272.565L143.995 271.799L147.333 269.758C148.103 269.503 148.103 268.482 147.846 267.972C147.59 267.206 146.563 267.206 146.049 267.462L142.454 269.503L143.225 266.696C143.481 265.931 142.968 265.165 142.197 264.91C141.427 264.655 140.657 265.165 140.657 265.931L139.886 269.248C139.63 270.779 138.603 271.799 137.319 272.565C136.035 273.33 134.494 273.33 133.21 272.565L132.954 272.31C131.67 271.544 130.899 270.268 130.899 268.737C130.899 267.206 131.413 265.675 132.697 264.655L135.008 262.358C135.521 261.848 135.521 261.083 135.008 260.317C134.494 259.807 133.724 259.807 133.21 260.317L131.156 262.358V258.276C131.156 257.51 130.643 257 129.872 257C129.102 257 128.588 257.51 128.588 258.276V262.613L126.534 260.572C126.021 260.062 125.25 260.062 124.737 260.572C124.223 261.083 124.223 261.848 124.737 262.613L126.021 264.655C127.048 265.675 127.818 267.206 127.818 268.737C127.818 270.268 127.048 271.544 125.764 272.31L125.507 272.565C124.223 273.33 122.683 273.33 121.399 272.565C120.115 271.799 119.088 270.523 118.831 269.248L117.547 265.931C117.29 265.165 116.52 264.655 115.75 264.91C115.236 265.165 114.723 265.931 114.979 266.696L115.75 269.503L112.155 267.462C111.385 266.951 110.614 267.206 110.101 267.972C109.844 268.482 110.101 269.503 110.614 269.758L114.209 271.799L111.385 272.565C110.614 272.82 110.101 273.585 110.358 274.351C110.614 274.861 111.128 275.371 111.641 275.371C111.898 275.371 111.641 275.371 115.236 274.351C116.777 273.84 118.317 274.096 119.601 274.861C120.885 275.627 121.656 276.902 121.656 278.433V278.944C121.656 280.475 120.885 281.75 119.601 282.516C118.317 283.281 116.777 283.537 115.236 283.026L112.155 282.516C111.385 282.261 110.614 282.771 110.614 283.537C110.358 284.302 110.871 285.067 111.641 285.323L114.466 286.088L110.871 288.129C109.587 288.895 110.101 290.681 111.641 290.681C112.155 290.681 111.898 290.681 116.007 288.385L115.236 291.191C114.979 291.957 115.493 292.722 116.263 292.977C117.034 293.233 117.804 292.722 117.804 291.957L118.574 288.64C118.831 287.109 119.858 286.088 121.142 285.323C122.426 284.557 123.967 284.557 125.25 285.323L125.507 285.578C126.791 286.343 127.561 287.619 127.561 289.15C127.561 290.681 127.048 292.212 125.764 293.233L123.71 295.274C123.196 295.784 123.196 296.55 123.71 297.315C124.223 297.825 124.994 297.825 125.507 297.315L127.561 295.274V299.612C127.561 300.377 128.075 300.887 128.845 300.887C129.616 300.887 130.129 300.377 130.129 299.612V295.274L132.183 297.315C132.44 297.57 132.697 297.825 133.21 297.825C134.494 297.825 135.008 296.294 134.237 295.529L131.926 293.233C130.899 292.212 130.129 290.681 130.129 289.15C130.129 287.619 130.899 286.343 132.183 285.578L132.44 285.323C133.724 284.557 135.265 284.557 136.548 285.323C137.832 286.088 138.859 287.364 139.116 288.64L139.886 291.957C140.143 292.467 140.657 292.977 141.17 292.977C141.941 292.977 142.711 292.212 142.454 291.191L141.684 288.385L145.279 290.426C146.049 290.681 146.819 290.681 147.076 289.915C148.103 289.15 148.103 288.385 147.333 287.874ZM133.467 278.944C133.467 280.475 132.697 282.006 131.156 282.771C129.616 283.537 128.075 283.537 126.534 282.771C125.25 282.006 124.223 280.475 124.223 278.944C124.223 277.413 124.994 275.882 126.534 275.116C128.075 274.351 129.616 274.351 131.156 275.116C132.697 275.627 133.467 277.158 133.467 278.944Z" fill="white"/>
<path d="M205.333 287.874L201.738 285.833L204.563 285.067C205.333 284.812 205.846 284.047 205.59 283.281C205.333 282.516 204.563 282.006 204.049 282.261L200.968 283.026C199.427 283.537 197.886 283.281 196.603 282.516C195.319 281.75 194.548 280.475 194.548 278.944V278.433C194.548 276.902 195.319 275.627 196.603 274.861C197.886 274.096 199.427 273.84 200.968 274.351C204.563 275.371 204.306 275.371 204.563 275.371C205.076 275.371 205.59 274.861 205.846 274.351C206.103 273.585 205.59 272.82 204.819 272.565L201.995 271.799L205.333 269.758C206.103 269.503 206.103 268.482 205.846 267.972C205.59 267.206 204.563 267.206 204.049 267.462L200.454 269.503L201.225 266.696C201.481 265.931 200.968 265.165 200.197 264.91C199.427 264.655 198.657 265.165 198.657 265.931L197.886 269.248C197.63 270.779 196.603 271.799 195.319 272.565C194.035 273.33 192.494 273.33 191.21 272.565L190.954 272.31C189.67 271.544 188.899 270.268 188.899 268.737C188.899 267.206 189.413 265.675 190.697 264.655L193.008 262.358C193.521 261.848 193.521 261.083 193.008 260.317C192.494 259.807 191.724 259.807 191.21 260.317L189.156 262.358V258.276C189.156 257.51 188.643 257 187.872 257C187.102 257 186.588 257.51 186.588 258.276V262.613L184.534 260.572C184.021 260.062 183.25 260.062 182.737 260.572C182.223 261.083 182.223 261.848 182.737 262.613L184.021 264.655C185.048 265.675 185.818 267.206 185.818 268.737C185.818 270.268 185.048 271.544 183.764 272.31L183.507 272.565C182.223 273.33 180.683 273.33 179.399 272.565C178.115 271.799 177.088 270.523 176.831 269.248L175.547 265.931C175.29 265.165 174.52 264.655 173.75 264.91C173.236 265.165 172.723 265.931 172.979 266.696L173.75 269.503L170.155 267.462C169.385 266.951 168.614 267.206 168.101 267.972C167.844 268.482 168.101 269.503 168.614 269.758L172.209 271.799L169.385 272.565C168.614 272.82 168.101 273.585 168.358 274.351C168.614 274.861 169.128 275.371 169.641 275.371C169.898 275.371 169.641 275.371 173.236 274.351C174.777 273.84 176.317 274.096 177.601 274.861C178.885 275.627 179.656 276.902 179.656 278.433V278.944C179.656 280.475 178.885 281.75 177.601 282.516C176.317 283.281 174.777 283.537 173.236 283.026L170.155 282.516C169.385 282.261 168.614 282.771 168.614 283.537C168.358 284.302 168.871 285.067 169.641 285.323L172.466 286.088L168.871 288.129C167.587 288.895 168.101 290.681 169.641 290.681C170.155 290.681 169.898 290.681 174.007 288.385L173.236 291.191C172.979 291.957 173.493 292.722 174.263 292.977C175.034 293.233 175.804 292.722 175.804 291.957L176.574 288.64C176.831 287.109 177.858 286.088 179.142 285.323C180.426 284.557 181.967 284.557 183.25 285.323L183.507 285.578C184.791 286.343 185.561 287.619 185.561 289.15C185.561 290.681 185.048 292.212 183.764 293.233L181.71 295.274C181.196 295.784 181.196 296.55 181.71 297.315C182.223 297.825 182.994 297.825 183.507 297.315L185.561 295.274V299.612C185.561 300.377 186.075 300.887 186.845 300.887C187.616 300.887 188.129 300.377 188.129 299.612V295.274L190.183 297.315C190.44 297.57 190.697 297.825 191.21 297.825C192.494 297.825 193.008 296.294 192.237 295.529L189.926 293.233C188.899 292.212 188.129 290.681 188.129 289.15C188.129 287.619 188.899 286.343 190.183 285.578L190.44 285.323C191.724 284.557 193.265 284.557 194.548 285.323C195.832 286.088 196.859 287.364 197.116 288.64L197.886 291.957C198.143 292.467 198.657 292.977 199.17 292.977C199.941 292.977 200.711 292.212 200.454 291.191L199.684 288.385L203.279 290.426C204.049 290.681 204.819 290.681 205.076 289.915C206.103 289.15 206.103 288.385 205.333 287.874ZM191.467 278.944C191.467 280.475 190.697 282.006 189.156 282.771C187.616 283.537 186.075 283.537 184.534 282.771C183.25 282.006 182.223 280.475 182.223 278.944C182.223 277.413 182.994 275.882 184.534 275.116C186.075 274.351 187.616 274.351 189.156 275.116C190.697 275.627 191.467 277.158 191.467 278.944Z" fill="white"/>
<path d="M266.333 287.874L262.738 285.833L265.563 285.067C266.333 284.812 266.846 284.047 266.59 283.281C266.333 282.516 265.563 282.006 265.049 282.261L261.968 283.026C260.427 283.537 258.886 283.281 257.603 282.516C256.319 281.75 255.548 280.475 255.548 278.944V278.433C255.548 276.902 256.319 275.627 257.603 274.861C258.886 274.096 260.427 273.84 261.968 274.351C265.563 275.371 265.306 275.371 265.563 275.371C266.076 275.371 266.59 274.861 266.846 274.351C267.103 273.585 266.59 272.82 265.819 272.565L262.995 271.799L266.333 269.758C267.103 269.503 267.103 268.482 266.846 267.972C266.59 267.206 265.563 267.206 265.049 267.462L261.454 269.503L262.225 266.696C262.481 265.931 261.968 265.165 261.197 264.91C260.427 264.655 259.657 265.165 259.657 265.931L258.886 269.248C258.63 270.779 257.603 271.799 256.319 272.565C255.035 273.33 253.494 273.33 252.21 272.565L251.954 272.31C250.67 271.544 249.899 270.268 249.899 268.737C249.899 267.206 250.413 265.675 251.697 264.655L254.008 262.358C254.521 261.848 254.521 261.083 254.008 260.317C253.494 259.807 252.724 259.807 252.21 260.317L250.156 262.358V258.276C250.156 257.51 249.643 257 248.872 257C248.102 257 247.588 257.51 247.588 258.276V262.613L245.534 260.572C245.021 260.062 244.25 260.062 243.737 260.572C243.223 261.083 243.223 261.848 243.737 262.613L245.021 264.655C246.048 265.675 246.818 267.206 246.818 268.737C246.818 270.268 246.048 271.544 244.764 272.31L244.507 272.565C243.223 273.33 241.683 273.33 240.399 272.565C239.115 271.799 238.088 270.523 237.831 269.248L236.547 265.931C236.29 265.165 235.52 264.655 234.75 264.91C234.236 265.165 233.723 265.931 233.979 266.696L234.75 269.503L231.155 267.462C230.385 266.951 229.614 267.206 229.101 267.972C228.844 268.482 229.101 269.503 229.614 269.758L233.209 271.799L230.385 272.565C229.614 272.82 229.101 273.585 229.358 274.351C229.614 274.861 230.128 275.371 230.641 275.371C230.898 275.371 230.641 275.371 234.236 274.351C235.777 273.84 237.317 274.096 238.601 274.861C239.885 275.627 240.656 276.902 240.656 278.433V278.944C240.656 280.475 239.885 281.75 238.601 282.516C237.317 283.281 235.777 283.537 234.236 283.026L231.155 282.516C230.385 282.261 229.614 282.771 229.614 283.537C229.358 284.302 229.871 285.067 230.641 285.323L233.466 286.088L229.871 288.129C228.587 288.895 229.101 290.681 230.641 290.681C231.155 290.681 230.898 290.681 235.007 288.385L234.236 291.191C233.979 291.957 234.493 292.722 235.263 292.977C236.034 293.233 236.804 292.722 236.804 291.957L237.574 288.64C237.831 287.109 238.858 286.088 240.142 285.323C241.426 284.557 242.967 284.557 244.25 285.323L244.507 285.578C245.791 286.343 246.561 287.619 246.561 289.15C246.561 290.681 246.048 292.212 244.764 293.233L242.71 295.274C242.196 295.784 242.196 296.55 242.71 297.315C243.223 297.825 243.994 297.825 244.507 297.315L246.561 295.274V299.612C246.561 300.377 247.075 300.887 247.845 300.887C248.616 300.887 249.129 300.377 249.129 299.612V295.274L251.183 297.315C251.44 297.57 251.697 297.825 252.21 297.825C253.494 297.825 254.008 296.294 253.237 295.529L250.926 293.233C249.899 292.212 249.129 290.681 249.129 289.15C249.129 287.619 249.899 286.343 251.183 285.578L251.44 285.323C252.724 284.557 254.265 284.557 255.548 285.323C256.832 286.088 257.859 287.364 258.116 288.64L258.886 291.957C259.143 292.467 259.657 292.977 260.17 292.977C260.941 292.977 261.711 292.212 261.454 291.191L260.684 288.385L264.279 290.426C265.049 290.681 265.819 290.681 266.076 289.915C267.103 289.15 267.103 288.385 266.333 287.874ZM252.467 278.944C252.467 280.475 251.697 282.006 250.156 282.771C248.616 283.537 247.075 283.537 245.534 282.771C244.25 282.006 243.223 280.475 243.223 278.944C243.223 277.413 243.994 275.882 245.534 275.116C247.075 274.351 248.616 274.351 250.156 275.116C251.697 275.627 252.467 277.158 252.467 278.944Z" fill="white"/>
</g>
<g filter="url(#filter4_bdd_130_1527)">
<path d="M222.333 333.874L218.738 331.833L221.563 331.067C222.333 330.812 222.846 330.047 222.59 329.281C222.333 328.516 221.563 328.006 221.049 328.261L217.968 329.026C216.427 329.537 214.886 329.281 213.603 328.516C212.319 327.75 211.548 326.475 211.548 324.944V324.433C211.548 322.902 212.319 321.627 213.603 320.861C214.886 320.096 216.427 319.84 217.968 320.351C221.563 321.371 221.306 321.371 221.563 321.371C222.076 321.371 222.59 320.861 222.846 320.351C223.103 319.585 222.59 318.82 221.819 318.565L218.995 317.799L222.333 315.758C223.103 315.503 223.103 314.482 222.846 313.972C222.59 313.206 221.563 313.206 221.049 313.462L217.454 315.503L218.225 312.696C218.481 311.931 217.968 311.165 217.197 310.91C216.427 310.655 215.657 311.165 215.657 311.931L214.886 315.248C214.63 316.779 213.603 317.799 212.319 318.565C211.035 319.33 209.494 319.33 208.21 318.565L207.954 318.31C206.67 317.544 205.899 316.268 205.899 314.737C205.899 313.206 206.413 311.675 207.697 310.655L210.008 308.358C210.521 307.848 210.521 307.083 210.008 306.317C209.494 305.807 208.724 305.807 208.21 306.317L206.156 308.358V304.276C206.156 303.51 205.643 303 204.872 303C204.102 303 203.588 303.51 203.588 304.276V308.613L201.534 306.572C201.021 306.062 200.25 306.062 199.737 306.572C199.223 307.083 199.223 307.848 199.737 308.613L201.021 310.655C202.048 311.675 202.818 313.206 202.818 314.737C202.818 316.268 202.048 317.544 200.764 318.31L200.507 318.565C199.223 319.33 197.683 319.33 196.399 318.565C195.115 317.799 194.088 316.523 193.831 315.248L192.547 311.931C192.29 311.165 191.52 310.655 190.75 310.91C190.236 311.165 189.723 311.931 189.979 312.696L190.75 315.503L187.155 313.462C186.385 312.951 185.614 313.206 185.101 313.972C184.844 314.482 185.101 315.503 185.614 315.758L189.209 317.799L186.385 318.565C185.614 318.82 185.101 319.585 185.358 320.351C185.614 320.861 186.128 321.371 186.641 321.371C186.898 321.371 186.641 321.371 190.236 320.351C191.777 319.84 193.317 320.096 194.601 320.861C195.885 321.627 196.656 322.902 196.656 324.433V324.944C196.656 326.475 195.885 327.75 194.601 328.516C193.317 329.281 191.777 329.537 190.236 329.026L187.155 328.516C186.385 328.261 185.614 328.771 185.614 329.537C185.358 330.302 185.871 331.067 186.641 331.323L189.466 332.088L185.871 334.129C184.587 334.895 185.101 336.681 186.641 336.681C187.155 336.681 186.898 336.681 191.007 334.385L190.236 337.191C189.979 337.957 190.493 338.722 191.263 338.977C192.034 339.233 192.804 338.722 192.804 337.957L193.574 334.64C193.831 333.109 194.858 332.088 196.142 331.323C197.426 330.557 198.967 330.557 200.25 331.323L200.507 331.578C201.791 332.343 202.561 333.619 202.561 335.15C202.561 336.681 202.048 338.212 200.764 339.233L198.71 341.274C198.196 341.784 198.196 342.55 198.71 343.315C199.223 343.825 199.994 343.825 200.507 343.315L202.561 341.274V345.612C202.561 346.377 203.075 346.887 203.845 346.887C204.616 346.887 205.129 346.377 205.129 345.612V341.274L207.183 343.315C207.44 343.57 207.697 343.825 208.21 343.825C209.494 343.825 210.008 342.294 209.237 341.529L206.926 339.233C205.899 338.212 205.129 336.681 205.129 335.15C205.129 333.619 205.899 332.343 207.183 331.578L207.44 331.323C208.724 330.557 210.265 330.557 211.548 331.323C212.832 332.088 213.859 333.364 214.116 334.64L214.886 337.957C215.143 338.467 215.657 338.977 216.17 338.977C216.941 338.977 217.711 338.212 217.454 337.191L216.684 334.385L220.279 336.426C221.049 336.681 221.819 336.681 222.076 335.915C223.103 335.15 223.103 334.385 222.333 333.874ZM208.467 324.944C208.467 326.475 207.697 328.006 206.156 328.771C204.616 329.537 203.075 329.537 201.534 328.771C200.25 328.006 199.223 326.475 199.223 324.944C199.223 323.413 199.994 321.882 201.534 321.116C203.075 320.351 204.616 320.351 206.156 321.116C207.697 321.627 208.467 323.158 208.467 324.944Z" fill="white"/>
<path d="M166.333 333.874L162.738 331.833L165.563 331.067C166.333 330.812 166.846 330.047 166.59 329.281C166.333 328.516 165.563 328.006 165.049 328.261L161.968 329.026C160.427 329.537 158.886 329.281 157.603 328.516C156.319 327.75 155.548 326.475 155.548 324.944V324.433C155.548 322.902 156.319 321.627 157.603 320.861C158.886 320.096 160.427 319.84 161.968 320.351C165.563 321.371 165.306 321.371 165.563 321.371C166.076 321.371 166.59 320.861 166.846 320.351C167.103 319.585 166.59 318.82 165.819 318.565L162.995 317.799L166.333 315.758C167.103 315.503 167.103 314.482 166.846 313.972C166.59 313.206 165.563 313.206 165.049 313.462L161.454 315.503L162.225 312.696C162.481 311.931 161.968 311.165 161.197 310.91C160.427 310.655 159.657 311.165 159.657 311.931L158.886 315.248C158.63 316.779 157.603 317.799 156.319 318.565C155.035 319.33 153.494 319.33 152.21 318.565L151.954 318.31C150.67 317.544 149.899 316.268 149.899 314.737C149.899 313.206 150.413 311.675 151.697 310.655L154.008 308.358C154.521 307.848 154.521 307.083 154.008 306.317C153.494 305.807 152.724 305.807 152.21 306.317L150.156 308.358V304.276C150.156 303.51 149.643 303 148.872 303C148.102 303 147.588 303.51 147.588 304.276V308.613L145.534 306.572C145.021 306.062 144.25 306.062 143.737 306.572C143.223 307.083 143.223 307.848 143.737 308.613L145.021 310.655C146.048 311.675 146.818 313.206 146.818 314.737C146.818 316.268 146.048 317.544 144.764 318.31L144.507 318.565C143.223 319.33 141.683 319.33 140.399 318.565C139.115 317.799 138.088 316.523 137.831 315.248L136.547 311.931C136.29 311.165 135.52 310.655 134.75 310.91C134.236 311.165 133.723 311.931 133.979 312.696L134.75 315.503L131.155 313.462C130.385 312.951 129.614 313.206 129.101 313.972C128.844 314.482 129.101 315.503 129.614 315.758L133.209 317.799L130.385 318.565C129.614 318.82 129.101 319.585 129.358 320.351C129.614 320.861 130.128 321.371 130.641 321.371C130.898 321.371 130.641 321.371 134.236 320.351C135.777 319.84 137.317 320.096 138.601 320.861C139.885 321.627 140.656 322.902 140.656 324.433V324.944C140.656 326.475 139.885 327.75 138.601 328.516C137.317 329.281 135.777 329.537 134.236 329.026L131.155 328.516C130.385 328.261 129.614 328.771 129.614 329.537C129.358 330.302 129.871 331.067 130.641 331.323L133.466 332.088L129.871 334.129C128.587 334.895 129.101 336.681 130.641 336.681C131.155 336.681 130.898 336.681 135.007 334.385L134.236 337.191C133.979 337.957 134.493 338.722 135.263 338.977C136.034 339.233 136.804 338.722 136.804 337.957L137.574 334.64C137.831 333.109 138.858 332.088 140.142 331.323C141.426 330.557 142.967 330.557 144.25 331.323L144.507 331.578C145.791 332.343 146.561 333.619 146.561 335.15C146.561 336.681 146.048 338.212 144.764 339.233L142.71 341.274C142.196 341.784 142.196 342.55 142.71 343.315C143.223 343.825 143.994 343.825 144.507 343.315L146.561 341.274V345.612C146.561 346.377 147.075 346.887 147.845 346.887C148.616 346.887 149.129 346.377 149.129 345.612V341.274L151.183 343.315C151.44 343.57 151.697 343.825 152.21 343.825C153.494 343.825 154.008 342.294 153.237 341.529L150.926 339.233C149.899 338.212 149.129 336.681 149.129 335.15C149.129 333.619 149.899 332.343 151.183 331.578L151.44 331.323C152.724 330.557 154.265 330.557 155.548 331.323C156.832 332.088 157.859 333.364 158.116 334.64L158.886 337.957C159.143 338.467 159.657 338.977 160.17 338.977C160.941 338.977 161.711 338.212 161.454 337.191L160.684 334.385L164.279 336.426C165.049 336.681 165.819 336.681 166.076 335.915C167.103 335.15 167.103 334.385 166.333 333.874ZM152.467 324.944C152.467 326.475 151.697 328.006 150.156 328.771C148.616 329.537 147.075 329.537 145.534 328.771C144.25 328.006 143.223 326.475 143.223 324.944C143.223 323.413 143.994 321.882 145.534 321.116C147.075 320.351 148.616 320.351 150.156 321.116C151.697 321.627 152.467 323.158 152.467 324.944Z" fill="white"/>
</g>
<defs>
<filter id="filter0_bdd_130_1527" x="114.467" y="0.0762939" width="232.434" height="231.793" filterUnits="userSpaceOnUse" color-interpolation-filters="sRGB">
<feFlood flood-opacity="0" result="BackgroundImageFix"/>
<feGaussianBlur in="BackgroundImageFix" stdDeviation="7"/>
<feComposite in2="SourceAlpha" operator="in" result="effect1_backgroundBlur_130_1527"/>
<feColorMatrix in="SourceAlpha" type="matrix" values="0 0 0 0 0 0 0 0 0 0 0 0 0 0 0 0 0 0 127 0" result="hardAlpha"/>
<feOffset dx="-21" dy="15"/>
<feGaussianBlur stdDeviation="25"/>
<feComposite in2="hardAlpha" operator="out"/>
<feColorMatrix type="matrix" values="0 0 0 0 0.113438 0 0 0 0 0.148981 0 0 0 0 0.275 0 0 0 0.25 0"/>
<feBlend mode="normal" in2="effect1_backgroundBlur_130_1527" result="effect2_dropShadow_130_1527"/>
<feColorMatrix in="SourceAlpha" type="matrix" values="0 0 0 0 0 0 0 0 0 0 0 0 0 0 0 0 0 0 127 0" result="hardAlpha"/>
<feOffset/>
<feGaussianBlur stdDeviation="19"/>
<feComposite in2="hardAlpha" operator="out"/>
<feColorMatrix type="matrix" values="0 0 0 0 0.619608 0 0 0 0 0.423529 0 0 0 0 1 0 0 0 0.4 0"/>
<feBlend mode="normal" in2="effect2_dropShadow_130_1527" result="effect3_dropShadow_130_1527"/>
<feBlend mode="normal" in="SourceGraphic" in2="effect3_dropShadow_130_1527" result="shape"/>
</filter>
<filter id="filter1_bd_130_1527" x="0" y="76.9999" width="338" height="261" filterUnits="userSpaceOnUse" color-interpolation-filters="sRGB">
<feFlood flood-opacity="0" result="BackgroundImageFix"/>
<feGaussianBlur in="BackgroundImageFix" stdDeviation="7"/>
<feComposite in2="SourceAlpha" operator="in" result="effect1_backgroundBlur_130_1527"/>
<feColorMatrix in="SourceAlpha" type="matrix" values="0 0 0 0 0 0 0 0 0 0 0 0 0 0 0 0 0 0 127 0" result="hardAlpha"/>
<feOffset dx="-21" dy="15"/>
<feGaussianBlur stdDeviation="25"/>
<feComposite in2="hardAlpha" operator="out"/>
<feColorMatrix type="matrix" values="0 0 0 0 0.113725 0 0 0 0 0.14902 0 0 0 0 0.27451 0 0 0 0.25 0"/>
<feBlend mode="normal" in2="effect1_backgroundBlur_130_1527" result="effect2_dropShadow_130_1527"/>
<feBlend mode="normal" in="SourceGraphic" in2="effect2_dropShadow_130_1527" result="shape"/>
</filter>
<filter id="filter2_bd_130_1527" x="132" y="76.9999" width="272" height="216.353" filterUnits="userSpaceOnUse" color-interpolation-filters="sRGB">
<feFlood flood-opacity="0" result="BackgroundImageFix"/>
<feGaussianBlur in="BackgroundImageFix" stdDeviation="7"/>
<feComposite in2="SourceAlpha" operator="in" result="effect1_backgroundBlur_130_1527"/>
<feColorMatrix in="SourceAlpha" type="matrix" values="0 0 0 0 0 0 0 0 0 0 0 0 0 0 0 0 0 0 127 0" result="hardAlpha"/>
<feOffset dx="-21" dy="15"/>
<feGaussianBlur stdDeviation="25"/>
<feComposite in2="hardAlpha" operator="out"/>
<feColorMatrix type="matrix" values="0 0 0 0 0.113438 0 0 0 0 0.148981 0 0 0 0 0.275 0 0 0 0.25 0"/>
<feBlend mode="normal" in2="effect1_backgroundBlur_130_1527" result="effect2_dropShadow_130_1527"/>
<feBlend mode="normal" in="SourceGraphic" in2="effect2_dropShadow_130_1527" result="shape"/>
</filter>
<filter id="filter3_bdd_130_1527" x="39" y="209" width="269" height="156.887" filterUnits="userSpaceOnUse" color-interpolation-filters="sRGB">
<feFlood flood-opacity="0" result="BackgroundImageFix"/>
<feGaussianBlur in="BackgroundImageFix" stdDeviation="7"/>
<feComposite in2="SourceAlpha" operator="in" result="effect1_backgroundBlur_130_1527"/>
<feColorMatrix in="SourceAlpha" type="matrix" values="0 0 0 0 0 0 0 0 0 0 0 0 0 0 0 0 0 0 127 0" result="hardAlpha"/>
<feOffset dx="-21" dy="15"/>
<feGaussianBlur stdDeviation="25"/>
<feComposite in2="hardAlpha" operator="out"/>
<feColorMatrix type="matrix" values="0 0 0 0 0.113438 0 0 0 0 0.148981 0 0 0 0 0.275 0 0 0 0.25 0"/>
<feBlend mode="normal" in2="effect1_backgroundBlur_130_1527" result="effect2_dropShadow_130_1527"/>
<feColorMatrix in="SourceAlpha" type="matrix" values="0 0 0 0 0 0 0 0 0 0 0 0 0 0 0 0 0 0 127 0" result="hardAlpha"/>
<feOffset dy="-7"/>
<feGaussianBlur stdDeviation="20.5"/>
<feComposite in2="hardAlpha" operator="out"/>
<feColorMatrix type="matrix" values="0 0 0 0 0.1375 0 0 0 0 0.74125 0 0 0 0 1 0 0 0 0.3 0"/>
<feBlend mode="normal" in2="effect2_dropShadow_130_1527" result="effect3_dropShadow_130_1527"/>
<feBlend mode="normal" in="SourceGraphic" in2="effect3_dropShadow_130_1527" result="shape"/>
</filter>
<filter id="filter4_bdd_130_1527" x="58" y="255" width="206" height="156.887" filterUnits="userSpaceOnUse" color-interpolation-filters="sRGB">
<feFlood flood-opacity="0" result="BackgroundImageFix"/>
<feGaussianBlur in="BackgroundImageFix" stdDeviation="7"/>
<feComposite in2="SourceAlpha" operator="in" result="effect1_backgroundBlur_130_1527"/>
<feColorMatrix in="SourceAlpha" type="matrix" values="0 0 0 0 0 0 0 0 0 0 0 0 0 0 0 0 0 0 127 0" result="hardAlpha"/>
<feOffset dx="-21" dy="15"/>
<feGaussianBlur stdDeviation="25"/>
<feComposite in2="hardAlpha" operator="out"/>
<feColorMatrix type="matrix" values="0 0 0 0 0.113438 0 0 0 0 0.148981 0 0 0 0 0.275 0 0 0 0.25 0"/>
<feBlend mode="normal" in2="effect1_backgroundBlur_130_1527" result="effect2_dropShadow_130_1527"/>
<feColorMatrix in="SourceAlpha" type="matrix" values="0 0 0 0 0 0 0 0 0 0 0 0 0 0 0 0 0 0 127 0" result="hardAlpha"/>
<feOffset dy="-7"/>
<feGaussianBlur stdDeviation="20.5"/>
<feComposite in2="hardAlpha" operator="out"/>
<feColorMatrix type="matrix" values="0 0 0 0 0.1375 0 0 0 0 0.74125 0 0 0 0 1 0 0 0 0.3 0"/>
<feBlend mode="normal" in2="effect2_dropShadow_130_1527" result="effect3_dropShadow_130_1527"/>
<feBlend mode="normal" in="SourceGraphic" in2="effect3_dropShadow_130_1527" result="shape"/>
</filter>
<linearGradient id="paint0_linear_130_1527" x1="208.067" y1="52.1082" x2="267.39" y2="167.44" gradientUnits="userSpaceOnUse">
<stop offset="0.0001" stop-color="#D4C0FF"/>
<stop offset="1" stop-color="#7E2FFF"/>
</linearGradient>
<linearGradient id="paint1_linear_130_1527" x1="214.197" y1="-11.1398" x2="250.703" y2="140.225" gradientUnits="userSpaceOnUse">
<stop stop-color="white"/>
<stop offset="1" stop-color="white" stop-opacity="0"/>
</linearGradient>
<linearGradient id="paint2_linear_130_1527" x1="190" y1="60.4999" x2="190" y2="295.5" gradientUnits="userSpaceOnUse">
<stop stop-color="white"/>
<stop offset="1" stop-color="white" stop-opacity="0"/>
</linearGradient>
<linearGradient id="paint3_linear_130_1527" x1="190" y1="112" x2="190" y2="273" gradientUnits="userSpaceOnUse">
<stop stop-color="white"/>
<stop offset="1" stop-color="white" stop-opacity="0"/>
</linearGradient>
<linearGradient id="paint4_linear_130_1527" x1="297" y1="115.5" x2="297" y2="241.5" gradientUnits="userSpaceOnUse">
<stop stop-color="white"/>
<stop offset="1" stop-color="white" stop-opacity="0"/>
</linearGradient>
<linearGradient id="paint5_linear_130_1527" x1="289" y1="112" x2="289" y2="228.353" gradientUnits="userSpaceOnUse">
<stop stop-color="white"/>
<stop offset="1" stop-color="white" stop-opacity="0"/>
</linearGradient>
</defs>
</svg>
