<svg width="404" height="319" viewBox="0 0 404 319" fill="none" xmlns="http://www.w3.org/2000/svg">
<g filter="url(#filter0_bd_130_1505)">
<mask id="path-1-inside-1_130_1505" fill="white">
<path fill-rule="evenodd" clip-rule="evenodd" d="M265.5 195.997C265.666 195.999 265.833 196 266 196C289.748 196 309 176.748 309 153C309 129.252 289.748 110 266 110C265.833 110 265.666 110.001 265.5 110.003V110H254.391C254.793 107.057 255 104.053 255 101C255 64.5492 225.451 35 189 35C152.549 35 123 64.5492 123 101C123 104.439 123.263 107.817 123.77 111.115C120.631 110.386 117.361 110 114 110C90.2518 110 71 129.252 71 153C71 176.748 90.2518 196 114 196C114.168 196 114.335 195.999 114.502 195.997L114.5 196H265.5V195.997Z"/>
</mask>
<path fill-rule="evenodd" clip-rule="evenodd" d="M265.5 195.997C265.666 195.999 265.833 196 266 196C289.748 196 309 176.748 309 153C309 129.252 289.748 110 266 110C265.833 110 265.666 110.001 265.5 110.003V110H254.391C254.793 107.057 255 104.053 255 101C255 64.5492 225.451 35 189 35C152.549 35 123 64.5492 123 101C123 104.439 123.263 107.817 123.77 111.115C120.631 110.386 117.361 110 114 110C90.2518 110 71 129.252 71 153C71 176.748 90.2518 196 114 196C114.168 196 114.335 195.999 114.502 195.997L114.5 196H265.5V195.997Z" fill="url(#paint0_linear_130_1505)" shape-rendering="crispEdges"/>
<path d="M265.5 195.997L265.523 193.997C264.988 193.991 264.474 194.199 264.094 194.575C263.714 194.951 263.5 195.463 263.5 195.997H265.5ZM265.5 110.003H263.5C263.5 110.537 263.714 111.049 264.094 111.425C264.474 111.801 264.988 112.009 265.523 112.003L265.5 110.003ZM265.5 110H267.5C267.5 108.895 266.605 108 265.5 108V110ZM254.391 110L252.41 109.73C252.332 110.302 252.505 110.88 252.885 111.315C253.265 111.75 253.814 112 254.391 112V110ZM123.77 111.115L123.318 113.063C123.964 113.213 124.643 113.033 125.13 112.582C125.617 112.13 125.848 111.467 125.747 110.811L123.77 111.115ZM114.502 195.997L116.072 197.237C116.549 196.632 116.637 195.807 116.297 195.115C115.957 194.423 115.25 193.988 114.479 193.997L114.502 195.997ZM114.5 196L112.931 194.76C112.455 195.362 112.366 196.182 112.7 196.872C113.034 197.562 113.733 198 114.5 198V196ZM265.5 196V198C266.605 198 267.5 197.105 267.5 196H265.5ZM265.477 197.997C265.651 197.999 265.825 198 266 198V194C265.841 194 265.682 193.999 265.523 193.997L265.477 197.997ZM266 198C290.853 198 311 177.853 311 153H307C307 175.644 288.644 194 266 194V198ZM311 153C311 128.147 290.853 108 266 108V112C288.644 112 307 130.356 307 153H311ZM266 108C265.826 108 265.651 108.001 265.477 108.003L265.523 112.003C265.682 112.001 265.841 112 266 112V108ZM263.5 110V110.003H267.5V110H263.5ZM254.391 112H265.5V108H254.391V112ZM256.373 110.27C256.787 107.238 257 104.143 257 101H253C253 103.962 252.799 106.876 252.41 109.73L256.373 110.27ZM257 101C257 63.4446 226.555 33 189 33V37C224.346 37 253 65.6538 253 101H257ZM189 33C151.445 33 121 63.4446 121 101H125C125 65.6538 153.654 37 189 37V33ZM121 101C121 104.542 121.271 108.021 121.793 111.419L125.747 110.811C125.255 107.614 125 104.337 125 101H121ZM124.223 109.167C120.937 108.403 117.514 108 114 108V112C117.207 112 120.326 112.368 123.318 113.063L124.223 109.167ZM114 108C89.1472 108 69 128.147 69 153H73C73 130.356 91.3563 112 114 112V108ZM69 153C69 177.853 89.1472 198 114 198V194C91.3563 194 73 175.644 73 153H69ZM114 198C114.175 198 114.35 197.999 114.525 197.997L114.479 193.997C114.32 193.999 114.16 194 114 194V198ZM116.069 197.24L116.072 197.237L112.933 194.757L112.931 194.76L116.069 197.24ZM265.5 194H114.5V198H265.5V194ZM263.5 195.997V196H267.5V195.997H263.5Z" fill="url(#paint1_linear_130_1505)" mask="url(#path-1-inside-1_130_1505)"/>
</g>
<g filter="url(#filter1_bd_130_1505)">
<mask id="path-3-inside-2_130_1505" fill="white">
<path fill-rule="evenodd" clip-rule="evenodd" d="M343.563 151.351C343.683 151.352 343.804 151.353 343.924 151.353C361.087 151.353 375 137.44 375 120.277C375 103.115 361.087 89.2017 343.924 89.2017C343.804 89.2017 343.683 89.2024 343.563 89.2037V89.2017H335.535C335.825 87.075 335.975 84.9037 335.975 82.6975C335.975 56.3549 314.62 35 288.277 35C261.935 35 240.58 56.3549 240.58 82.6975C240.58 85.1831 240.77 87.6243 241.136 90.0074C238.868 89.4803 236.504 89.2017 234.076 89.2017C216.913 89.2017 203 103.115 203 120.277C203 137.44 216.913 151.353 234.076 151.353C234.197 151.353 234.318 151.352 234.439 151.351L234.437 151.353H343.563V151.351Z"/>
</mask>
<path fill-rule="evenodd" clip-rule="evenodd" d="M343.563 151.351C343.683 151.352 343.804 151.353 343.924 151.353C361.087 151.353 375 137.44 375 120.277C375 103.115 361.087 89.2017 343.924 89.2017C343.804 89.2017 343.683 89.2024 343.563 89.2037V89.2017H335.535C335.825 87.075 335.975 84.9037 335.975 82.6975C335.975 56.3549 314.62 35 288.277 35C261.935 35 240.58 56.3549 240.58 82.6975C240.58 85.1831 240.77 87.6243 241.136 90.0074C238.868 89.4803 236.504 89.2017 234.076 89.2017C216.913 89.2017 203 103.115 203 120.277C203 137.44 216.913 151.353 234.076 151.353C234.197 151.353 234.318 151.352 234.439 151.351L234.437 151.353H343.563V151.351Z" fill="url(#paint2_linear_130_1505)" shape-rendering="crispEdges"/>
<path d="M343.563 151.351L343.586 149.351C343.052 149.345 342.537 149.553 342.157 149.929C341.777 150.304 341.563 150.816 341.563 151.351H343.563ZM343.563 89.2037H341.563C341.563 89.7381 341.777 90.2503 342.157 90.626C342.537 91.0017 343.051 91.2097 343.586 91.2036L343.563 89.2037ZM343.563 89.2017H345.563C345.563 88.0971 344.668 87.2017 343.563 87.2017V89.2017ZM335.535 89.2017L333.553 88.9315C333.475 89.5037 333.649 90.0818 334.028 90.5169C334.408 90.952 334.957 91.2017 335.535 91.2017V89.2017ZM241.136 90.0074L240.684 91.9555C241.33 92.1057 242.009 91.9253 242.496 91.4741C242.983 91.0228 243.214 90.3594 243.113 89.7033L241.136 90.0074ZM234.439 151.351L236.008 152.59C236.486 151.985 236.573 151.16 236.233 150.468C235.893 149.777 235.186 149.342 234.416 149.351L234.439 151.351ZM234.437 151.353L232.867 150.114C232.392 150.715 232.303 151.535 232.637 152.225C232.971 152.915 233.67 153.353 234.437 153.353V151.353ZM343.563 151.353V153.353C344.668 153.353 345.563 152.458 345.563 151.353H343.563ZM343.54 153.351C343.668 153.352 343.796 153.353 343.924 153.353V149.353C343.811 149.353 343.699 149.352 343.586 149.351L343.54 153.351ZM343.924 153.353C362.192 153.353 377 138.544 377 120.277H373C373 136.335 359.982 149.353 343.924 149.353V153.353ZM377 120.277C377 102.01 362.192 87.2017 343.924 87.2017V91.2017C359.982 91.2017 373 104.219 373 120.277H377ZM343.924 87.2017C343.796 87.2017 343.668 87.2024 343.54 87.2039L343.586 91.2036C343.699 91.2023 343.811 91.2017 343.924 91.2017V87.2017ZM341.563 89.2017V89.2037H345.563V89.2017H341.563ZM335.535 91.2017H343.563V87.2017H335.535V91.2017ZM337.517 89.4719C337.819 87.2559 337.975 84.9944 337.975 82.6975H333.975C333.975 84.8131 333.831 86.8941 333.553 88.9315L337.517 89.4719ZM337.975 82.6975C337.975 55.2503 315.724 33 288.277 33V37C313.515 37 333.975 57.4595 333.975 82.6975H337.975ZM288.277 33C260.83 33 238.58 55.2503 238.58 82.6975H242.58C242.58 57.4595 263.039 37 288.277 37V33ZM238.58 82.6975C238.58 85.2852 238.778 87.8281 239.16 90.3114L243.113 89.7033C242.762 87.4205 242.58 85.081 242.58 82.6975H238.58ZM241.589 88.0592C239.173 87.498 236.658 87.2017 234.076 87.2017V91.2017C236.351 91.2017 238.563 91.4627 240.684 91.9555L241.589 88.0592ZM234.076 87.2017C215.808 87.2017 201 102.01 201 120.277H205C205 104.219 218.018 91.2017 234.076 91.2017V87.2017ZM201 120.277C201 138.544 215.808 153.353 234.076 153.353V149.353C218.018 149.353 205 136.335 205 120.277H201ZM234.076 153.353C234.204 153.353 234.333 153.352 234.461 153.351L234.416 149.351C234.303 149.352 234.189 149.353 234.076 149.353V153.353ZM236.007 152.592L236.008 152.59L232.869 150.112L232.867 150.114L236.007 152.592ZM343.563 149.353H234.437V153.353H343.563V149.353ZM341.563 151.351V151.353H345.563V151.351H341.563Z" fill="url(#paint3_linear_130_1505)" mask="url(#path-3-inside-2_130_1505)"/>
</g>
<g filter="url(#filter2_bdd_130_1505)">
<path d="M183.333 194.874L179.738 192.833L182.563 192.067C183.333 191.812 183.846 191.047 183.59 190.281C183.333 189.516 182.563 189.006 182.049 189.261L178.968 190.026C177.427 190.537 175.886 190.281 174.603 189.516C173.319 188.75 172.548 187.475 172.548 185.944V185.433C172.548 183.902 173.319 182.627 174.603 181.861C175.886 181.096 177.427 180.84 178.968 181.351C182.563 182.371 182.306 182.371 182.563 182.371C183.076 182.371 183.59 181.861 183.846 181.351C184.103 180.585 183.59 179.82 182.819 179.565L179.995 178.799L183.333 176.758C184.103 176.503 184.103 175.482 183.846 174.972C183.59 174.206 182.563 174.206 182.049 174.462L178.454 176.503L179.225 173.696C179.481 172.931 178.968 172.165 178.197 171.91C177.427 171.655 176.657 172.165 176.657 172.931L175.886 176.248C175.63 177.779 174.603 178.799 173.319 179.565C172.035 180.33 170.494 180.33 169.21 179.565L168.954 179.31C167.67 178.544 166.899 177.268 166.899 175.737C166.899 174.206 167.413 172.675 168.697 171.655L171.008 169.358C171.521 168.848 171.521 168.083 171.008 167.317C170.494 166.807 169.724 166.807 169.21 167.317L167.156 169.358V165.276C167.156 164.51 166.643 164 165.872 164C165.102 164 164.588 164.51 164.588 165.276V169.613L162.534 167.572C162.021 167.062 161.25 167.062 160.737 167.572C160.223 168.083 160.223 168.848 160.737 169.613L162.021 171.655C163.048 172.675 163.818 174.206 163.818 175.737C163.818 177.268 163.048 178.544 161.764 179.31L161.507 179.565C160.223 180.33 158.683 180.33 157.399 179.565C156.115 178.799 155.088 177.523 154.831 176.248L153.547 172.931C153.29 172.165 152.52 171.655 151.75 171.91C151.236 172.165 150.723 172.931 150.979 173.696L151.75 176.503L148.155 174.462C147.385 173.951 146.614 174.206 146.101 174.972C145.844 175.482 146.101 176.503 146.614 176.758L150.209 178.799L147.385 179.565C146.614 179.82 146.101 180.585 146.358 181.351C146.614 181.861 147.128 182.371 147.641 182.371C147.898 182.371 147.641 182.371 151.236 181.351C152.777 180.84 154.317 181.096 155.601 181.861C156.885 182.627 157.656 183.902 157.656 185.433V185.944C157.656 187.475 156.885 188.75 155.601 189.516C154.317 190.281 152.777 190.537 151.236 190.026L148.155 189.516C147.385 189.261 146.614 189.771 146.614 190.537C146.358 191.302 146.871 192.067 147.641 192.323L150.466 193.088L146.871 195.129C145.587 195.895 146.101 197.681 147.641 197.681C148.155 197.681 147.898 197.681 152.007 195.385L151.236 198.191C150.979 198.957 151.493 199.722 152.263 199.977C153.034 200.233 153.804 199.722 153.804 198.957L154.574 195.64C154.831 194.109 155.858 193.088 157.142 192.323C158.426 191.557 159.967 191.557 161.25 192.323L161.507 192.578C162.791 193.343 163.561 194.619 163.561 196.15C163.561 197.681 163.048 199.212 161.764 200.233L159.71 202.274C159.196 202.784 159.196 203.55 159.71 204.315C160.223 204.825 160.994 204.825 161.507 204.315L163.561 202.274V206.612C163.561 207.377 164.075 207.887 164.845 207.887C165.616 207.887 166.129 207.377 166.129 206.612V202.274L168.183 204.315C168.44 204.57 168.697 204.825 169.21 204.825C170.494 204.825 171.008 203.294 170.237 202.529L167.926 200.233C166.899 199.212 166.129 197.681 166.129 196.15C166.129 194.619 166.899 193.343 168.183 192.578L168.44 192.323C169.724 191.557 171.265 191.557 172.548 192.323C173.832 193.088 174.859 194.364 175.116 195.64L175.886 198.957C176.143 199.467 176.657 199.977 177.17 199.977C177.941 199.977 178.711 199.212 178.454 198.191L177.684 195.385L181.279 197.426C182.049 197.681 182.819 197.681 183.076 196.915C184.103 196.15 184.103 195.385 183.333 194.874ZM169.467 185.944C169.467 187.475 168.697 189.006 167.156 189.771C165.616 190.537 164.075 190.537 162.534 189.771C161.25 189.006 160.223 187.475 160.223 185.944C160.223 184.413 160.994 182.882 162.534 182.116C164.075 181.351 165.616 181.351 167.156 182.116C168.697 182.627 169.467 184.158 169.467 185.944Z" fill="white"/>
<path d="M241.333 194.874L237.738 192.833L240.563 192.067C241.333 191.812 241.846 191.047 241.59 190.281C241.333 189.516 240.563 189.006 240.049 189.261L236.968 190.026C235.427 190.537 233.886 190.281 232.603 189.516C231.319 188.75 230.548 187.475 230.548 185.944V185.433C230.548 183.902 231.319 182.627 232.603 181.861C233.886 181.096 235.427 180.84 236.968 181.351C240.563 182.371 240.306 182.371 240.563 182.371C241.076 182.371 241.59 181.861 241.846 181.351C242.103 180.585 241.59 179.82 240.819 179.565L237.995 178.799L241.333 176.758C242.103 176.503 242.103 175.482 241.846 174.972C241.59 174.206 240.563 174.206 240.049 174.462L236.454 176.503L237.225 173.696C237.481 172.931 236.968 172.165 236.197 171.91C235.427 171.655 234.657 172.165 234.657 172.931L233.886 176.248C233.63 177.779 232.603 178.799 231.319 179.565C230.035 180.33 228.494 180.33 227.21 179.565L226.954 179.31C225.67 178.544 224.899 177.268 224.899 175.737C224.899 174.206 225.413 172.675 226.697 171.655L229.008 169.358C229.521 168.848 229.521 168.083 229.008 167.317C228.494 166.807 227.724 166.807 227.21 167.317L225.156 169.358V165.276C225.156 164.51 224.643 164 223.872 164C223.102 164 222.588 164.51 222.588 165.276V169.613L220.534 167.572C220.021 167.062 219.25 167.062 218.737 167.572C218.223 168.083 218.223 168.848 218.737 169.613L220.021 171.655C221.048 172.675 221.818 174.206 221.818 175.737C221.818 177.268 221.048 178.544 219.764 179.31L219.507 179.565C218.223 180.33 216.683 180.33 215.399 179.565C214.115 178.799 213.088 177.523 212.831 176.248L211.547 172.931C211.29 172.165 210.52 171.655 209.75 171.91C209.236 172.165 208.723 172.931 208.979 173.696L209.75 176.503L206.155 174.462C205.385 173.951 204.614 174.206 204.101 174.972C203.844 175.482 204.101 176.503 204.614 176.758L208.209 178.799L205.385 179.565C204.614 179.82 204.101 180.585 204.358 181.351C204.614 181.861 205.128 182.371 205.641 182.371C205.898 182.371 205.641 182.371 209.236 181.351C210.777 180.84 212.317 181.096 213.601 181.861C214.885 182.627 215.656 183.902 215.656 185.433V185.944C215.656 187.475 214.885 188.75 213.601 189.516C212.317 190.281 210.777 190.537 209.236 190.026L206.155 189.516C205.385 189.261 204.614 189.771 204.614 190.537C204.358 191.302 204.871 192.067 205.641 192.323L208.466 193.088L204.871 195.129C203.587 195.895 204.101 197.681 205.641 197.681C206.155 197.681 205.898 197.681 210.007 195.385L209.236 198.191C208.979 198.957 209.493 199.722 210.263 199.977C211.034 200.233 211.804 199.722 211.804 198.957L212.574 195.64C212.831 194.109 213.858 193.088 215.142 192.323C216.426 191.557 217.967 191.557 219.25 192.323L219.507 192.578C220.791 193.343 221.561 194.619 221.561 196.15C221.561 197.681 221.048 199.212 219.764 200.233L217.71 202.274C217.196 202.784 217.196 203.55 217.71 204.315C218.223 204.825 218.994 204.825 219.507 204.315L221.561 202.274V206.612C221.561 207.377 222.075 207.887 222.845 207.887C223.616 207.887 224.129 207.377 224.129 206.612V202.274L226.183 204.315C226.44 204.57 226.697 204.825 227.21 204.825C228.494 204.825 229.008 203.294 228.237 202.529L225.926 200.233C224.899 199.212 224.129 197.681 224.129 196.15C224.129 194.619 224.899 193.343 226.183 192.578L226.44 192.323C227.724 191.557 229.265 191.557 230.548 192.323C231.832 193.088 232.859 194.364 233.116 195.64L233.886 198.957C234.143 199.467 234.657 199.977 235.17 199.977C235.941 199.977 236.711 199.212 236.454 198.191L235.684 195.385L239.279 197.426C240.049 197.681 240.819 197.681 241.076 196.915C242.103 196.15 242.103 195.385 241.333 194.874ZM227.467 185.944C227.467 187.475 226.697 189.006 225.156 189.771C223.616 190.537 222.075 190.537 220.534 189.771C219.25 189.006 218.223 187.475 218.223 185.944C218.223 184.413 218.994 182.882 220.534 182.116C222.075 181.351 223.616 181.351 225.156 182.116C226.697 182.627 227.467 184.158 227.467 185.944Z" fill="white"/>
<path d="M299.333 196.874L295.738 194.833L298.563 194.067C299.333 193.812 299.846 193.047 299.59 192.281C299.333 191.516 298.563 191.006 298.049 191.261L294.968 192.026C293.427 192.537 291.886 192.281 290.603 191.516C289.319 190.75 288.548 189.475 288.548 187.944V187.433C288.548 185.902 289.319 184.627 290.603 183.861C291.886 183.096 293.427 182.84 294.968 183.351C298.563 184.371 298.306 184.371 298.563 184.371C299.076 184.371 299.59 183.861 299.846 183.351C300.103 182.585 299.59 181.82 298.819 181.565L295.995 180.799L299.333 178.758C300.103 178.503 300.103 177.482 299.846 176.972C299.59 176.206 298.563 176.206 298.049 176.462L294.454 178.503L295.225 175.696C295.481 174.931 294.968 174.165 294.197 173.91C293.427 173.655 292.657 174.165 292.657 174.931L291.886 178.248C291.63 179.779 290.603 180.799 289.319 181.565C288.035 182.33 286.494 182.33 285.21 181.565L284.954 181.31C283.67 180.544 282.899 179.268 282.899 177.737C282.899 176.206 283.413 174.675 284.697 173.655L287.008 171.358C287.521 170.848 287.521 170.083 287.008 169.317C286.494 168.807 285.724 168.807 285.21 169.317L283.156 171.358V167.276C283.156 166.51 282.643 166 281.872 166C281.102 166 280.588 166.51 280.588 167.276V171.613L278.534 169.572C278.021 169.062 277.25 169.062 276.737 169.572C276.223 170.083 276.223 170.848 276.737 171.613L278.021 173.655C279.048 174.675 279.818 176.206 279.818 177.737C279.818 179.268 279.048 180.544 277.764 181.31L277.507 181.565C276.223 182.33 274.683 182.33 273.399 181.565C272.115 180.799 271.088 179.523 270.831 178.248L269.547 174.931C269.29 174.165 268.52 173.655 267.75 173.91C267.236 174.165 266.723 174.931 266.979 175.696L267.75 178.503L264.155 176.462C263.385 175.951 262.614 176.206 262.101 176.972C261.844 177.482 262.101 178.503 262.614 178.758L266.209 180.799L263.385 181.565C262.614 181.82 262.101 182.585 262.358 183.351C262.614 183.861 263.128 184.371 263.641 184.371C263.898 184.371 263.641 184.371 267.236 183.351C268.777 182.84 270.317 183.096 271.601 183.861C272.885 184.627 273.656 185.902 273.656 187.433V187.944C273.656 189.475 272.885 190.75 271.601 191.516C270.317 192.281 268.777 192.537 267.236 192.026L264.155 191.516C263.385 191.261 262.614 191.771 262.614 192.537C262.358 193.302 262.871 194.067 263.641 194.323L266.466 195.088L262.871 197.129C261.587 197.895 262.101 199.681 263.641 199.681C264.155 199.681 263.898 199.681 268.007 197.385L267.236 200.191C266.979 200.957 267.493 201.722 268.263 201.977C269.034 202.233 269.804 201.722 269.804 200.957L270.574 197.64C270.831 196.109 271.858 195.088 273.142 194.323C274.426 193.557 275.967 193.557 277.25 194.323L277.507 194.578C278.791 195.343 279.561 196.619 279.561 198.15C279.561 199.681 279.048 201.212 277.764 202.233L275.71 204.274C275.196 204.784 275.196 205.55 275.71 206.315C276.223 206.825 276.994 206.825 277.507 206.315L279.561 204.274V208.612C279.561 209.377 280.075 209.887 280.845 209.887C281.616 209.887 282.129 209.377 282.129 208.612V204.274L284.183 206.315C284.44 206.57 284.697 206.825 285.21 206.825C286.494 206.825 287.008 205.294 286.237 204.529L283.926 202.233C282.899 201.212 282.129 199.681 282.129 198.15C282.129 196.619 282.899 195.343 284.183 194.578L284.44 194.323C285.724 193.557 287.265 193.557 288.548 194.323C289.832 195.088 290.859 196.364 291.116 197.64L291.886 200.957C292.143 201.467 292.657 201.977 293.17 201.977C293.941 201.977 294.711 201.212 294.454 200.191L293.684 197.385L297.279 199.426C298.049 199.681 298.819 199.681 299.076 198.915C300.103 198.15 300.103 197.385 299.333 196.874ZM285.467 187.944C285.467 189.475 284.697 191.006 283.156 191.771C281.616 192.537 280.075 192.537 278.534 191.771C277.25 191.006 276.223 189.475 276.223 187.944C276.223 186.413 276.994 184.882 278.534 184.116C280.075 183.351 281.616 183.351 283.156 184.116C284.697 184.627 285.467 186.158 285.467 187.944Z" fill="white"/>
</g>
<g filter="url(#filter3_bdd_130_1505)">
<path d="M208.333 240.874L204.738 238.833L207.563 238.067C208.333 237.812 208.846 237.047 208.59 236.281C208.333 235.516 207.563 235.006 207.049 235.261L203.968 236.026C202.427 236.537 200.886 236.281 199.603 235.516C198.319 234.75 197.548 233.475 197.548 231.944V231.433C197.548 229.902 198.319 228.627 199.603 227.861C200.886 227.096 202.427 226.84 203.968 227.351C207.563 228.371 207.306 228.371 207.563 228.371C208.076 228.371 208.59 227.861 208.846 227.351C209.103 226.585 208.59 225.82 207.819 225.565L204.995 224.799L208.333 222.758C209.103 222.503 209.103 221.482 208.846 220.972C208.59 220.206 207.563 220.206 207.049 220.462L203.454 222.503L204.225 219.696C204.481 218.931 203.968 218.165 203.197 217.91C202.427 217.655 201.657 218.165 201.657 218.931L200.886 222.248C200.63 223.779 199.603 224.799 198.319 225.565C197.035 226.33 195.494 226.33 194.21 225.565L193.954 225.31C192.67 224.544 191.899 223.268 191.899 221.737C191.899 220.206 192.413 218.675 193.697 217.655L196.008 215.358C196.521 214.848 196.521 214.083 196.008 213.317C195.494 212.807 194.724 212.807 194.21 213.317L192.156 215.358V211.276C192.156 210.51 191.643 210 190.872 210C190.102 210 189.588 210.51 189.588 211.276V215.613L187.534 213.572C187.021 213.062 186.25 213.062 185.737 213.572C185.223 214.083 185.223 214.848 185.737 215.613L187.021 217.655C188.048 218.675 188.818 220.206 188.818 221.737C188.818 223.268 188.048 224.544 186.764 225.31L186.507 225.565C185.223 226.33 183.683 226.33 182.399 225.565C181.115 224.799 180.088 223.523 179.831 222.248L178.547 218.931C178.29 218.165 177.52 217.655 176.75 217.91C176.236 218.165 175.723 218.931 175.979 219.696L176.75 222.503L173.155 220.462C172.385 219.951 171.614 220.206 171.101 220.972C170.844 221.482 171.101 222.503 171.614 222.758L175.209 224.799L172.385 225.565C171.614 225.82 171.101 226.585 171.358 227.351C171.614 227.861 172.128 228.371 172.641 228.371C172.898 228.371 172.641 228.371 176.236 227.351C177.777 226.84 179.317 227.096 180.601 227.861C181.885 228.627 182.656 229.902 182.656 231.433V231.944C182.656 233.475 181.885 234.75 180.601 235.516C179.317 236.281 177.777 236.537 176.236 236.026L173.155 235.516C172.385 235.261 171.614 235.771 171.614 236.537C171.358 237.302 171.871 238.067 172.641 238.323L175.466 239.088L171.871 241.129C170.587 241.895 171.101 243.681 172.641 243.681C173.155 243.681 172.898 243.681 177.007 241.385L176.236 244.191C175.979 244.957 176.493 245.722 177.263 245.977C178.034 246.233 178.804 245.722 178.804 244.957L179.574 241.64C179.831 240.109 180.858 239.088 182.142 238.323C183.426 237.557 184.967 237.557 186.25 238.323L186.507 238.578C187.791 239.343 188.561 240.619 188.561 242.15C188.561 243.681 188.048 245.212 186.764 246.233L184.71 248.274C184.196 248.784 184.196 249.55 184.71 250.315C185.223 250.825 185.994 250.825 186.507 250.315L188.561 248.274V252.612C188.561 253.377 189.075 253.887 189.845 253.887C190.616 253.887 191.129 253.377 191.129 252.612V248.274L193.183 250.315C193.44 250.57 193.697 250.825 194.21 250.825C195.494 250.825 196.008 249.294 195.237 248.529L192.926 246.233C191.899 245.212 191.129 243.681 191.129 242.15C191.129 240.619 191.899 239.343 193.183 238.578L193.44 238.323C194.724 237.557 196.265 237.557 197.548 238.323C198.832 239.088 199.859 240.364 200.116 241.64L200.886 244.957C201.143 245.467 201.657 245.977 202.17 245.977C202.941 245.977 203.711 245.212 203.454 244.191L202.684 241.385L206.279 243.426C207.049 243.681 207.819 243.681 208.076 242.915C209.103 242.15 209.103 241.385 208.333 240.874ZM194.467 231.944C194.467 233.475 193.697 235.006 192.156 235.771C190.616 236.537 189.075 236.537 187.534 235.771C186.25 235.006 185.223 233.475 185.223 231.944C185.223 230.413 185.994 228.882 187.534 228.116C189.075 227.351 190.616 227.351 192.156 228.116C193.697 228.627 194.467 230.158 194.467 231.944Z" fill="white"/>
<path d="M261.333 240.874L257.738 238.833L260.563 238.067C261.333 237.812 261.846 237.047 261.59 236.281C261.333 235.516 260.563 235.006 260.049 235.261L256.968 236.026C255.427 236.537 253.886 236.281 252.603 235.516C251.319 234.75 250.548 233.475 250.548 231.944V231.433C250.548 229.902 251.319 228.627 252.603 227.861C253.886 227.096 255.427 226.84 256.968 227.351C260.563 228.371 260.306 228.371 260.563 228.371C261.076 228.371 261.59 227.861 261.846 227.351C262.103 226.585 261.59 225.82 260.819 225.565L257.995 224.799L261.333 222.758C262.103 222.503 262.103 221.482 261.846 220.972C261.59 220.206 260.563 220.206 260.049 220.462L256.454 222.503L257.225 219.696C257.481 218.931 256.968 218.165 256.197 217.91C255.427 217.655 254.657 218.165 254.657 218.931L253.886 222.248C253.63 223.779 252.603 224.799 251.319 225.565C250.035 226.33 248.494 226.33 247.21 225.565L246.954 225.31C245.67 224.544 244.899 223.268 244.899 221.737C244.899 220.206 245.413 218.675 246.697 217.655L249.008 215.358C249.521 214.848 249.521 214.083 249.008 213.317C248.494 212.807 247.724 212.807 247.21 213.317L245.156 215.358V211.276C245.156 210.51 244.643 210 243.872 210C243.102 210 242.588 210.51 242.588 211.276V215.613L240.534 213.572C240.021 213.062 239.25 213.062 238.737 213.572C238.223 214.083 238.223 214.848 238.737 215.613L240.021 217.655C241.048 218.675 241.818 220.206 241.818 221.737C241.818 223.268 241.048 224.544 239.764 225.31L239.507 225.565C238.223 226.33 236.683 226.33 235.399 225.565C234.115 224.799 233.088 223.523 232.831 222.248L231.547 218.931C231.29 218.165 230.52 217.655 229.75 217.91C229.236 218.165 228.723 218.931 228.979 219.696L229.75 222.503L226.155 220.462C225.385 219.951 224.614 220.206 224.101 220.972C223.844 221.482 224.101 222.503 224.614 222.758L228.209 224.799L225.385 225.565C224.614 225.82 224.101 226.585 224.358 227.351C224.614 227.861 225.128 228.371 225.641 228.371C225.898 228.371 225.641 228.371 229.236 227.351C230.777 226.84 232.317 227.096 233.601 227.861C234.885 228.627 235.656 229.902 235.656 231.433V231.944C235.656 233.475 234.885 234.75 233.601 235.516C232.317 236.281 230.777 236.537 229.236 236.026L226.155 235.516C225.385 235.261 224.614 235.771 224.614 236.537C224.358 237.302 224.871 238.067 225.641 238.323L228.466 239.088L224.871 241.129C223.587 241.895 224.101 243.681 225.641 243.681C226.155 243.681 225.898 243.681 230.007 241.385L229.236 244.191C228.979 244.957 229.493 245.722 230.263 245.977C231.034 246.233 231.804 245.722 231.804 244.957L232.574 241.64C232.831 240.109 233.858 239.088 235.142 238.323C236.426 237.557 237.967 237.557 239.25 238.323L239.507 238.578C240.791 239.343 241.561 240.619 241.561 242.15C241.561 243.681 241.048 245.212 239.764 246.233L237.71 248.274C237.196 248.784 237.196 249.55 237.71 250.315C238.223 250.825 238.994 250.825 239.507 250.315L241.561 248.274V252.612C241.561 253.377 242.075 253.887 242.845 253.887C243.616 253.887 244.129 253.377 244.129 252.612V248.274L246.183 250.315C246.44 250.57 246.697 250.825 247.21 250.825C248.494 250.825 249.008 249.294 248.237 248.529L245.926 246.233C244.899 245.212 244.129 243.681 244.129 242.15C244.129 240.619 244.899 239.343 246.183 238.578L246.44 238.323C247.724 237.557 249.265 237.557 250.548 238.323C251.832 239.088 252.859 240.364 253.116 241.64L253.886 244.957C254.143 245.467 254.657 245.977 255.17 245.977C255.941 245.977 256.711 245.212 256.454 244.191L255.684 241.385L259.279 243.426C260.049 243.681 260.819 243.681 261.076 242.915C262.103 242.15 262.103 241.385 261.333 240.874ZM247.467 231.944C247.467 233.475 246.697 235.006 245.156 235.771C243.616 236.537 242.075 236.537 240.534 235.771C239.25 235.006 238.223 233.475 238.223 231.944C238.223 230.413 238.994 228.882 240.534 228.116C242.075 227.351 243.616 227.351 245.156 228.116C246.697 228.627 247.467 230.158 247.467 231.944Z" fill="white"/>
</g>
<defs>
<filter id="filter0_bd_130_1505" x="0" y="0" width="338" height="261" filterUnits="userSpaceOnUse" color-interpolation-filters="sRGB">
<feFlood flood-opacity="0" result="BackgroundImageFix"/>
<feGaussianBlur in="BackgroundImageFix" stdDeviation="7"/>
<feComposite in2="SourceAlpha" operator="in" result="effect1_backgroundBlur_130_1505"/>
<feColorMatrix in="SourceAlpha" type="matrix" values="0 0 0 0 0 0 0 0 0 0 0 0 0 0 0 0 0 0 127 0" result="hardAlpha"/>
<feOffset dx="-21" dy="15"/>
<feGaussianBlur stdDeviation="25"/>
<feComposite in2="hardAlpha" operator="out"/>
<feColorMatrix type="matrix" values="0 0 0 0 0.113725 0 0 0 0 0.14902 0 0 0 0 0.27451 0 0 0 0.25 0"/>
<feBlend mode="normal" in2="effect1_backgroundBlur_130_1505" result="effect2_dropShadow_130_1505"/>
<feBlend mode="normal" in="SourceGraphic" in2="effect2_dropShadow_130_1505" result="shape"/>
</filter>
<filter id="filter1_bd_130_1505" x="132" y="0" width="272" height="216.353" filterUnits="userSpaceOnUse" color-interpolation-filters="sRGB">
<feFlood flood-opacity="0" result="BackgroundImageFix"/>
<feGaussianBlur in="BackgroundImageFix" stdDeviation="7"/>
<feComposite in2="SourceAlpha" operator="in" result="effect1_backgroundBlur_130_1505"/>
<feColorMatrix in="SourceAlpha" type="matrix" values="0 0 0 0 0 0 0 0 0 0 0 0 0 0 0 0 0 0 127 0" result="hardAlpha"/>
<feOffset dx="-21" dy="15"/>
<feGaussianBlur stdDeviation="25"/>
<feComposite in2="hardAlpha" operator="out"/>
<feColorMatrix type="matrix" values="0 0 0 0 0.113438 0 0 0 0 0.148981 0 0 0 0 0.275 0 0 0 0.25 0"/>
<feBlend mode="normal" in2="effect1_backgroundBlur_130_1505" result="effect2_dropShadow_130_1505"/>
<feBlend mode="normal" in="SourceGraphic" in2="effect2_dropShadow_130_1505" result="shape"/>
</filter>
<filter id="filter2_bdd_130_1505" x="75" y="116" width="266" height="158.887" filterUnits="userSpaceOnUse" color-interpolation-filters="sRGB">
<feFlood flood-opacity="0" result="BackgroundImageFix"/>
<feGaussianBlur in="BackgroundImageFix" stdDeviation="7"/>
<feComposite in2="SourceAlpha" operator="in" result="effect1_backgroundBlur_130_1505"/>
<feColorMatrix in="SourceAlpha" type="matrix" values="0 0 0 0 0 0 0 0 0 0 0 0 0 0 0 0 0 0 127 0" result="hardAlpha"/>
<feOffset dx="-21" dy="15"/>
<feGaussianBlur stdDeviation="25"/>
<feComposite in2="hardAlpha" operator="out"/>
<feColorMatrix type="matrix" values="0 0 0 0 0.113438 0 0 0 0 0.148981 0 0 0 0 0.275 0 0 0 0.25 0"/>
<feBlend mode="normal" in2="effect1_backgroundBlur_130_1505" result="effect2_dropShadow_130_1505"/>
<feColorMatrix in="SourceAlpha" type="matrix" values="0 0 0 0 0 0 0 0 0 0 0 0 0 0 0 0 0 0 127 0" result="hardAlpha"/>
<feOffset dy="-7"/>
<feGaussianBlur stdDeviation="20.5"/>
<feComposite in2="hardAlpha" operator="out"/>
<feColorMatrix type="matrix" values="0 0 0 0 0.1375 0 0 0 0 0.74125 0 0 0 0 1 0 0 0 0.3 0"/>
<feBlend mode="normal" in2="effect2_dropShadow_130_1505" result="effect3_dropShadow_130_1505"/>
<feBlend mode="normal" in="SourceGraphic" in2="effect3_dropShadow_130_1505" result="shape"/>
</filter>
<filter id="filter3_bdd_130_1505" x="100" y="162" width="203" height="156.887" filterUnits="userSpaceOnUse" color-interpolation-filters="sRGB">
<feFlood flood-opacity="0" result="BackgroundImageFix"/>
<feGaussianBlur in="BackgroundImageFix" stdDeviation="7"/>
<feComposite in2="SourceAlpha" operator="in" result="effect1_backgroundBlur_130_1505"/>
<feColorMatrix in="SourceAlpha" type="matrix" values="0 0 0 0 0 0 0 0 0 0 0 0 0 0 0 0 0 0 127 0" result="hardAlpha"/>
<feOffset dx="-21" dy="15"/>
<feGaussianBlur stdDeviation="25"/>
<feComposite in2="hardAlpha" operator="out"/>
<feColorMatrix type="matrix" values="0 0 0 0 0.113438 0 0 0 0 0.148981 0 0 0 0 0.275 0 0 0 0.25 0"/>
<feBlend mode="normal" in2="effect1_backgroundBlur_130_1505" result="effect2_dropShadow_130_1505"/>
<feColorMatrix in="SourceAlpha" type="matrix" values="0 0 0 0 0 0 0 0 0 0 0 0 0 0 0 0 0 0 127 0" result="hardAlpha"/>
<feOffset dy="-7"/>
<feGaussianBlur stdDeviation="20.5"/>
<feComposite in2="hardAlpha" operator="out"/>
<feColorMatrix type="matrix" values="0 0 0 0 0.1375 0 0 0 0 0.74125 0 0 0 0 1 0 0 0 0.3 0"/>
<feBlend mode="normal" in2="effect2_dropShadow_130_1505" result="effect3_dropShadow_130_1505"/>
<feBlend mode="normal" in="SourceGraphic" in2="effect3_dropShadow_130_1505" result="shape"/>
</filter>
<linearGradient id="paint0_linear_130_1505" x1="190" y1="-16.5" x2="190" y2="218.5" gradientUnits="userSpaceOnUse">
<stop stop-color="white"/>
<stop offset="1" stop-color="white" stop-opacity="0"/>
</linearGradient>
<linearGradient id="paint1_linear_130_1505" x1="190" y1="35" x2="190" y2="196" gradientUnits="userSpaceOnUse">
<stop stop-color="white"/>
<stop offset="1" stop-color="white" stop-opacity="0"/>
</linearGradient>
<linearGradient id="paint2_linear_130_1505" x1="297" y1="38.5" x2="297" y2="164.5" gradientUnits="userSpaceOnUse">
<stop stop-color="white"/>
<stop offset="1" stop-color="white" stop-opacity="0"/>
</linearGradient>
<linearGradient id="paint3_linear_130_1505" x1="289" y1="35" x2="289" y2="151.353" gradientUnits="userSpaceOnUse">
<stop stop-color="white"/>
<stop offset="1" stop-color="white" stop-opacity="0"/>
</linearGradient>
</defs>
</svg>
