<svg width="317" height="328" viewBox="0 0 317 328" fill="none" xmlns="http://www.w3.org/2000/svg">
<g filter="url(#filter0_f_11_1647)">
<circle cx="122.62" cy="120.62" r="76.6203" fill="#FFC701" fill-opacity="0.5"/>
</g>
<circle cx="122.62" cy="123.132" r="73.1083" fill="url(#paint0_linear_11_1647)" stroke="url(#paint1_linear_11_1647)" stroke-width="2"/>
<mask id="mask0_11_1647" style="mask-type:alpha" maskUnits="userSpaceOnUse" x="48" y="90" width="149" height="108">
<path d="M196.729 123.133C196.729 164.062 163.549 197.241 122.62 197.241C81.6914 197.241 48.512 164.062 48.512 123.133C48.512 82.2038 76.0391 91.7309 116.968 91.7309C157.897 91.7309 196.729 82.2038 196.729 123.133Z" fill="url(#paint2_linear_11_1647)"/>
</mask>
<g mask="url(#mask0_11_1647)">
<g filter="url(#filter1_f_11_1647)">
<path fill-rule="evenodd" clip-rule="evenodd" d="M235.667 258.788C235.667 288.618 211.485 312.8 181.656 312.8C181.446 312.8 181.237 312.798 181.028 312.796V312.8H-8.63897L-8.63657 312.796C-8.84651 312.799 -9.05673 312.8 -9.26723 312.8C-39.0967 312.8 -63.2783 288.619 -63.2783 258.789C-63.2783 228.96 -39.0967 204.778 -9.26723 204.778C16.4449 204.778 37.9606 222.745 43.4104 246.808L61.7011 223.618L118.852 204.777H181.028V204.781C181.237 204.779 181.446 204.777 181.656 204.777C211.485 204.777 235.667 228.959 235.667 258.788Z" fill="#E18700"/>
</g>
</g>
<g filter="url(#filter2_bd_11_1647)">
<mask id="path-5-inside-1_11_1647" fill="white">
<path fill-rule="evenodd" clip-rule="evenodd" d="M247.678 262.998C247.829 262.999 247.981 263 248.133 263C269.69 263 287.166 245.524 287.166 223.967C287.166 202.409 269.69 184.934 248.133 184.934C247.981 184.934 247.829 184.935 247.678 184.936V184.934H237.595C237.959 182.262 238.147 179.535 238.147 176.764C238.147 143.675 211.324 116.852 178.236 116.852C145.147 116.852 118.324 143.675 118.324 176.764C118.324 179.886 118.563 182.952 119.023 185.946C116.174 185.284 113.205 184.934 110.155 184.934C88.5971 184.934 71.1213 202.409 71.1213 223.967C71.1213 245.524 88.5971 263 110.155 263C110.307 263 110.458 262.999 110.61 262.998L110.608 263H247.678V262.998Z"/>
</mask>
<path fill-rule="evenodd" clip-rule="evenodd" d="M247.678 262.998C247.829 262.999 247.981 263 248.133 263C269.69 263 287.166 245.524 287.166 223.967C287.166 202.409 269.69 184.934 248.133 184.934C247.981 184.934 247.829 184.935 247.678 184.936V184.934H237.595C237.959 182.262 238.147 179.535 238.147 176.764C238.147 143.675 211.324 116.852 178.236 116.852C145.147 116.852 118.324 143.675 118.324 176.764C118.324 179.886 118.563 182.952 119.023 185.946C116.174 185.284 113.205 184.934 110.155 184.934C88.5971 184.934 71.1213 202.409 71.1213 223.967C71.1213 245.524 88.5971 263 110.155 263C110.307 263 110.458 262.999 110.61 262.998L110.608 263H247.678V262.998Z" fill="url(#paint3_linear_11_1647)" shape-rendering="crispEdges"/>
<path d="M247.678 262.998L247.701 260.998C247.166 260.992 246.652 261.2 246.272 261.575C245.892 261.951 245.678 262.463 245.678 262.998H247.678ZM247.678 184.936H245.678C245.678 185.471 245.892 185.983 246.272 186.359C246.652 186.734 247.166 186.942 247.701 186.936L247.678 184.936ZM247.678 184.934H249.678C249.678 183.829 248.782 182.934 247.678 182.934V184.934ZM237.595 184.934L235.613 184.663C235.535 185.236 235.708 185.814 236.088 186.249C236.468 186.684 237.017 186.934 237.595 186.934V184.934ZM119.023 185.946L118.571 187.894C119.217 188.044 119.896 187.864 120.383 187.412C120.87 186.961 121.101 186.298 121 185.642L119.023 185.946ZM110.61 262.998L112.179 264.237C112.657 263.632 112.745 262.807 112.405 262.115C112.065 261.424 111.358 260.989 110.587 260.998L110.61 262.998ZM110.608 263L109.038 261.761C108.563 262.362 108.474 263.182 108.808 263.872C109.142 264.562 109.841 265 110.608 265V263ZM247.678 263V265C248.782 265 249.678 264.105 249.678 263H247.678ZM247.655 264.997C247.814 264.999 247.973 265 248.133 265V261C247.988 261 247.844 260.999 247.701 260.998L247.655 264.997ZM248.133 265C270.795 265 289.166 246.629 289.166 223.967H285.166C285.166 244.42 268.586 261 248.133 261V265ZM289.166 223.967C289.166 201.305 270.795 182.934 248.133 182.934V186.934C268.586 186.934 285.166 203.514 285.166 223.967H289.166ZM248.133 182.934C247.973 182.934 247.814 182.935 247.655 182.936L247.701 186.936C247.844 186.935 247.988 186.934 248.133 186.934V182.934ZM245.678 184.934V184.936H249.678V184.934H245.678ZM237.595 186.934H247.678V182.934H237.595V186.934ZM239.576 185.204C239.953 182.443 240.147 179.626 240.147 176.764H236.147C236.147 179.444 235.965 182.081 235.613 184.663L239.576 185.204ZM240.147 176.764C240.147 142.571 212.428 114.852 178.236 114.852V118.852C210.219 118.852 236.147 144.78 236.147 176.764H240.147ZM178.236 114.852C144.043 114.852 116.324 142.571 116.324 176.764H120.324C120.324 144.78 146.252 118.852 178.236 118.852V114.852ZM116.324 176.764C116.324 179.988 116.571 183.156 117.047 186.25L121 185.642C120.555 182.748 120.324 179.784 120.324 176.764H116.324ZM119.476 183.998C116.479 183.301 113.359 182.934 110.155 182.934V186.934C113.052 186.934 115.869 187.266 118.571 187.894L119.476 183.998ZM110.155 182.934C87.4926 182.934 69.1213 201.305 69.1213 223.967H73.1213C73.1213 203.514 89.7017 186.934 110.155 186.934V182.934ZM69.1213 223.967C69.1213 246.629 87.4926 265 110.155 265V261C89.7017 261 73.1213 244.42 73.1213 223.967H69.1213ZM110.155 265C110.314 265 110.473 264.999 110.633 264.997L110.587 260.998C110.443 260.999 110.299 261 110.155 261V265ZM112.177 264.24L112.179 264.237L109.04 261.758L109.038 261.761L112.177 264.24ZM247.678 261H110.608V265H247.678V261ZM245.678 262.998V263H249.678V262.998H245.678Z" fill="url(#paint4_linear_11_1647)" mask="url(#path-5-inside-1_11_1647)"/>
</g>
<defs>
<filter id="filter0_f_11_1647" x="2" y="0" width="241.241" height="241.241" filterUnits="userSpaceOnUse" color-interpolation-filters="sRGB">
<feFlood flood-opacity="0" result="BackgroundImageFix"/>
<feBlend mode="normal" in="SourceGraphic" in2="BackgroundImageFix" result="shape"/>
<feGaussianBlur stdDeviation="22" result="effect1_foregroundBlur_11_1647"/>
</filter>
<filter id="filter1_f_11_1647" x="-77.2783" y="190.777" width="326.945" height="136.023" filterUnits="userSpaceOnUse" color-interpolation-filters="sRGB">
<feFlood flood-opacity="0" result="BackgroundImageFix"/>
<feBlend mode="normal" in="SourceGraphic" in2="BackgroundImageFix" result="shape"/>
<feGaussianBlur stdDeviation="7" result="effect1_foregroundBlur_11_1647"/>
</filter>
<filter id="filter2_bd_11_1647" x="0.121338" y="81.8521" width="316.045" height="246.148" filterUnits="userSpaceOnUse" color-interpolation-filters="sRGB">
<feFlood flood-opacity="0" result="BackgroundImageFix"/>
<feGaussianBlur in="BackgroundImageFix" stdDeviation="7"/>
<feComposite in2="SourceAlpha" operator="in" result="effect1_backgroundBlur_11_1647"/>
<feColorMatrix in="SourceAlpha" type="matrix" values="0 0 0 0 0 0 0 0 0 0 0 0 0 0 0 0 0 0 127 0" result="hardAlpha"/>
<feOffset dx="-21" dy="15"/>
<feGaussianBlur stdDeviation="25"/>
<feComposite in2="hardAlpha" operator="out"/>
<feColorMatrix type="matrix" values="0 0 0 0 0.113438 0 0 0 0 0.148981 0 0 0 0 0.275 0 0 0 0.25 0"/>
<feBlend mode="normal" in2="effect1_backgroundBlur_11_1647" result="effect2_dropShadow_11_1647"/>
<feBlend mode="normal" in="SourceGraphic" in2="effect2_dropShadow_11_1647" result="shape"/>
</filter>
<linearGradient id="paint0_linear_11_1647" x1="122.62" y1="49.0239" x2="122.62" y2="197.241" gradientUnits="userSpaceOnUse">
<stop stop-color="#FFE600"/>
<stop offset="1" stop-color="#FF7A00"/>
</linearGradient>
<linearGradient id="paint1_linear_11_1647" x1="122.62" y1="49.0239" x2="122.62" y2="197.241" gradientUnits="userSpaceOnUse">
<stop stop-color="white"/>
<stop offset="1" stop-color="white" stop-opacity="0"/>
</linearGradient>
<linearGradient id="paint2_linear_11_1647" x1="122.62" y1="49.0244" x2="122.62" y2="197.241" gradientUnits="userSpaceOnUse">
<stop stop-color="#FFD600"/>
<stop offset="1" stop-color="#FF7A00"/>
</linearGradient>
<linearGradient id="paint3_linear_11_1647" x1="189.192" y1="121.248" x2="189.192" y2="279.514" gradientUnits="userSpaceOnUse">
<stop stop-color="white"/>
<stop offset="1" stop-color="white" stop-opacity="0"/>
</linearGradient>
<linearGradient id="paint4_linear_11_1647" x1="179.144" y1="116.852" x2="179.144" y2="263" gradientUnits="userSpaceOnUse">
<stop stop-color="white"/>
<stop offset="1" stop-color="white" stop-opacity="0"/>
</linearGradient>
</defs>
</svg>
