<svg width="75" height="49" viewBox="0 0 75 49" fill="none" xmlns="http://www.w3.org/2000/svg">
<path d="M0 34.2404C0 30.9497 1.03534 27.9913 3.10602 25.4318C5.17669 22.8724 7.81514 21.2104 11.0547 20.4791C11.9231 16.59 13.8936 13.3657 16.9996 10.906C20.1056 8.41298 23.6792 7.1831 27.7538 7.1831C31.6947 7.1831 35.2349 8.37974 38.3075 10.8063C41.4135 13.2328 43.4174 16.3241 44.3192 20.1134H45.2209C49.1619 20.1134 52.5017 21.4763 55.2737 24.2352C58.0458 26.9941 59.4485 30.3181 59.4485 34.2072C59.4485 38.1295 58.0458 41.4535 55.2737 44.2124C52.5017 46.9713 49.1619 48.3674 45.2209 48.3674H14.261C12.3239 48.3674 10.487 48.0018 8.75028 47.2372C7.01359 46.4727 5.44388 45.542 4.17475 44.2789C2.90563 43.0158 1.90369 41.4867 1.13553 39.7582C0.367378 38.0298 0 36.1351 0 34.2404ZM4.84271 34.2404C4.84271 36.7667 5.77786 38.9605 7.58135 40.7554C9.38484 42.5504 11.6225 43.4811 14.2276 43.4811H45.2209C47.7926 43.4811 50.0302 42.5836 51.8671 40.7554C53.704 38.9272 54.6392 36.7667 54.6392 34.2404C54.6392 31.7142 53.7374 29.5203 51.8671 27.7254C50.0302 25.9304 47.826 24.9997 45.2209 24.9997H40.5786C40.2446 24.9997 40.0776 24.8335 40.0776 24.5011L39.8438 22.8724C39.5099 19.7478 38.1739 17.1218 35.8695 15.061C33.565 13.0001 30.8264 11.9696 27.687 11.9696C24.5475 11.9696 21.8089 13.0001 19.471 15.0942C17.1332 17.1551 15.8307 19.781 15.5301 22.8724L15.2963 24.2684C15.2963 24.6008 15.1293 24.767 14.7619 24.767L13.259 24.9997C10.8544 25.1991 8.85048 26.1964 7.21397 27.9581C5.67766 29.7198 4.84271 31.8139 4.84271 34.2404ZM34.4 5.25518C34.066 5.55434 34.1328 5.78702 34.6338 5.95322C36.0699 6.58478 37.2722 7.1831 38.2407 7.78142C38.6081 7.88114 38.8753 7.8479 38.9755 7.6817C41.0128 5.78702 43.3506 4.82306 46.0559 4.82306C48.7611 4.82306 51.0656 5.72054 53.0695 7.5155C55.0399 9.31046 56.1421 11.5375 56.3759 14.1635L56.6765 16.2908H61.419C63.5898 16.2908 65.4601 17.0554 67.0298 18.6176C68.5995 20.1799 69.3677 22.0081 69.3677 24.1355C69.3677 26.1299 68.6663 27.8583 67.297 29.3541C65.9277 30.8499 64.2244 31.6809 62.1871 31.9136C61.8531 31.9136 61.6862 32.0798 61.6862 32.4455V36.2016C61.6862 36.5672 61.8531 36.7334 62.1871 36.7334C65.5603 36.534 68.3992 35.2044 70.7036 32.7779C73.0081 30.3513 74.177 27.4595 74.177 24.1355C74.177 20.612 72.9413 17.6204 70.4364 15.1607C67.9316 12.6677 64.9258 11.4378 61.419 11.4378H60.918C60.0496 8.11382 58.2128 5.38814 55.4073 3.22755C52.6353 1.06695 49.4959 0.00326931 46.0559 0.00326931C41.3802 -0.0299706 37.4726 1.73175 34.4 5.25518Z" fill="white"/>
</svg>
