<svg width="62" height="34" viewBox="0 0 62 34" fill="none" xmlns="http://www.w3.org/2000/svg">
<path d="M0.304443 21.2292C0.304443 21.8463 0.536117 22.3863 1.0252 22.8234C1.43707 23.3119 1.97764 23.5434 2.64692 23.5434H40.4611C41.2076 23.5434 41.8254 23.8005 42.3403 24.3147C42.8551 24.829 43.1125 25.4718 43.1125 26.2174C43.1125 26.9631 42.8551 27.5802 42.3403 28.0687C41.8254 28.5573 41.2076 28.8144 40.4354 28.8144C39.6889 28.8144 39.0453 28.5573 38.5563 28.0687C38.1444 27.6059 37.6296 27.4002 37.0118 27.4002C36.3682 27.4002 35.8277 27.6316 35.3643 28.0687C34.901 28.5058 34.6693 29.0458 34.6693 29.6372C34.6693 30.28 34.901 30.82 35.3901 31.2571C36.8316 32.6712 38.5305 33.3912 40.4354 33.3912C42.4432 33.3912 44.1679 32.697 45.6094 31.3085C47.0509 29.92 47.746 28.2487 47.746 26.2432C47.746 24.2376 47.0252 22.5406 45.5837 21.1007C44.1422 19.6608 42.4175 18.9408 40.4354 18.9408H2.64692C2.00338 18.9408 1.46281 19.1722 0.999463 19.6094C0.536116 20.0465 0.304443 20.5864 0.304443 21.2292ZM0.304443 12.7956C0.304443 13.387 0.536117 13.9012 1.0252 14.364C1.46281 14.8269 2.00338 15.0326 2.64692 15.0326H54.2328C56.2406 15.0326 57.9653 14.3383 59.4068 12.9241C60.8484 11.5357 61.5691 9.83866 61.5691 7.8588C61.5691 5.87895 60.8484 4.15622 59.4068 2.74204C57.9653 1.32786 56.2406 0.60791 54.2328 0.60791C52.2507 0.60791 50.5775 1.30214 49.2132 2.6649C48.7499 3.0763 48.5182 3.64197 48.5182 4.38763C48.5182 5.05615 48.7499 5.59611 49.1875 6.00751C49.6251 6.41891 50.1657 6.62461 50.8092 6.62461C51.427 6.62461 51.9676 6.41891 52.4309 6.00751C52.92 5.46755 53.5121 5.21043 54.2328 5.21043C54.9793 5.21043 55.5971 5.46755 56.1119 5.9818C56.6268 6.49605 56.8842 7.11314 56.8842 7.8588C56.8842 8.60446 56.6268 9.22156 56.1119 9.71009C55.5971 10.1986 54.9793 10.4558 54.2328 10.4558H2.64692C2.00338 10.4558 1.46281 10.6872 0.999463 11.1243C0.536116 11.6128 0.304443 12.1528 0.304443 12.7956Z" fill="white"/>
</svg>
